<svg fill="none" height="84" width="106" xmlns="http://www.w3.org/2000/svg"><path d="M61.54 82.237c-26.98 3.79-49.62-6.2-53.45-33.48-3.83-27.27 17.44-43.87 44.42-47.67 26.98-3.79 48.74 1.53 52.58 28.81 3.83 27.28-16.57 48.55-43.55 52.34z" fill="#ebe5f2"/><g fill="#9e79b6"><path d="M53.74 35.637c-.44 0-.79-.36-.79-.79v-4.28H30.99v4.28c0 .44-.36.79-.79.79s-.79-.36-.79-.79v-5.87h25.14v5.87c-.01.44-.37.79-.81.79zm-1.73 40.1H33.63l-1.7-9.49c-.08-.43.21-.85.64-.92.43-.08.85.21.92.64l1.46 8.18h15.71l5.49-32.11a.797.797 0 011.57.27zm-22.36-27.07c-.38 0-.72-.27-.78-.66l-.96-5.7c-.07-.43.22-.84.65-.92.43-.07.84.22.92.65l.96 5.7c.07.43-.22.84-.65.92-.05.01-.09.01-.14.01z"/><path d="M25.61 40.897H58.8v-5.1H25.61zm34.78 1.59H24.02v-8.28h36.37zm-42.97.85c-8.73 0-15.83 7.1-15.83 15.83s7.1 15.83 15.83 15.83 15.83-7.1 15.83-15.83-7.1-15.83-15.83-15.83zm0 33.25C7.81 76.587 0 68.777 0 59.167s7.81-17.42 17.42-17.42 17.42 7.81 17.42 17.42-7.81 17.42-17.42 17.42z"/><path d="M17.42 54.037c-2.83 0-5.13 2.3-5.13 5.13s2.3 5.13 5.13 5.13 5.13-2.3 5.13-5.13-2.3-5.13-5.13-5.13zm0 11.85c-3.71 0-6.72-3.02-6.72-6.72 0-3.71 3.02-6.72 6.72-6.72 3.71 0 6.72 3.02 6.72 6.72 0 3.71-3.01 6.72-6.72 6.72z"/><path d="M11.04 70.947c-1.73 0-3.14-1.41-3.14-3.14v-1.06a2.652 2.652 0 01-3.71-2.42v-1.66l-.13-.16c-1.93-2.67-2.96-5.79-2.96-9.02 0-.44.36-.79.79-.79s.79.36.79.79c0 2.89.92 5.69 2.65 8.09.05.07.08.09.08.09l.35.24v2.43c0 .58.47 1.05 1.06 1.05.58 0 1.06-.47 1.06-1.05h1.59v3.48c0 .85.7 1.55 1.55 1.55.77 0 1.43-.57 1.54-1.33l.13-.92.89.27c1.63.5 3.33.75 5.06.75 6.21 0 11.9-3.35 14.51-8.52a.795.795 0 111.42.72c-2.87 5.71-9.12 9.4-15.93 9.4-1.62 0-3.22-.2-4.76-.61a3.127 3.127 0 01-2.84 1.82z"/><path d="M9.52 54.157a1.25 1.25 0 11-1.25-1.25c.69-.01 1.25.56 1.25 1.25zm4.91-7.42a1.25 1.25 0 11-1.25-1.25c.69-.01 1.25.55 1.25 1.25zm6.56 3.08a1.25 1.25 0 11-2.5-.001 1.25 1.25 0 012.5 0zm8.96 2.6a1.25 1.25 0 11-2.5-.001 1.25 1.25 0 012.5 0zm-2.02 8.48a1.25 1.25 0 11-1.25-1.25c.68 0 1.25.56 1.25 1.25zm16.55-27.92h-5.02a.8.8 0 01-.8-.79c0-.44.36-.79.8-.79h5.02c.44 0 .79.36.79.79 0 .44-.35.79-.79.79zm8.43 33.85H42.69c-.44 0-.79-.36-.79-.79s.36-.79.79-.79h10.22c.44 0 .79.36.79.79s-.35.79-.79.79zm-.94 5.12h-9.28c-.44 0-.79-.36-.79-.79 0-.44.36-.79.79-.79h9.28c.44 0 .79.36.79.79s-.35.79-.79.79zm1.88-10.24H42.69a.8.8 0 01-.8-.79c0-.44.36-.79.8-.79h11.16c.44 0 .79.36.79.79 0 .44-.35.79-.79.79zm.47-5.33H42.69c-.44 0-.79-.36-.79-.79 0-.44.36-.79.79-.79h11.63c.44 0 .79.36.79.79s-.35.79-.79.79zm1.88-10.23H42.69a.8.8 0 01-.8-.79c0-.44.36-.79.8-.79H56.2c.44 0 .79.36.79.79.01.43-.35.79-.79.79zm-1.17 5.11H42.69c-.44 0-.79-.36-.79-.79 0-.44.36-.79.79-.79h12.34c.44 0 .79.36.79.79 0 .44-.36.79-.79.79z"/></g></svg>