<svg fill="none" height="98" width="132" xmlns="http://www.w3.org/2000/svg"><path d="M60.212 96.42c-30.15 4.241-55.43-6.93-59.71-37.41-4.29-30.47 19.47-49.02 49.61-53.26 30.15-4.24 54.46 1.71 58.74 32.18 4.29 30.48-18.5 54.25-48.64 58.49z" fill="#ebe5f2"/><path d="M106.203 25.21c-.38.17-.56.63-.4 1.02.01.03 1.24 3.22-1.36 5.27-3.48 2.74-6.99-1.5-7.14-1.68a.784.784 0 00-.59-.29c-.09 0-.18.02-.27.05l-3.02 1.17c-.11-.42-.25-.81-.43-1.17l2.58-2.32c1.31.94 3.45 1.97 5.76 1.05.68-.27 1.31-.7 1.88-1.27 1.41-1.4 2.07-2.96 1.95-4.64-.06-.79-.29-1.56-.69-2.31 1.16-.65 2.43-1.84 3.06-3.99.04-.14.06-.28.1-.42 1.09.64 2.19 1.67 2.65 3.41.96 3.81-4.03 6.1-4.08 6.12zm-25.51 29.65c-.26.14-.42.41-.42.7v3.42h-24.07v-3.42c0-.29-.16-.56-.42-.7-16.92-8.98-15.97-19.78-15.46-22.35h55.84c.51 2.57 1.46 13.37-15.47 22.35zm-21.19-23.93h-6.83c.36-1.73 1.12-3.34 2.25-4.7zm-3.5-5.83c1.73-1.57 3.89-2.5 6.2-2.67v8.5h-.52zm8.22 5.83h-.49v-8.5c2.3.17 4.45 1.1 6.18 2.66zm6.77-4.72c1.14 1.37 1.9 2.98 2.26 4.72h-6.86zm-8.03-10.22c8.32 0 15.22 6.24 16.54 14.4.03.18.03.36.05.54h-4.74c-.44-2.41-1.55-4.63-3.26-6.41-2.29-2.38-5.34-3.7-8.6-3.7s-6.32 1.32-8.62 3.71c-1.7 1.78-2.81 4-3.25 6.39h-4.76c1.12-8.41 8.14-14.93 16.64-14.93zm12.53 3.19l1.5-3.47c.64.45 1.39.74 2.13.75h.04c.57 0 1.18-.17 1.76-.49-.09 3.04 2.3 5.27 4.14 6.3l-.35 3.65c-.7.27-1.42.66-2.13 1.29-.56.5-1.16 1.1-1.77 1.75-.85-3.76-2.81-7.09-5.49-9.61.05-.06.13-.09.17-.17zM64.653 6.07c.11-.91.55-2.2 2.05-3.21 2.56-1.73 5.52-1.73 9.31-.01s5.78 3.98 6.25 7.09c.19 1.27-.07 2.23-.44 2.93-.04.07-.07.15-.11.22-.13.21-.26.4-.39.56-.72.85-1.6 1.22-2.17 1.22h-.02c-.73-.01-1.53-.47-1.96-1.13-.22-.33-.43-.86-.18-1.49.49-1.26 1.74-1.12 1.88-1.1.44.06.81-.23.87-.66a.783.783 0 00-.64-.9c-.89-.14-2.77.11-3.54 2.08-.37.94-.26 1.93.27 2.81l-1.44 3.33-8.09-3.68 1.44-3.32c1-.19 1.78-.78 2.21-1.69.9-1.9-.18-3.5-.88-4.08a.748.748 0 00-1.08.12.81.81 0 00.11 1.11c.04.04 1.06.9.46 2.16-.29.6-.81.8-1.2.86-.75.12-1.64-.18-2.13-.73-.38-.42-.71-1.36-.58-2.49zm22.29 5.65c.23 0 .39.02.41.02.44.06.79-.24.85-.67.01-.06.85-5.59 4.68-5.61h.02c1.86 0 3.16.91 4.05 1.88-.12.07-.25.11-.37.19-1.52.96-2.54 2.39-2.95 4.07-1.13-.28-2.23-.23-3.22.17-1.22.49-2.22 1.46-3 2.88-.75 1.4-.93 2.82-.52 4.24.42 1.47 1.41 2.61 2.31 3.38l-1.58 3.3c-.43-.07-.88-.09-1.34-.05l.35-3.64a.794.794 0 00-.44-.79c-.21-.1-5.12-2.46-3.44-6.64.11-.28.25-.53.39-.76.02-.04.05-.07.06-.1 1.12-1.66 2.93-1.87 3.74-1.87zm4.91 19.21h-10.71v-.02c.84-.94 1.67-1.81 2.45-2.5.53-.47 1.06-.79 1.57-.99.95-.39 1.84-.38 2.59-.2.01 0 .02 0 .02.01.25.06.48.14.69.22.87.35 1.44.85 1.53.93.05.03.51.36.99.94.15.18.3.39.44.62.01.01.01.02.02.03.14.23.27.49.37.78 0 .01.01.02.01.02l.03.16zm6.42-22.51c2.9-1.16 5.49.88 5.62.99.13.1 3.24 2.5 2.14 6.26-.59 2.03-1.91 2.94-2.99 3.37a.805.805 0 00-.34 1.21c.54.75.85 1.53.9 2.29.08 1.19-.42 2.33-1.49 3.39-.42.42-.88.73-1.37.93-1.92.76-3.8-.43-4.75-1.21a.759.759 0 00-.99.02l-2.87 2.58c-.41-.5-.85-.88-1.22-1.13-.42-.38-1.05-.79-1.79-1.1l1.73-3.62c.16-.34.06-.76-.24-.98-.67-.5-1.85-1.56-2.25-2.97-.29-1-.16-2.02.39-3.03.59-1.1 1.34-1.83 2.21-2.18.4-.16.83-.24 1.27-.24.54 0 1.12.12 1.72.36.22.09.48.07.68-.06s.34-.35.36-.59c.11-1.13.62-2.71 2.39-3.84.31-.18.6-.33.89-.45zm13.47 10.29c-.67-2.58-2.4-3.96-3.94-4.71-.04-3.57-2.85-5.75-2.98-5.84-.32-.26-3.04-2.29-6.34-1.42-1.09-1.38-2.88-2.85-5.58-2.85h-.02c-3.74.01-5.51 3.76-6.07 6.25-.86.01-1.95.22-2.97.8.01-.4 0-.81-.07-1.23-.55-3.64-2.89-6.35-7.14-8.29-4.26-1.94-7.79-1.89-10.78.13-1.55 1.05-2.53 2.59-2.73 4.34-.17 1.45.21 2.89.98 3.75.5.55 1.21.93 1.97 1.11l-1.5 3.47c-.03.08-.05.17-.06.26-.52-.05-1.03-.07-1.56-.07-9.35 0-17.07 7.23-18.18 16.52h-5.07c-.34 0-.63.22-.73.55-.04.14-4 13.89 15.68 24.56v3.73c0 .44.34.79.77.79h25.62c.42 0 .77-.35.77-.79v-3.73c16.85-9.14 16.37-20.52 15.86-23.7 1.16.9 2.67 1.66 4.3 1.66 1.11 0 2.27-.35 3.41-1.25 2.44-1.92 2.49-4.72 2.07-6.41 2.19-1.19 5.25-3.93 4.29-7.63z" fill="#9e79b6"/><path d="M123.743 72.89c8.51 3.49 7.11 11.28 6.22 13.13a.84.84 0 01-.33.37c-1.76 1.16-9.57 3.84-14.69-3.5m6.98-24.78s3.29 5.77-2.69 7.76zm-2.48-3.37s-7.32.89-9.09 4.42c-1.78 3.53-1 5.26.76 6.46zm-1.79 4.18c-3.08 1.46-5.88 7.11-3.26 8.22zm4.43-6.77s2.98 5.7 3.27 9.28c.29 3.59-3.03 8.19-8.09 6.63-3.64-1.12-4.72-1.52-6.16-2.44-1.87-1.2-3.18-3.1-3.4-5.23-.21-2.11.54-4.58 4.4-6.04 6.13-2.32 9.98-2.2 9.98-2.2zm-22.72 8.21s-1.21-1.43-2.93-.71c-.44.19-.94.21-1.42.15-.59-.07-1.4-.04-2.04.49-.43.35-.92.63-1.48.72-.73.12-1.68.47-1.93 1.46zm-1.39 5.41s-2.93.05-5.16.86zm-6.21 4.38s1.11 1.5 2.88.88c.45-.16.95-.15 1.43-.07.59.11 1.39.12 2.07-.37.45-.32.96-.57 1.52-.63.74-.07 1.7-.37 2.02-1.34zm-7.08-1.58c3.07-3.39 8.33-5.27 15-5.31zm0 0c2.56-2-1.46-12.6 12.17-12.35 6.47.11 6.29 5.93 6.29 5.93s6.68 8.05-3.27 11.18c-11.19 3.51-11.32-4.5-15.19-4.76zm11.98 16.89s-.69.33-1.14.9zm4.41-5.49s-1.33.35-2.36 1.41zm-.03 4.51s-1.21.35-1.99 1.17zm4.86-4.71s-1.32.21-2.62 1.34zm2.67-1.51s3.2 5.58-4.74 10.95c-7.94 5.37-12.41 1.59-12.41 1.59zm-5.08 7.75s-4.77 3.79-12.06 4.79c0 0 .71-8.51 7.14-12.51 6.44-4.01 16.41-1.29 4.92 7.72zm26.08.02s-2.03.16-4.97-1.07zm.43-.29s-.57-2.86-3.28-5.08zm-14.1-10.59s-1.66-1.62-4.24-1.35zm0 0c4.35-4.95 8.3-3.08 8.3-3.08-1.31 2.54-2.81 3.04-3.44 3.14-.11.02-.13.15-.05.22 2.4 1.85 1.41 4.67 1.41 4.67s-2.74 1.43-5.08-.49c-.09-.07-.22-.03-.21.08.01.61-.25 2.1-2.65 3.78 0-.01-2.63-3.37 1.72-8.32z" stroke="#f6a1ba" stroke-linecap="round" stroke-linejoin="round" stroke-miterlimit="10" stroke-width="1.286"/></svg>