<svg fill="none" height="87" width="146" xmlns="http://www.w3.org/2000/svg"><path d="M89.029 79.654c28.49 4 52.22-5.39 55.92-31.74s-18.92-42.68-47.4-46.68c-28.49-4-51.36.88-55.06 27.23-3.71 26.34 18.05 47.18 46.54 51.19z" fill="#feeff1"/><path d="M24.01 47.234c-.09 0-.18-.03-.26-.09-.27-.22-.52-.47-.76-.73-1.16-1.28-1.82-2.82-1.86-4.35-.04-1.61.62-3.11 1.86-4.24.76-.69 1.72-1.24 2.79-1.58 2.09-.67 4.97-.57 6.18 1.93.03.07.14.13.26.2.09.05.18.1.25.16.29.22.54.45.75.69a.4.4 0 01-.04.57c-.17.14-.42.13-.57-.04-.17-.2-.38-.39-.62-.57-.05-.04-.11-.07-.17-.11-.19-.11-.44-.25-.58-.54-.99-2.03-3.42-2.08-5.2-1.51-.96.31-1.82.79-2.49 1.41-1.08.98-1.63 2.23-1.59 3.62.03 1.34.62 2.7 1.65 3.83.21.24.44.46.68.66.17.14.19.4.05.57-.1.08-.22.12-.33.12z" fill="#f79550"/><path d="M31.38 39.684c-1.79 0-3.82.76-5.2 2.01-1.25 1.14-1.89 2.6-1.85 4.21.04 1.55.72 3.13 1.92 4.44s2.7 2.14 4.25 2.32c1.6.19 3.11-.31 4.36-1.45 1.83-1.66 2.94-4.16 2.69-6.07-.16-1.28-.89-2.27-2.16-2.94a.388.388 0 01-.19-.21c-.53-1.41-1.67-1.96-2.54-2.17-.41-.09-.84-.14-1.28-.14zm-.26 13.83c-.24 0-.49-.01-.73-.04-1.73-.21-3.42-1.12-4.75-2.58s-2.08-3.22-2.13-4.97c-.05-1.83.71-3.54 2.12-4.83 1.91-1.74 4.94-2.6 7.21-2.06 1.46.35 2.51 1.22 3.05 2.52 1.41.79 2.26 1.99 2.45 3.48.32 2.53-1.25 5.22-2.95 6.77-1.22 1.12-2.71 1.71-4.27 1.71z" fill="#f79550"/><path d="M35.46 47.284c-.05 0-.1-.01-.15-.03a.399.399 0 01-.23-.52c.56-1.45.62-3.13.16-4.59a.39.39 0 01.27-.5c.21-.07.44.05.5.27.51 1.64.44 3.5-.18 5.12-.05.15-.21.25-.37.25z" fill="#f79550"/><path d="M69.84 65.784c.42.37 1.16.25 1.77-.27.11-.1.26-.12.4-.07 2.21.79 5.16-.28 7.17-2.6 2.17-2.51 2.73-5.81 1.32-7.86a.378.378 0 01-.02-.42c.18-.33.14-.71-.1-.92s-.62-.19-.92.03a.42.42 0 01-.42.04c-2.23-1.1-5.42-.09-7.6 2.42-2.01 2.32-2.66 5.39-1.57 7.46.07.13.06.28-.02.4-.42.68-.43 1.43-.01 1.79zm.62 1.02c-.43 0-.83-.13-1.15-.41-.68-.59-.77-1.67-.25-2.63-1.12-2.38-.43-5.63 1.77-8.16 2.35-2.7 5.82-3.82 8.36-2.71.57-.31 1.25-.26 1.72.14s.61 1.07.38 1.68c1.45 2.36.84 5.95-1.51 8.66-2.2 2.53-5.32 3.68-7.83 2.9-.47.35-1 .53-1.49.53z" fill="#ffc828"/><path d="M73.489 64.754c-.81 0-1.35-.15-1.4-.17a.398.398 0 01-.27-.5c.06-.21.29-.34.5-.27.1.03 2.56.71 4.92-1.27.17-.14.43-.12.57.05s.12.43-.05.57c-1.56 1.31-3.16 1.59-4.27 1.59zm-4.359.7h-.06a1.58 1.58 0 01-.48-.15c-.76-.38-1.09-1.34-.85-2.34-1.56-1.91-1.67-5.02-.25-7.82 1.51-2.99 4.41-4.8 6.98-4.38.46-.41 1.09-.52 1.61-.26s.81.84.75 1.45c.22.21.41.45.59.7a.402.402 0 01-.66.46c-.18-.26-.39-.5-.62-.71a.397.397 0 01-.12-.4c.08-.33-.03-.65-.29-.78-.25-.13-.58-.03-.8.23-.1.12-.25.17-.4.14-2.26-.49-4.92 1.15-6.31 3.91-1.29 2.55-1.18 5.47.28 7.09.1.11.13.26.08.4-.23.68-.06 1.37.38 1.59.07.04.15.06.23.07.22.03.37.24.34.46-.03.19-.2.34-.4.34zm-49.131-12.42c-1.67 0-3.17.74-3.74 1.9-.07.13-.19.22-.34.22-.42.02-.75.25-.78.52-.02.27.27.55.67.65.14.03.25.14.29.28.4 1.36 1.98 2.43 3.85 2.59 2.01.18 3.85-.72 4.35-2.14.05-.14.18-.24.33-.26.16-.02.29-.13.3-.25s-.1-.25-.25-.3a.433.433 0 01-.28-.32c-.25-1.48-1.89-2.68-3.91-2.86-.16-.02-.32-.03-.49-.03zm.46 6.99c-.19 0-.38-.01-.57-.03-2.13-.19-3.9-1.36-4.48-2.96-.68-.25-1.12-.82-1.07-1.43s.59-1.1 1.3-1.23c.85-1.47 2.8-2.31 4.93-2.13 2.28.2 4.17 1.58 4.59 3.32.39.22.62.62.58 1.04-.04.43-.34.78-.75.93-.66 1.5-2.48 2.49-4.53 2.49z" fill="#ffc828"/><path d="M15.11 55.424c-.15 0-.29-.08-.36-.22-.06-.11-.1-.23-.12-.35-.09-.58.28-1.15.91-1.43.44-1.53 2.02-2.74 4-3.06 2.12-.34 4.16.48 4.94 1.96.4.11.71.43.77.83s-.13.8-.48 1.03c-.03.17-.08.35-.14.52-.07.21-.31.32-.52.25s-.32-.31-.25-.52c.06-.18.11-.36.12-.55.01-.15.11-.28.25-.34.13-.05.22-.17.2-.27s-.13-.19-.28-.2-.28-.1-.34-.24c-.56-1.27-2.31-1.99-4.17-1.69-1.72.28-3.12 1.37-3.4 2.65-.03.14-.13.26-.27.3-.36.11-.61.38-.57.62l.03.1c.1.2.03.44-.17.55-.02.05-.09.06-.15.06z" fill="#ffc828"/><path d="M23.48 7.014c-.54 0-1.08.18-1.53.54-.5.41-.82.99-.88 1.63-.07.64.12 1.28.53 1.78s.99.82 1.63.88c.64.07 1.27-.12 1.78-.53 1.04-.84 1.19-2.37.35-3.41-.47-.58-1.17-.89-1.88-.89zm.01 5.65c-.11 0-.22-.01-.34-.02-.86-.09-1.63-.51-2.17-1.18s-.8-1.51-.71-2.37.51-1.63 1.18-2.18c1.38-1.12 3.42-.91 4.54.47s.91 3.42-.47 4.54c-.58.49-1.29.74-2.03.74zm2.76.24c-.44 0-.87.15-1.22.43-.4.33-.65.79-.71 1.31-.05.51.1 1.02.42 1.42.33.4.79.65 1.3.71.52.05 1.02-.1 1.42-.42.4-.33.65-.79.71-1.3a1.92 1.92 0 00-1.72-2.12c-.06-.03-.13-.03-.2-.03zm.01 4.68c-.1 0-.19-.01-.29-.01-.73-.08-1.39-.43-1.85-1s-.68-1.28-.6-2.01c.07-.73.43-1.39 1-1.85s1.28-.68 2.01-.6c.73.07 1.39.43 1.85 1s.68 1.28.6 2.01a2.7 2.7 0 01-1 1.85 2.7 2.7 0 01-1.72.61z" fill="#f04c24"/><path d="M28.03 13.664c-.11 0-.22-.04-.3-.13a.408.408 0 01.02-.57c.13-.12.26-.25.38-.38 1.44-1.55 2.22-3.29 2.22-4.88-1.12.75-2.05 1.18-3.43 1.36a.404.404 0 01-.1-.8c1.45-.18 2.32-.67 3.64-1.62.11-.08.26-.1.39-.05s.22.17.24.31c.42 2.73-1.31 5.07-2.37 6.23-.13.15-.27.29-.42.42-.08.07-.17.11-.27.11z" fill="#f04c24"/><path d="M30.609 6.854c-.12 0-.23-.05-.31-.15-.35-.43-.52-.97-.47-1.51.05-.55.3-1.04.72-1.38.17-.14.43-.11.57.06s.11.43-.06.57c-.25.2-.4.49-.43.82s.08.66.29.93c.14.17.11.43-.06.57-.07.06-.16.09-.25.09z" fill="#f04c24"/><path d="M31.27 7.204c.53.98 1.19 1.61 1.97 1.89.74.26 1.42.15 1.8.04-.16-.45-.57-1.26-1.43-1.73-.84-.46-1.8-.33-2.34-.2zm2.92 2.87c-.37 0-.79-.05-1.22-.21-1.1-.39-1.99-1.31-2.64-2.73-.04-.1-.05-.21-.01-.31s.12-.18.22-.23c.08-.03 1.88-.76 3.46.11s1.92 2.54 1.93 2.61c.03.18-.06.36-.22.44-.03.02-.65.32-1.52.32zm15.91 55.24c-.22 0-.44.04-.66.13-.44.17-.79.51-.98.95-.39.9.02 1.95.93 2.34.44.19.92.2 1.36.02.44-.17.79-.51.98-.95s.2-.92.02-1.36c-.17-.44-.51-.79-.95-.98-.22-.1-.46-.15-.7-.15zm-.01 4.37c-.34 0-.69-.07-1.03-.21a2.606 2.606 0 01-1.35-3.41c.57-1.31 2.1-1.91 3.41-1.35.64.28 1.12.78 1.38 1.42.25.64.24 1.35-.03 1.98a2.58 2.58 0 01-2.38 1.57z" fill="#f04c24"/><path d="M48.599 72.994c.71.31 1.54-.02 1.85-.73s-.02-1.54-.73-1.85-1.54.02-1.85.73.02 1.54.73 1.85zm.56.92c-.29 0-.59-.06-.88-.18a2.212 2.212 0 01.07-4.09c.55-.22 1.15-.21 1.7.03 1.12.49 1.64 1.79 1.15 2.91-.37.83-1.19 1.33-2.04 1.33z" fill="#f04c24"/><path d="M47.51 71.294c-.06 0-.12-.01-.18-.04-.14-.07-.27-.15-.41-.23-1.05-.64-2.85-2.05-3.11-4.21-.02-.14.04-.28.15-.37s.26-.11.39-.06c1.16.43 1.91.61 3 .44.22-.03.43.12.46.34s-.12.43-.34.46c-1.02.15-1.79.05-2.71-.24.36 1.1 1.27 2.14 2.58 2.95.12.07.23.14.35.2.2.1.28.34.17.54-.06.14-.2.22-.35.22z" fill="#f04c24"/><path d="M44.16 66.764c-.05 0-.11-.01-.16-.03-.2-.09-.3-.33-.21-.53.1-.22.1-.47.02-.69-.08-.21-.24-.38-.44-.47s-.3-.33-.21-.53c.09-.21.33-.3.53-.21.41.18.72.51.88.93s.14.87-.04 1.29c-.06.15-.21.24-.37.24z" fill="#f04c24"/><path d="M43.72 67.164c-.42.03-1.06.15-1.52.61-.48.47-.62 1.06-.67 1.43.3-.01.76-.09 1.19-.39.47-.35.81-.9 1-1.65zm-2.29 2.84c-.23 0-.38-.03-.39-.03a.393.393 0 01-.33-.36c0-.06-.1-1.41.92-2.42 1.03-1.01 2.57-.84 2.63-.83.11.01.21.07.27.16.07.09.09.2.08.31-.19 1.22-.68 2.11-1.43 2.64-.65.45-1.33.53-1.75.53z" fill="#f04c24"/><path d="M15.21 35.334c1.18.61 2.26.78 3.22.52.93-.25 1.52-.86 1.8-1.22-.44-.32-1.39-.86-2.59-.74-1.17.13-2.03.96-2.43 1.44zm2.32 1.45c-.98 0-2.03-.32-3.13-.97a.47.47 0 01-.19-.25.374.374 0 01.05-.31c.05-.08 1.25-1.93 3.29-2.15s3.44 1.11 3.5 1.17c.13.13.16.33.07.49-.03.06-.81 1.43-2.48 1.88-.36.09-.73.14-1.11.14z" fill="#f9a458"/><path d="M13.449 49.294c-.84 0-1.69-.24-2.35-.7a.403.403 0 01.46-.66c.99.7 2.36.67 3.2.29 1.65-.86 2.12-2.93 1.73-4.53-.36-1.06-.32-2.13-.28-3.16.04-1 .07-1.93-.24-2.88-.4-.88-1.24-1.63-2.1-1.89-.56-.17-1.06-.12-1.52.14-.39.37-.71.8-1.06 1.27-.3.4-.61.81-.96 1.18-.15.16-.41.16-.57.01a.408.408 0 01-.01-.57c.32-.33.6-.7.89-1.1.36-.48.73-.98 1.19-1.4.02-.02.04-.03.06-.05.65-.4 1.42-.49 2.21-.25 1.08.33 2.1 1.25 2.6 2.35.01.01.01.03.02.04.37 1.09.33 2.16.29 3.19-.04 1-.07 1.95.25 2.91.48 1.93-.11 4.41-2.15 5.48-.51.22-1.08.33-1.66.33z" fill="#f9a458"/><path d="M13.72 47.714c-.19 0-.39-.03-.59-.08a.4.4 0 01-.28-.5c.06-.21.29-.34.5-.28.39.11.76.05 1.07-.19.44-.33.75-.97.76-1.6a.4.4 0 01.4-.39h.01c.22 0 .4.19.4.41-.02.88-.44 1.75-1.09 2.23-.35.26-.75.4-1.18.4zm.769-11.95a.406.406 0 01-.34-.62c.59-.96.54-1.44-.22-2.17a.398.398 0 01-.01-.57c.15-.16.41-.17.57-.01 1.05 1.01 1.15 1.9.35 3.19-.08.11-.21.18-.35.18zm-9.339-1.62c-.1 0-.2-.04-.27-.11a.408.408 0 01-.02-.57c.07-.07 1.72-1.85 3.38-2.26.22-.06.43.08.49.3a.41.41 0 01-.3.49c-1.43.35-2.97 2.01-2.98 2.02-.08.09-.19.13-.3.13z" fill="#f9a458"/><path d="M14.85 36.044c-.15 0-.3-.09-.37-.23-.1-.2-.01-.44.19-.54.08-.04 1.91-.89 3.38-.84.22.01.4.19.39.42-.01.22-.19.41-.42.39-1.3-.04-2.99.75-3.01.76-.05.03-.1.04-.16.04zm-9.541-2.52c1.56.05 2.79-.31 3.66-1.07s1.16-1.72 1.27-2.22c-.59-.11-1.89-.23-3.1.52-1.2.74-1.67 2.08-1.83 2.77zm.27.81c-.25 0-.52-.01-.79-.03a.393.393 0 01-.28-.15.4.4 0 01-.09-.3c.01-.1.32-2.57 2.28-3.79 1.95-1.22 4.02-.56 4.11-.53.17.06.29.22.28.41 0 .07-.12 1.83-1.59 3.12-.98.84-2.29 1.27-3.92 1.27z" fill="#f9a458"/><path d="M5.05 34.454c-.15 0-.31.01-.46.04-.88.15-1.65.74-2.19 1.65-.44.74-.51 1.73-.54 2.68-.05 1.19-.09 2.22-.53 3.44-.5 1.4-.9 3.39.07 4.97.75 1.22 2.2 1.91 3.52 1.68.38-.07.77-.22 1.18-.39.27-.11.55-.22.84-.31.03-.01.07-.02.1-.02.3-.01.6 0 .89.01.44.01.86.03 1.25-.04 1.33-.23 2.45-1.37 2.74-2.77.37-1.81-.67-3.55-1.62-4.69-.83-1-1.22-1.96-1.66-3.06-.36-.88-.76-1.79-1.42-2.34-.68-.56-1.43-.85-2.17-.85zm-.67 15.31c-1.45 0-2.87-.79-3.67-2.11-.9-1.46-.94-3.42-.14-5.66.4-1.11.43-2.03.48-3.2.04-1.05.12-2.16.66-3.06.66-1.12 1.64-1.85 2.75-2.04s2.28.16 3.28.99c.8.67 1.26 1.68 1.65 2.66.44 1.09.79 1.94 1.54 2.85 1.52 1.83 2.14 3.69 1.79 5.37-.36 1.75-1.72 3.12-3.39 3.41-.46.08-.95.07-1.41.05-.26-.01-.52-.02-.78-.01-.24.08-.49.17-.73.27-.44.17-.89.35-1.35.43-.23.03-.45.05-.68.05z" fill="#f9a458"/><path d="M9.049 47.844c-.19 0-.36-.14-.4-.33-.04-.22.11-.43.33-.47.69-.12 1.19-.49 1.51-1.09.43-.81.42-1.95-.01-2.89-.09-.2 0-.44.2-.53s.44 0 .53.2c.53 1.16.53 2.58-.01 3.6-.43.82-1.15 1.34-2.08 1.51h-.07zm1.35-5.36c-.13 0-.26-.07-.34-.19-.19-.29-.4-.58-.64-.87-.14-.17-.12-.43.05-.57s.43-.12.57.05c.26.31.49.63.69.95.12.19.07.44-.12.56-.06.05-.14.07-.21.07zm-5.739-8.23h-.04a.403.403 0 01-.36-.44c.14-1.3-.16-1.79-1.34-2.17-.21-.07-.33-.3-.26-.51s.3-.33.51-.26c1.54.5 2.08 1.34 1.9 3.03-.03.19-.21.35-.41.35z" fill="#f9a458"/><path d="M49.7 7.814c-.15 0-.29-.08-.36-.22-.1-.2-.02-.44.17-.54.12-.06 3.03-1.54 5.01-.95.21.06.33.29.27.5s-.29.33-.5.27c-1.67-.5-4.38.88-4.41.9-.06.03-.12.04-.18.04zm4.03 5.59a.4.4 0 01-.18-.76c.08-.04 2.11-1.03 3.81-1.15.23-.01.42.15.43.38.02.22-.15.42-.38.43-1.54.11-3.49 1.06-3.51 1.07-.05.02-.11.03-.17.03zm-11.6-.85a.4.4 0 01-.4-.39c-.06-1.55.6-3.13 1.67-4.03.85-.71 1.89-.96 3-.72.22.05.36.26.31.48s-.26.36-.48.31c-.86-.19-1.66.01-2.31.55-.89.74-1.43 2.07-1.38 3.38.01.22-.16.41-.39.42h-.02z" fill="#f04c24"/><path d="M50.13 7.224c1.82.84 3.45 1.02 4.85.55 1.44-.49 2.26-1.55 2.59-2.06-.59-.4-2.09-1.24-3.93-.93-1.82.31-3.03 1.75-3.51 2.44zm3.25 1.61c-1.24 0-2.59-.36-4.02-1.09a.395.395 0 01-.2-.24.411.411 0 01.03-.31c.06-.11 1.55-2.74 4.31-3.2s4.77 1.24 4.86 1.31a.4.4 0 01.1.48c-.04.08-.99 2-3.22 2.76-.59.2-1.21.29-1.86.29z" fill="#f04c24"/><path d="M49.38 7.654c-.07 0-.13-.02-.19-.05a.4.4 0 01-.16-.55c.79-1.46.67-2.21-.53-3.23-.17-.14-.19-.4-.05-.57s.4-.19.57-.05c1.48 1.26 1.69 2.44.72 4.23-.07.15-.21.22-.36.22z" fill="#f04c24"/><path d="M47.73 20.234c-.05 0-.11-.01-.16-.03-.39-.17-.73-.32-1.06-.39-.3-.07-.7-.04-1.13-.01-.59.04-1.2.08-1.7-.12-.74-.3-1.27-1.01-1.75-1.72-.86-1.26-1.45-2.97-1.62-4.69-.19-1.94.17-3.71 1.03-4.97 1.21-1.79 3.37-2.69 5.38-2.25.56.12 1.1.37 1.61.6.3.13.6.27.9.38l.48.03c.22.01.4.19.39.42-.01.22-.19.4-.42.39l-.58-.03c-.03 0-.07-.01-.1-.02-.35-.12-.68-.28-1.01-.42-.5-.23-.98-.44-1.46-.55-1.65-.37-3.52.42-4.53 1.91-.75 1.11-1.07 2.68-.89 4.44.16 1.59.7 3.16 1.48 4.31.33.48.82 1.2 1.39 1.43.34.13.85.1 1.35.07.46-.03.94-.06 1.36.03.4.09.78.25 1.21.44.2.09.3.33.2.53-.07.13-.22.22-.37.22zm7.61-8.72c-.18 0-.34-.12-.39-.3-.26-.98-.83-1.85-1.61-2.46a.401.401 0 01-.07-.57.41.41 0 01.57-.07c.92.72 1.6 1.75 1.9 2.9.06.21-.07.44-.29.49-.05.01-.08.01-.11.01z" fill="#f04c24"/><path d="M48.56 17.434a.4.4 0 01-.4-.39c-.05-1.2.46-2.42 1.3-3.12.67-.56 1.48-.75 2.35-.56.22.05.36.26.31.48s-.26.36-.48.31c-.62-.14-1.18 0-1.66.39-.65.54-1.05 1.51-1.01 2.47a.41.41 0 01-.39.42h-.02zm5.71-4.76c1.3.58 2.47.7 3.47.36.98-.33 1.58-1.03 1.84-1.43-.48-.31-1.53-.85-2.81-.63-1.25.21-2.11 1.16-2.5 1.7zm2.29 1.35c-.95 0-1.98-.28-3.07-.83-.1-.05-.17-.14-.2-.24s-.02-.22.03-.31 1.19-2.11 3.32-2.46c2.13-.36 3.68.95 3.74 1.01a.4.4 0 01.1.48c-.03.06-.76 1.54-2.49 2.13-.45.15-.93.22-1.43.22z" fill="#f04c24"/><path d="M53.55 13.134c-.07 0-.13-.02-.19-.05a.4.4 0 01-.16-.55c.57-1.06.49-1.57-.38-2.31-.17-.14-.19-.4-.05-.57s.4-.19.57-.05c1.16.98 1.32 1.91.56 3.31-.07.14-.2.22-.35.22z" fill="#f04c24"/><path d="M53.64 23.024c-.51 0-1.01-.22-1.46-.42-.29-.13-.57-.25-.82-.31-.21-.05-.52-.03-.82-.01-.46.03-.93.06-1.33-.1-.58-.23-.99-.79-1.37-1.33-.66-.96-1.11-2.27-1.24-3.58-.15-1.49.14-2.84.79-3.81.94-1.38 2.61-2.08 4.16-1.74.43.1.84.28 1.24.46.23.1.44.2.66.28.11.01.23.02.34.02.22.01.4.19.39.42a.41.41 0 01-.42.39c-.15-.01-.29-.01-.44-.03-.03 0-.07-.01-.1-.02-.26-.1-.52-.21-.77-.32-.37-.17-.73-.33-1.08-.4-1.21-.27-2.57.31-3.31 1.4-.55.82-.78 1.98-.66 3.28.12 1.18.52 2.35 1.1 3.2.24.35.6.88 1 1.04.23.09.61.07.97.04.35-.02.72-.05 1.05.02s.66.22.98.36c.52.23 1.02.45 1.41.3.69-.26 1.32-.76 1.99-1.56 1.41-1.68 2.01-3.21 1.8-4.56-.13-.83-.59-1.61-1.25-2.12-.18-.14-.21-.39-.07-.57s.39-.21.57-.07c.82.64 1.38 1.59 1.55 2.63.25 1.58-.41 3.33-1.98 5.2-.76.91-1.5 1.48-2.32 1.79-.18.09-.37.12-.56.12z" fill="#f04c24"/><path d="M66.56 47.464c-.12.18-.22.3-.3.4-.15.18-.15.18-.1.4.04.14.09.22.16.25.11.04.37.01.74-.23.42-.27.83-.57 1.21-.89.02-.02.05-.03.07-.05 4.91-2.64 5.96-11.04 3.58-16.51-1.28-2.94-2.94-4.7-4.81-5.09-1.4-.29-2.88.2-4.16 1.4-.4.38-1.2.43-1.78.32-.55-.1-.94-.35-1.1-.69-.03-.06-.06-.13-.08-.2-.02-.05-.04-.11-.05-.13-.03-.04-.1-.05-.13-.05a.43.43 0 00-.3.09c-.14.14-.14.54-.14.81v.1c-.01.47.12.85.34 1.04.16.14.38.19.66.14.19-.03.42-.11.66-.19.62-.21 1.39-.46 2.03-.07 2.43 1.48 4.03 3.86 4.76 7.08 1.13 5-.2 10.43-1.26 12.07zm-.15 1.87c-.14 0-.27-.02-.4-.07-.22-.09-.51-.3-.64-.8-.15-.57.01-.82.26-1.12.07-.09.15-.18.24-.32.97-1.49 2.22-6.73 1.15-11.45-.68-3-2.16-5.21-4.39-6.57-.33-.2-.85-.02-1.36.15-.28.09-.53.18-.79.22-.65.1-1.08-.12-1.32-.33-.41-.35-.63-.94-.62-1.66v-.1c0-.42 0-1 .38-1.37.22-.23.58-.35.93-.33.3.02.56.15.72.38.09.12.13.25.17.35.01.04.02.08.04.11.04.08.22.19.52.25.49.09.96-.01 1.08-.12 1.48-1.38 3.21-1.94 4.87-1.6 1.49.31 3.63 1.53 5.38 5.56 2.21 5.08 1.78 14.42-3.9 17.52-.4.34-.83.65-1.27.93-.36.24-.72.37-1.05.37z" fill="#fed538"/><path d="M57.99 50.104c-.38 0-.68-.1-.9-.3-.18-.16-.38-.46-.32-.98.06-.59.29-.76.64-.96.1-.06.21-.12.34-.21 1.43-1.06 4.42-5.54 5.06-10.34.4-3.05-.21-5.64-1.83-7.69-.24-.3-.79-.32-1.32-.34-.29-.01-.56-.02-.81-.07-.65-.13-.97-.49-1.12-.77-.26-.47-.26-1.1 0-1.77l.03-.09c.15-.39.35-.93.83-1.15.43-.2 1.03-.07 1.34.28.15.17.13.42-.04.57s-.42.13-.57-.04c-.08-.1-.3-.12-.4-.08-.18.08-.32.46-.42.71l-.04.09c-.17.44-.18.84-.04 1.1.1.19.29.3.57.36.19.04.43.05.68.06.65.02 1.46.05 1.93.64 1.76 2.23 2.43 5.02 2 8.29-.68 5.09-3.81 9.72-5.38 10.88-.17.13-.31.2-.42.27-.21.12-.21.12-.23.34-.02.14 0 .24.06.29.08.08.34.13.78.04.49-.11.98-.25 1.45-.42.03-.01.05-.02.08-.02 2.86-.4 5.51-2.67 7.29-6.23.1-.2.34-.28.54-.18s.28.34.18.54c-1.89 3.79-4.75 6.21-7.86 6.66-.49.18-1 .32-1.51.43-.21.07-.41.09-.59.09zm11.89-19.55a.42.42 0 01-.35-.19c-.56-.92-1.78-2.49-3.62-2.62a.402.402 0 01.06-.8c1.63.11 3.14 1.18 4.25 3.01.12.19.06.44-.13.56-.07.02-.14.04-.21.04zm.5 11.61c-.05 0-.11-.01-.16-.03a.409.409 0 01-.22-.53c1.44-3.43 1.46-7.16.07-10.22-.09-.2 0-.44.2-.53s.44 0 .53.2c1.49 3.26 1.47 7.22-.06 10.86-.05.16-.2.25-.36.25z" fill="#fed538"/><g fill="#ab3192"><path d="M63.2 15.694h-.03a.402.402 0 01-.37-.43c.01-.1.19-2.56 1.36-3.61.16-.15.42-.14.57.03s.14.42-.03.57c-.77.7-1.05 2.45-1.1 3.07-.01.21-.19.37-.4.37z"/><path d="M64.9 10.544c-.47.23-1.36.8-1.78 1.86-.42 1.04-.11 2.14.12 2.7 1.04-.73 1.68-1.57 1.89-2.5.19-.89-.06-1.66-.23-2.06zm-1.84 5.57c-.03 0-.07 0-.1-.01-.11-.03-.2-.1-.25-.19-.05-.08-1.09-1.95-.35-3.8.74-1.84 2.52-2.44 2.59-2.46.17-.06.36.01.46.16.03.05.85 1.34.48 2.98-.28 1.25-1.17 2.35-2.63 3.26-.05.04-.12.06-.2.06z"/><path d="M67.58 23.624c-1.42 0-3-.64-4.28-1.87-1.52-1.46-2.31-3.35-1.97-4.7.13-.54.51-1.23 1.49-1.59.06-.16.23-.26.4-.25.22.02.39.21.37.43 0 .04-.01.08-.01.13 0 .18-.12.33-.29.38-.65.18-1.04.55-1.18 1.09-.27 1.07.45 2.68 1.74 3.92 1.9 1.83 4.52 2.19 5.84.82 1.32-1.38.85-3.98-1.05-5.81-1.07-1.03-2.65-1.68-3.82-1.59a.39.39 0 01-.43-.37c-.02-.22.15-.42.37-.43 1.4-.11 3.22.64 4.44 1.81 2.22 2.13 2.71 5.25 1.08 6.95-.69.73-1.65 1.08-2.7 1.08z"/><path d="M68.72 19.364c-.14 0-.28-.08-.35-.21-.93-1.71-2.97-3.38-5.23-3.01a.392.392 0 01-.46-.33c-.04-.22.11-.43.33-.46 2.64-.44 5 1.47 6.07 3.42.11.2.03.44-.16.55-.07.03-.14.04-.2.04z"/><path d="M70.68 21.524c-.19 0-.37-.14-.4-.34-.03-.22.11-.43.33-.46.21-.03.42-.1.61-.19.73-.34 1.24-1.06 1.44-2.02.2-1.01.04-2.14-.46-3.21-.67-1.43-2.15-2.66-3.2-2.66h-.04c-.41.01-.69.23-.86.66-.07.17-.22.27-.41.25-.74-.07-1.24.22-1.5.86-.08.21-.32.31-.53.22a.397.397 0 01-.22-.53c.37-.89 1.08-1.38 2.04-1.38.31-.56.82-.88 1.46-.9H69c1.36 0 3.12 1.39 3.93 3.12.57 1.22.76 2.54.52 3.71-.25 1.22-.92 2.14-1.89 2.59-.26.12-.53.21-.82.25-.02.03-.04.03-.06.03zm-7.65-5.35c-.12 0-.24-.05-.32-.15-.02-.02-.45-.54-1.41-.44-.22.02-.42-.14-.44-.36s.14-.42.36-.44c1.41-.14 2.1.71 2.13.75.14.17.11.43-.07.57a.43.43 0 01-.25.07z"/><path d="M67.709 13.524c-.08 0-.16-.02-.24-.08-.04-.03-.91-.68-.83-2.09.01-.22.2-.39.43-.38.22.01.39.2.38.43-.06.96.49 1.39.5 1.39a.4.4 0 01.09.56c-.08.11-.21.17-.33.17zM35.85 59.234a.41.41 0 01-.38-.26c-.08-.21.03-.44.24-.52.09-.03 2.14-.79 3.43-.23.2.09.3.33.21.53s-.33.3-.53.21c-.82-.36-2.32.05-2.83.24-.05.02-.1.03-.14.03z"/><path d="M36.08 58.774c.94.54 1.81.73 2.6.56.75-.16 1.25-.59 1.52-.88-.37-.29-1.12-.75-2.07-.7-.94.04-1.67.64-2.05 1.02zm2.03 1.43c-.91 0-1.87-.33-2.87-1a.415.415 0 01-.17-.26c-.02-.11.01-.22.07-.31.05-.07 1.18-1.6 2.95-1.69 1.77-.08 2.91 1.14 2.96 1.19.12.13.14.34.04.49-.03.05-.78 1.19-2.24 1.5-.24.06-.49.08-.74.08z"/><path d="M33.6 67.374c-.34 0-.68-.06-1-.17-.98-.34-1.72-1.17-2.08-2.32-.35-1.11-.3-2.4.13-3.63.62-1.76 1.86-3.1 3.08-3.33.49-.09 1.19-.05 1.85.61.16 0 .32.1.38.27.08.21-.03.44-.24.52-.03.01-.07.03-.1.04-.16.07-.35.03-.47-.11-.37-.44-.79-.61-1.26-.53-.94.17-1.95 1.32-2.47 2.8-.38 1.07-.42 2.18-.12 3.12.28.9.84 1.54 1.57 1.8s1.57.11 2.35-.42c.82-.55 1.48-1.45 1.85-2.52.42-1.2.37-2.72-.12-3.61-.11-.2-.04-.44.16-.55s.44-.04.55.16c.6 1.09.67 2.84.17 4.26-.43 1.23-1.2 2.27-2.16 2.92-.67.46-1.38.69-2.07.69z"/><path d="M34.92 64.994a.4.4 0 01-.32-.64c1.02-1.36 1.61-3.58.5-5.23-.12-.19-.08-.44.11-.56s.44-.07.56.11c1.33 1.98.66 4.59-.52 6.17-.08.09-.2.15-.33.15z"/><path d="M36.02 68.424c-.72 0-1.39-.22-1.93-.67-.2-.17-.37-.36-.51-.57a.41.41 0 01.11-.56.41.41 0 01.56.11 2 2 0 00.36.41c1.13.96 3.14.46 4.48-1.12 1-1.17 1.29-2.79.94-3.51-.15-.31-.4-.45-.8-.43-.19.01-.34-.1-.4-.27-.21-.6-.59-.88-1.19-.86-.23.02-.41-.16-.42-.39-.01-.22.16-.41.39-.42.85-.04 1.52.38 1.88 1.14.57.05 1.02.35 1.27.87.54 1.1.07 3.07-1.05 4.39-1.04 1.22-2.43 1.88-3.69 1.88zm-.62-9.15a.392.392 0 01-.36-.58c.01-.02.25-.54-.16-1.24a.398.398 0 01.15-.55c.19-.11.44-.05.55.15.64 1.1.2 1.98.18 2.02a.42.42 0 01-.36.2z"/><path d="M39.229 62.044c-.03 0-.06 0-.08-.01a.406.406 0 01-.31-.47c.01-.04.22-1.01 1.4-1.47.21-.08.44.02.52.23s-.02.44-.23.52c-.76.29-.9.85-.9.88-.04.2-.21.32-.4.32z"/></g><path d="M6.15 58.404c-.15 0-.29-.08-.36-.22-1.03-1.99-1.58-4.26-.5-4.88 1.07-.61 2.74 1.01 3.92 2.9a.406.406 0 11-.69.43c-1.28-2.05-2.52-2.8-2.83-2.62s-.3 1.64.82 3.8c.1.2.03.44-.17.54a.34.34 0 01-.19.05z" fill="#89c651"/><path d="M7.09 61.854c-.11 0-.21-.04-.29-.13-.3-.32-.69-.61-1.13-.84-.77-.4-1.58-.58-2.17-.47a.409.409 0 01-.41-.17c-.82-1.18-1-2.19-.5-2.75.39-.44 1.19-.61 2.13-.44.97.17 1.95.66 2.76 1.37.52.46.98 1.02 1.33 1.63.11.19.04.44-.15.55s-.44.05-.55-.15c-.31-.53-.71-1.03-1.16-1.43-.95-.81-1.89-1.08-2.37-1.16-.73-.13-1.23 0-1.38.18-.17.19-.07.78.42 1.55.73-.06 1.6.14 2.43.58.52.27.98.62 1.34 1 .15.16.15.42-.02.57a.43.43 0 01-.28.11zm2.59-1.89c-.14 0-.28-.07-.35-.2-.35-.61-.61-1.29-.75-1.97-.22-1.06-.15-2.15.19-3.08.33-.9.87-1.51 1.44-1.62.74-.15 1.52.51 2.14 1.8.07.15.05.32-.06.44-.39.46-.65 1.25-.68 2.12-.02.49.04.98.16 1.4.06.21-.06.44-.27.5s-.44-.06-.5-.27c-.15-.5-.22-1.08-.19-1.66.04-.94.29-1.79.71-2.39-.43-.82-.89-1.19-1.14-1.14-.23.05-.6.41-.85 1.11-.17.46-.41 1.41-.16 2.64.12.59.35 1.19.66 1.72.11.19.05.44-.15.55-.06.04-.13.05-.2.05z" fill="#89c651"/><path d="M7.92 65.694c-.14 0-.28-.07-.35-.2a.398.398 0 01.15-.55l1.35-.78c.19-.11.44-.05.55.15.11.19.04.44-.15.55l-1.35.78c-.06.03-.13.05-.2.05zm2.65-4.26c-.14 0-.28-.07-.35-.2a.398.398 0 01.15-.55l2.44-1.41c.19-.11.44-.05.55.15.11.19.04.44-.15.55l-2.44 1.41c-.06.03-.13.05-.2.05zm-.54 3.04c-.14 0-.28-.07-.35-.2a.398.398 0 01.15-.55l.48-.28c.19-.11.44-.05.55.15.11.19.05.44-.15.55l-.48.28c-.06.03-.13.05-.2.05zm7.57 11.49c-.14 0-.28-.07-.35-.2a.398.398 0 01.15-.55l.61-.35c.19-.11.44-.05.55.15.11.19.04.44-.15.55l-.61.35c-.06.03-.13.05-.2.05zm-3.171-2.44c-.14 0-.28-.07-.35-.2a.398.398 0 01.15-.55l.9-.52c.19-.11.44-.04.55.15s.05.44-.15.55l-.9.52c-.06.04-.13.05-.2.05zm-3.399-4.9c-.14 0-.28-.07-.35-.2a.398.398 0 01.15-.55l1.35-.78c.19-.11.44-.05.55.15.11.19.04.44-.15.55l-1.35.78c-.07.04-.14.05-.2.05z" fill="#f79550"/><path d="M13.07 67.444c-.14 0-.28-.07-.35-.2a.398.398 0 01.15-.55l.21-.12c.19-.11.44-.04.55.15s.04.44-.15.55l-.21.12c-.07.04-.13.05-.2.05zm.26-2.95c-.14 0-.28-.07-.35-.2a.398.398 0 01.15-.55l1.5-.87c.19-.11.44-.04.55.15s.05.44-.15.55l-1.5.87c-.07.03-.14.05-.2.05zm1.74 5.49c-.14 0-.28-.07-.35-.2a.398.398 0 01.15-.55l.48-.28c.19-.11.44-.05.55.15.11.19.04.44-.15.55l-.48.28c-.06.03-.13.05-.2.05z" fill="#f79550"/><path d="M16.23 69.314c-.14 0-.28-.07-.35-.2a.398.398 0 01.15-.55l.78-.45c.19-.11.44-.05.55.15.11.19.04.44-.15.55l-.78.45c-.07.03-.14.05-.2.05z" fill="#f79550"/><path d="M23.86 65.374a.4.4 0 01-.4-.34c-.11-.73-.62-4.36.71-4.6 1.32-.24 2.17 3.29 2.33 4.01.05.22-.09.43-.31.48s-.43-.09-.48-.31c-.47-2.11-1.12-3.21-1.39-3.37-.2.25-.4 1.51-.07 3.66a.4.4 0 01-.34.46c-.01.01-.03.01-.05.01z" fill="#89c651"/><path d="M23.85 68.824a.42.42 0 01-.38-.26c-.15-.4-.38-.81-.65-1.18-.54-.74-1.08-1.1-1.41-1.18a.423.423 0 01-.29-.29c-.25-.96-.41-2.2.23-2.65.16-.11.45-.23.89-.11.76.2 1.86 1.11 2.59 2.69.28.59.49 1.25.62 1.92.04.22-.1.43-.32.47s-.43-.1-.47-.32c-.12-.6-.31-1.2-.55-1.73-.59-1.28-1.49-2.1-2.07-2.26-.14-.04-.21-.02-.22-.01-.06.05-.22.47.04 1.57.54.22 1.12.72 1.62 1.41.31.43.57.9.75 1.36.08.21-.02.44-.23.52-.05.04-.1.05-.15.05zm3.549-.69c-.22 0-.4-.18-.4-.4-.01-.5.06-1.03.19-1.54.21-.83.56-1.5.98-1.91-.18-1.12-.48-1.45-.55-1.47-.01 0-.08.01-.2.09-.48.36-1 1.46-1.08 2.86-.03.58.01 1.21.13 1.81.04.22-.1.43-.32.47s-.43-.1-.47-.32c-.13-.66-.18-1.36-.14-2.01.09-1.74.77-2.99 1.4-3.47.37-.27.67-.28.87-.23.76.18 1.07 1.39 1.2 2.37a.4.4 0 01-.16.38c-.27.2-.64.73-.87 1.62-.11.44-.17.9-.16 1.33a.43.43 0 01-.42.42z" fill="#89c651"/><path d="M26.35 69.354c-.19 0-.36-.13-.4-.33a.4.4 0 01.32-.47l2.02-.39c.22-.05.43.1.47.32s-.1.43-.32.47l-2.02.39c-.02.01-.05.01-.07.01zm-1.1 1.97c-.19 0-.36-.13-.4-.33a.4.4 0 01.32-.47l.4-.08c.22-.04.43.1.47.32s-.1.43-.32.47l-.4.08c-.02.01-.04.01-.07.01zm2.48 9.72c-.19 0-.36-.13-.4-.33a.4.4 0 01.32-.47l.51-.1c.22-.04.43.1.47.32s-.1.43-.32.47l-.51.1c-.02 0-.05.01-.07.01zm-1.6-2.44c-.19 0-.36-.13-.4-.33a.4.4 0 01.32-.47l.74-.14c.22-.05.43.1.47.32s-.1.43-.32.47l-.74.14c-.02.01-.05.01-.07.01zm-1.63-4.11c-.19 0-.36-.13-.4-.33a.4.4 0 01.32-.47l.62-.12c.22-.05.43.1.47.32s-.1.43-.32.47l-.63.12c-.01.01-.04.01-.06.01zm3.01-2.37c-.19 0-.36-.13-.4-.33a.4.4 0 01.32-.47l1.24-.24c.22-.04.43.1.47.32s-.1.43-.32.47l-1.24.24c-.01 0-.04.01-.07.01zm.849 4.01c-.19 0-.36-.13-.4-.33a.4.4 0 01.32-.47l.64-.12c.22-.05.43.1.47.32s-.1.43-.32.47l-.65.12c0 .01-.03.01-.06.01z" fill="#f79550"/><path d="M76.319 29.634c-.18 0-.34-.12-.39-.3-.19-.75-1.07-4.5.28-4.88 1.35-.37 2.58 3.24 2.81 3.97.07.21-.05.44-.26.51s-.44-.05-.51-.26c-.72-2.24-1.53-3.32-1.82-3.43-.19.24-.31 1.6.28 3.89.05.22-.08.44-.29.49-.04.01-.07.01-.1.01z" fill="#89c651"/><path d="M76.64 33.254c-.15 0-.29-.08-.36-.22-.2-.41-.48-.82-.8-1.18-.65-.73-1.26-1.05-1.61-1.11a.392.392 0 01-.32-.26c-.35-.98-.64-2.26-.02-2.78.16-.13.44-.28.91-.2.81.14 2.05.99 2.97 2.57.35.59.63 1.27.83 1.95.06.21-.06.44-.28.5s-.44-.06-.5-.28a8.19 8.19 0 00-.75-1.77c-.79-1.35-1.8-2.08-2.41-2.18-.15-.02-.23 0-.25.02-.06.05-.2.51.19 1.69.59.17 1.25.64 1.84 1.32.37.42.68.88.92 1.35a.4.4 0 01-.36.58zm2.26-1.02c-.17 0-.34-.11-.39-.29-.2-.68-.32-1.41-.35-2.09-.07-1.83.51-3.21 1.12-3.76.35-.32.67-.35.87-.32.8.11 1.24 1.34 1.48 2.36.03.14-.02.29-.13.39-.27.24-.61.83-.76 1.8-.07.48-.09.97-.04 1.42.02.22-.14.42-.36.44s-.42-.14-.44-.36c-.06-.52-.04-1.09.05-1.64.14-.89.44-1.64.85-2.1-.3-1.2-.67-1.51-.75-1.52-.03 0-.11.02-.22.12-.46.41-.92 1.57-.86 3.13.02.62.13 1.28.31 1.9.06.21-.06.44-.27.5-.04.01-.07.02-.11.02z" fill="#89c651"/><path d="M76.5 34.774l1.97 4.68c.01.01.01.03.02.04.1.36.67 1.49 1.28 2.68.26.52.54 1.07.81 1.61.03.06.08.18.15.34 1.45 3.3 2.11 3.73 2.32 3.76.01 0 .04.01.09-.06.24-.28.13-1.34.09-1.74l-.01-.14c-.05-.55-.12-1.11-.2-1.66-.05-.41-.11-.82-.15-1.23-.07-.62-.13-1.27-.19-1.87-.13-1.27-.25-2.47-.35-2.82 0-.02-.01-.03-.01-.05l-.85-5.01c-.13-.42-.41-.77-.8-.98-.4-.22-.85-.27-1.28-.14l-1.73.51c-.9.27-1.41 1.19-1.16 2.08zm6.56 13.92c-.04 0-.08 0-.13-.01-.82-.12-1.7-1.39-2.95-4.24a2.29 2.29 0 00-.14-.3c-.26-.54-.54-1.08-.8-1.6-.73-1.45-1.2-2.37-1.33-2.8l-1.97-4.68c-.01-.01-.01-.03-.02-.04-.38-1.32.37-2.7 1.69-3.09l1.73-.51c.64-.19 1.31-.11 1.89.21s1.01.85 1.19 1.48c0 .02.01.03.01.05l.85 5.01c.11.41.22 1.39.37 2.94.06.6.12 1.24.19 1.86.04.4.1.81.15 1.21.07.55.15 1.12.2 1.69l.01.13c.09.91.14 1.84-.28 2.34a.79.79 0 01-.66.35z" fill="#f79550"/><path d="M79.32 33.574c-.17 0-.34-.11-.39-.29-.06-.21.06-.44.28-.5l2.08-.61c.22-.06.44.06.5.27s-.06.44-.28.5l-2.08.61a.36.36 0 01-.11.02zm-.96 2.17a.405.405 0 01-.12-.79l.41-.12c.21-.06.44.06.5.27s-.06.44-.27.5l-.41.12c-.03.02-.07.02-.11.02zm1.63 7.58a.405.405 0 01-.12-.79l.77-.22c.21-.06.44.06.5.27s-.06.44-.27.5l-.77.22a.36.36 0 01-.11.02zm-2.111-4.17c-.17 0-.34-.11-.39-.29-.06-.21.06-.44.28-.5l.65-.19c.22-.06.44.06.5.27s-.06.44-.27.5l-.65.19c-.05.02-.09.02-.12.02zm2.941-2.79c-.17 0-.34-.11-.39-.29-.06-.21.06-.44.28-.5l1.28-.37c.21-.06.44.06.5.27s-.06.44-.27.5l-1.28.37c-.05.01-.09.02-.12.02z" fill="#f79550"/><g fill="#60bc56"><path d="M50.52 34.814a.41.41 0 01-.38-.26c-.08-.21.03-.44.24-.52.16-.06 4.04-1.5 6.63-.61.21.07.32.3.25.51s-.3.33-.51.25c-2.31-.79-6.05.59-6.08.61-.06.01-.11.02-.15.02z"/><path d="M50.75 34.574c2.17 1.48 4.23 2.06 6.14 1.74 2.01-.34 3.31-1.63 3.79-2.18-.61-.59-2.38-2.05-4.89-2.05-2.47.03-4.36 1.76-5.04 2.49zm5.1 2.63c-1.89 0-3.89-.75-5.94-2.24a.366.366 0 01-.16-.27c-.02-.11.01-.22.08-.31.1-.13 2.45-3.08 5.95-3.11h.06c3.46 0 5.59 2.46 5.68 2.57.12.14.13.34.02.49-.06.09-1.6 2.27-4.51 2.77-.39.07-.78.1-1.18.1zm-12.51 3.54c-.04 0-.08-.01-.12-.02-.07-.02-.14-.05-.21-.07a3.303 3.303 0 01-1.86-4.27c.32-.82.94-1.46 1.75-1.81s1.7-.37 2.52-.04c.63.25 1.16.68 1.54 1.24.12.19.07.44-.11.56a.41.41 0 01-.56-.11 2.483 2.483 0 00-4.38.46 2.49 2.49 0 001.4 3.22c.05.02.1.04.16.06.21.07.33.29.26.51-.06.16-.21.27-.39.27zm6.01 1.98c-.17 0-.35-.01-.52-.03-.22-.03-.38-.23-.35-.45s.23-.37.45-.35c.26.03.53.04.8.01a.404.404 0 01.1.8c-.16.01-.32.02-.48.02z"/><path d="M53.079 39.384h-.05a.407.407 0 01-.36-.45c.17-1.5-.7-2.93-2.1-3.48-1.71-.67-3.66.17-4.34 1.89-.19.48-.26.98-.22 1.49.02.22-.15.42-.37.43a.411.411 0 01-.44-.37c-.05-.63.04-1.26.28-1.85a4.162 4.162 0 015.39-2.34c1.74.69 2.81 2.46 2.61 4.32-.02.21-.19.36-.4.36z"/><path d="M53.319 46.474c-.31 0-.62-.04-.92-.11-.22-.05-.35-.27-.3-.49s.27-.35.49-.3c1.51.37 3.09-.45 3.66-1.9a3.146 3.146 0 10-6.07-1.11c0 .22-.17.41-.4.41h-.01c-.22 0-.4-.18-.4-.4-.01-.51.08-1.02.28-1.51a3.97 3.97 0 012.1-2.18c.97-.42 2.04-.44 3.02-.05s1.75 1.13 2.18 2.1c.42.97.44 2.04.05 3.02a3.952 3.952 0 01-3.68 2.52z"/><path d="M50.769 49.204c-.14 0-.28-.07-.35-.21a.4.4 0 01.16-.55 2.958 2.958 0 00-.35-5.33c-.43-.17-.88-.24-1.34-.19-.21.02-.42-.15-.44-.37s.14-.42.37-.44a3.767 3.767 0 013.83 5.13 3.8 3.8 0 01-1.67 1.91c-.08.03-.15.05-.21.05zm-3.56-.18a.39.39 0 01-.23-.07 3.796 3.796 0 01-1.43-4.26c.07-.21.3-.33.51-.26s.33.3.26.51c-.4 1.23.06 2.6 1.12 3.34.18.13.23.38.1.56-.07.12-.2.18-.33.18z"/><path d="M42.42 51.214c-.05 0-.11-.01-.16-.03-1.44-.6-2.14-2.27-1.57-3.72a2.897 2.897 0 013.75-1.63c.72.28 1.28.83 1.59 1.54a2.87 2.87 0 01-.33 2.87c-.13.18-.39.22-.56.08a.402.402 0 01-.08-.57c.11-.15.2-.31.26-.48a2.085 2.085 0 00-3.88-1.53c-.41 1.04.1 2.25 1.13 2.68.21.09.3.32.22.53-.06.17-.21.26-.37.26z"/><path d="M42.1 46.794c-.15 0-.29-.08-.36-.22-.21-.42-.32-.89-.31-1.36.01-.22.2-.41.41-.39.22 0 .4.19.39.41-.01.34.07.67.22.98a.4.4 0 01-.35.58zm3.35 3.67a.4.4 0 01-.28-.69c.39-.37.87-.63 1.39-.75.21-.05.43.09.48.31s-.09.43-.31.48c-.38.08-.73.27-1 .54a.43.43 0 01-.28.11zm1.729 4.26c-.35 0-.71-.07-1.06-.2a2.9 2.9 0 01-1.34-1.08c-.12-.19-.08-.44.11-.56.19-.13.44-.08.56.11.24.35.57.62.96.77 1.03.41 2.19-.06 2.65-1.07.09-.2.33-.29.53-.2s.29.33.2.53a2.84 2.84 0 01-2.61 1.7z"/><path d="M44.21 50.004c-.21 0-.41.04-.61.13-.37.16-.66.46-.81.84s-.14.79.02 1.16.46.66.84.81a1.52 1.52 0 001.11-2.83 1.54 1.54 0 00-.55-.11zm-.01 3.85a2.323 2.323 0 01-2.13-1.4c-.25-.57-.26-1.2-.03-1.78s.67-1.03 1.24-1.28 1.2-.26 1.78-.03c1.19.47 1.78 1.83 1.31 3.02-.36.91-1.24 1.47-2.17 1.47z"/><path d="M48.9 48.364c-.28 0-.56.06-.83.17a2.087 2.087 0 00.06 3.85c.52.2 1.08.19 1.59-.03s.9-.63 1.11-1.14c.2-.52.19-1.08-.03-1.59s-.63-.9-1.14-1.11c-.24-.1-.5-.15-.76-.15zm.01 4.97c-.36 0-.72-.07-1.06-.2-.72-.28-1.28-.83-1.59-1.54s-.32-1.49-.04-2.21.83-1.28 1.54-1.59 1.49-.32 2.21-.04 1.28.83 1.59 1.54.32 1.49.04 2.21-.83 1.28-1.54 1.59c-.37.16-.76.24-1.15.24zm-6.511 3.02a2.89 2.89 0 01-2.69-3.94 2.89 2.89 0 012.65-1.83h.01c.22 0 .4.18.4.4s-.17.41-.4.41c-.85.01-1.6.53-1.91 1.32-.42 1.07.11 2.28 1.17 2.7.52.2 1.08.19 1.59-.03s.9-.63 1.11-1.14c.11-.28.16-.58.14-.88-.01-.22.16-.41.38-.42.21-.01.41.16.43.38.02.42-.04.83-.2 1.22a2.86 2.86 0 01-1.54 1.59c-.36.14-.75.22-1.14.22zM53 48.734c-.29 0-.58-.06-.86-.16-.21-.08-.41-.2-.59-.34s-.21-.39-.07-.57a.41.41 0 01.57-.07c.12.09.25.17.38.22.79.31 1.69-.08 2-.87.13-.35.14-.73.02-1.08-.07-.21.03-.44.25-.52.21-.07.44.04.52.25.19.53.18 1.12-.03 1.64-.23.58-.67 1.04-1.25 1.29-.31.14-.63.21-.94.21zm-10.761-3.07c-.42 0-.84-.08-1.25-.24-.84-.33-1.51-.97-1.87-1.8s-.38-1.75-.04-2.6a3.397 3.397 0 012.77-2.13.404.404 0 01.1.8c-.95.11-1.76.73-2.11 1.62-.25.64-.24 1.34.03 1.98a2.584 2.584 0 004.2.79c.16-.16.41-.16.57 0s.16.41 0 .57c-.64.66-1.51 1.01-2.4 1.01z"/><path d="M45.93 39.254c-.35 0-.7.07-1.03.21-.63.28-1.12.78-1.37 1.42s-.24 1.34.03 1.98c.28.63.78 1.12 1.42 1.37s1.34.24 1.98-.03c.63-.28 1.12-.78 1.37-1.42s.24-1.34-.03-1.98a2.577 2.577 0 00-2.37-1.55zm0 5.97a3.394 3.394 0 01-3.16-4.64c.69-1.74 2.66-2.6 4.4-1.91.84.33 1.51.97 1.87 1.8s.38 1.75.04 2.6a3.37 3.37 0 01-3.15 2.15zm3.96-10.1c-.09 0-.17-.03-.25-.09a.401.401 0 01-.07-.57c1.43-1.83 1.83-4.41 1.09-7.08a.404.404 0 11.78-.22c.81 2.92.37 5.76-1.23 7.79-.08.12-.2.17-.32.17z"/><path d="M49.94 34.904c-.03 0-.07 0-.1-.01a.4.4 0 01-.29-.49l.04-.16c.95-3.91-2.14-7.23-2.17-7.26a.399.399 0 01.02-.57c.16-.15.42-.15.57.02.14.15 3.42 3.67 2.37 8l-.04.18a.43.43 0 01-.4.29z"/><path d="M51.05 27.694c-.1 0-.19-.03-.27-.1-1.3-1.15-2.51-.86-2.72-.7-.1.18-.31.26-.5.18a.402.402 0 01-.23-.52c.13-.34.57-.49.81-.55.38-.09 1.73-.29 3.17.98.17.15.18.4.04.57-.08.09-.19.14-.3.14z"/></g><path d="M59.939 81.484c-2.03 0-4.12-.89-5.45-2.51a6.57 6.57 0 01-1.46-4.76c.13-1.44.7-2.6 1.26-3.66.55-1.04.96-2.54 1.09-4.01.05-.54-.02-1.05-.1-1.58-.06-.44-.13-.9-.12-1.38.02-1.24.25-2.36.7-3.33.06-.13 1.36-2.89 3.06-3.22-.12-.84-.5-1.65-1.07-2.25-.15-.16-.15-.42.01-.57s.42-.15.57.01c.8.83 1.28 1.99 1.33 3.17a.398.398 0 01-.43.42c-1.01-.08-2.21 1.66-2.73 2.78-.4.87-.61 1.87-.62 3-.01.42.05.83.11 1.26.08.56.16 1.14.1 1.77-.14 1.57-.58 3.19-1.18 4.32-.64 1.21-1.06 2.19-1.17 3.36-.14 1.49.33 3.01 1.28 4.17 1.81 2.2 5.19 2.88 7.54 1.52.03-.02.07-.03.11-.04 2.8-.64 4.45-5.92 3.66-11.76-.75-5.6-3.43-10.05-6.23-10.37a.407.407 0 01-.36-.45c.03-.22.21-.39.45-.36 3.21.37 6.12 5.02 6.93 11.06.85 6.31-1 11.84-4.22 12.64-.92.52-1.99.77-3.06.77z" fill="#ab3192"/><path d="M61.94 61.864c-.15 0-.3-.09-.37-.24-.11-.25-.24-.53-.37-.81l-.11-.25a5.02 5.02 0 01-2.77-.06.417.417 0 01-.27-.51c.07-.21.29-.33.5-.27a4.293 4.293 0 002.63-.04c.2-.07.41.03.49.22l.26.57c.07.15.13.3.2.44a6.34 6.34 0 001.57-1.07.4.4 0 01.57.03.4.4 0 01-.03.57 7.02 7.02 0 01-2.18 1.38c-.03.03-.08.04-.12.04zm-4.38.56c-.06 0-.12-.01-.18-.04-.62-.3-1.18-.72-1.68-1.26-.15-.16-.14-.42.02-.57s.42-.14.57.02c.43.46.92.82 1.45 1.08.2.1.28.34.19.54-.07.14-.22.23-.37.23zm2.35 17.08c-1.26 0-2.35-.74-3.07-1.38-.37-.34-.83-.8-1.06-1.42-.08-.21.03-.44.24-.52s.44.03.52.24c.17.46.54.83.84 1.1.64.58 1.63 1.25 2.71 1.17.23-.02.42.15.43.37.02.22-.15.42-.37.43-.08.01-.16.01-.24.01zm1.36-.23c-.17 0-.32-.1-.38-.27-.07-.21.04-.44.25-.52.18-.06.36-.14.52-.24a.4.4 0 01.55.16c.11.19.04.44-.16.55-.21.11-.42.21-.65.29-.04.02-.09.03-.13.03z" fill="#ab3192"/><path d="M57.67 62.304c-.06 0-.12-.01-.18-.04-.2-.1-.28-.34-.19-.54.13-.26.44-1.09.6-1.54l.1-.26c.08-.21.31-.31.52-.24.21.08.31.31.24.52l-.1.26c-.25.67-.5 1.34-.63 1.62a.41.41 0 01-.36.22zm2.64-4.47c-.03 0-.06 0-.09-.01a.409.409 0 01-.31-.48c.11-.5.16-.99.14-1.44s-.05-.82-.24-1.11c-.12-.19-.4-.36-.68-.42-.17-.04-.54.1-.86.31-.19.12-.44.08-.56-.11a.395.395 0 01.11-.56c.2-.14.89-.57 1.49-.43.38.08.9.33 1.18.78.32.5.35 1.09.37 1.51.02.52-.03 1.08-.16 1.65-.04.18-.21.31-.39.31z" fill="#ab3192"/><path d="M38.26 76.604c-.12 0-.23-.05-.31-.15a.409.409 0 01.05-.57c.1-.08 2.36-1.96 4.24-1.82a.402.402 0 01-.06.8c-1.27-.08-3.08 1.15-3.67 1.64-.07.07-.16.1-.25.1z" fill="#f04c24"/><path d="M38.51 76.114c3.66.75 4.89-1.45 5.22-2.31-.55-.21-1.76-.53-3.03-.02-1.23.5-1.9 1.65-2.19 2.33zm-4.32-1.51c.15.34.47.89 1.08 1.26.65.39 1.49.5 2.49.32v-.01c-.25-.53-.72-1.22-1.5-1.54-.85-.34-1.65-.17-2.07-.03zm2.66 2.47c-.76 0-1.44-.18-2.01-.53-1.23-.75-1.54-2.02-1.56-2.08a.41.41 0 01.2-.45c.06-.03 1.49-.78 3.07-.14.7.28 1.19.77 1.54 1.27.43-.75 1.16-1.65 2.3-2.11 2.08-.84 3.95.14 4.02.18.16.09.24.27.2.45-.01.04-1.08 4.32-6.32 3.22-.5.13-.98.19-1.44.19z" fill="#f04c24"/><path d="M44.519 79.124c-.14 0-.28-.08-.35-.21-.51-.94-1.41-1.72-2.54-2.21-.2-.09-.3-.33-.21-.53s.33-.3.53-.21c1.29.56 2.33 1.46 2.93 2.56.11.2.03.44-.16.55-.07.03-.13.05-.2.05zm-5.569 7.02c-3.59 0-6.5-2.42-6.5-5.39 0-1.89 1.16-3.61 3.1-4.6.2-.1.44-.02.54.18s.02.44-.18.54c-1.67.85-2.66 2.3-2.66 3.88 0 2.53 2.55 4.59 5.7 4.59.5 0 .99-.05 1.47-.15.22-.05.43.09.48.31s-.09.43-.31.48c-.53.1-1.08.16-1.64.16zm-.92-9.92c-.2 0-.37-.15-.4-.35-.03-.22.13-.42.35-.45.06-.01.13-.01.19-.02.23-.02.42.14.44.36s-.14.42-.36.44c-.06.01-.11.01-.17.02h-.05z" fill="#f04c24"/><path d="M42.06 79.134c-.79 0-1.39.33-1.79.64-.82.65-1.35 1.72-1.35 2.72 0 1.8 1.77 3.27 3.94 3.27s3.94-1.47 3.94-3.27c0-1.23-.43-2.31-1.15-2.89-.66-.52-1.57-.65-2.69-.39-.06.01-.12.01-.19 0-.25-.06-.48-.08-.71-.08zm.81 7.44c-2.62 0-4.75-1.83-4.75-4.08 0-1.26.64-2.55 1.66-3.36a3.67 3.67 0 013.09-.73c1.34-.29 2.44-.1 3.29.57.93.74 1.46 2.02 1.46 3.52-.01 2.25-2.14 4.08-4.75 4.08z" fill="#f79550"/><path d="M45.919 82.824c-.19 0-.36-.13-.39-.32a3.2 3.2 0 00-.49-1.17.41.41 0 01.11-.56.41.41 0 01.56.11c.29.44.5.93.61 1.46.04.22-.1.43-.31.48h-.09z" fill="#f04c24"/><g fill="#bb841e"><path d="M17.429 26.574c-.1 0-.2-.04-.28-.11-3.43-3.31-5.06-7.91-4.9-10.75.01-.22.2-.39.43-.38.22.01.39.2.38.43-.12 2.14 1.02 6.61 4.66 10.12.16.16.16.41.01.57a.46.46 0 01-.3.12z"/><path d="M22.41 22.254c-.12 0-.25-.06-.33-.17-2.97-4.09-7.23-5.85-9.37-6.03a.405.405 0 01-.37-.44c.02-.22.22-.39.44-.37 2.83.24 7.15 2.5 9.95 6.36a.4.4 0 01-.09.56c-.07.07-.15.09-.23.09zm-3.961 2.3c-.11 0-.22-.05-.3-.14a.4.4 0 01.04-.57l.76-.66c.17-.15.42-.13.57.04s.13.42-.04.57l-.76.66c-.08.07-.18.1-.27.1zm1.661.21c-.11 0-.22-.05-.3-.14a.4.4 0 01.04-.57l.76-.66c.17-.15.42-.13.57.04s.13.42-.04.57l-.76.66c-.08.07-.17.1-.27.1zm-3.48-4.02c-.11 0-.22-.05-.3-.14a.4.4 0 01.04-.57l.76-.66c.17-.15.42-.13.57.04s.13.42-.04.57l-.76.66c-.08.07-.18.1-.27.1zm1.63 1.89c-.11 0-.22-.05-.3-.14a.4.4 0 01.04-.57l.76-.66c.17-.15.42-.13.57.04s.13.42-.04.57l-.76.66c-.08.06-.17.1-.27.1zm-2.21.32c-.11 0-.22-.05-.3-.14a.4.4 0 01.04-.57l1.42-1.23c.17-.15.42-.13.57.04s.13.42-.04.57l-1.42 1.23c-.08.07-.17.1-.27.1z"/><path d="M24.28 30.064c.11 0 .23.05.3.14l1.64 1.89c.15.17.45.15.67-.04.11-.1.19-.23.21-.37.01-.07.01-.19-.07-.29l-1.63-1.88a.391.391 0 01-.04-.47l.06-.1c.35-.63.47-1.57.32-2.5-.11-.65-.3-1.34-.6-2.12-.67-1.74-1.6-3.33-2.79-4.7-.21-.24-.41-.47-.62-.68 1.3 2.18 1.67 5.01.9 7.87-.04.16-.18.28-.34.3-2.94.35-5.69-.41-7.67-2a15.84 15.84 0 005.06 4.24c1.41.75 2.63 1.19 4.04.88.14-.03.28-.07.41-.12.05-.05.1-.05.15-.05zm2.23 2.95c-.34 0-.66-.13-.89-.39l-1.47-1.69c-.08.03-.17.05-.26.07-1.75.38-3.24-.24-4.59-.96-1.65-.88-3.14-2.03-4.42-3.4-.95-1.02-1.66-2.03-2.14-3.06 0-.01-.01-.01-.01-.02-.19-.33-.31-.69-.41-1.05a8.48 8.48 0 01-.22-.83.43.43 0 010-.16.41.41 0 01.27-.3c.2-.07.42.04.5.23l.1.24c1.41 3.19 4.95 5.03 8.94 4.64.94-3.9-.38-7.66-3.34-9.5l-.22-.13a.432.432 0 01-.17-.21c-.01-.03-.02-.06-.02-.1-.01-.07.01-.14.04-.21.01-.02.03-.05.04-.07a.38.38 0 01.18-.13c.04-.01.08-.02.12-.02h.02c.05 0 .09.01.14.02.27.09.53.2.79.33.35.15.69.32.99.55.01.01.02.01.02.02.85.56 1.67 1.3 2.46 2.23 1.24 1.45 2.23 3.11 2.93 4.94.32.83.53 1.58.64 2.28.08.51.21 1.79-.34 2.89l1.45 1.67c.22.25.31.59.26.94-.05.33-.21.64-.48.86-.26.21-.59.32-.91.32z"/><path d="M22.19 27.084c-.21 0-.39-.16-.4-.38-.02-.22.15-.42.37-.43 1.43-.1 2.27-1.06 2.28-1.07a.4.4 0 01.57-.04c.17.14.19.4.05.57-.04.05-1.06 1.22-2.83 1.35h-.04zm10.11-.43c-.19 0-.36-.13-.4-.33-1.03-5.32.45-10.66 2.45-13.19.14-.17.39-.2.57-.07.17.14.21.39.07.57-1.52 1.93-3.39 6.86-2.29 12.54a.4.4 0 01-.32.47c-.03 0-.06.01-.08.01z"/><path d="M39.769 25.874c-.22 0-.4-.18-.4-.4-.09-5.78-2.93-10.22-4.82-11.8-.17-.14-.19-.4-.05-.57s.4-.19.57-.05c2.47 2.06 5.02 6.99 5.11 12.4 0 .23-.18.41-.41.42zm-5.199-.44a.4.4 0 01-.04-.8l1.14-.12c.22-.02.42.14.44.36s-.14.42-.36.44l-1.14.12c-.01-.01-.03 0-.04 0zm1.42 1.28a.4.4 0 01-.04-.8l1.14-.12c.23-.02.42.14.44.36s-.14.42-.36.44l-1.14.12h-.04zm-.63-6.03a.4.4 0 01-.04-.8l1.14-.12c.22-.02.42.14.44.36s-.14.42-.36.44l-1.14.12h-.04zm.3 2.83a.4.4 0 01-.04-.8l1.14-.12c.22-.02.42.14.44.36s-.14.42-.36.44l-1.14.12h-.04zm-2.271-1.15a.4.4 0 01-.04-.8l2.13-.22c.22-.02.42.14.44.36s-.14.42-.36.44l-2.13.22h-.04z"/><path d="M30.319 22.914c.01.63.06 1.29.15 1.99.28 2.02.89 3.97 1.81 5.79.83 1.63 1.69 2.85 3.22 3.49.15.06.31.12.47.15.17.04.29.18.31.35l.3 2.84c.03.28.36.5.71.45.36-.04.63-.31.6-.59l-.29-2.82c-.02-.18.08-.34.24-.41l.12-.06c.75-.36 1.49-1.17 1.96-2.15.33-.68.6-1.46.83-2.38.52-2.07.68-4.17.48-6.23-.05-.53-.13-1.04-.22-1.52-.08 3.03-1.59 6.1-4.31 8.38-.13.11-.3.12-.45.05-3.12-1.68-5.23-4.38-5.93-7.33zm6.89 15.88c-.74 0-1.36-.5-1.43-1.18l-.27-2.57c-.11-.03-.21-.07-.32-.12-1.86-.78-2.85-2.32-3.63-3.87-.96-1.9-1.6-3.94-1.89-6.05-.22-1.57-.21-2.97.01-4.25v-.02c.04-.42.16-.83.3-1.23.1-.31.21-.62.34-.92.02-.05.05-.08.08-.12a.38.38 0 01.13-.09c.06-.03.12-.04.19-.03.03 0 .06.01.08.02.08.02.14.07.19.13.01.01.02.02.02.04.04.08.06.18.04.27v.01c-.02.09-.04.18-.06.28-.78 3.94 1.34 8.01 5.36 10.27 3.48-3.04 4.72-7.47 3.13-11.16-.04-.08-.07-.17-.11-.25a.39.39 0 01-.02-.28c.01-.02.02-.05.03-.07.03-.06.09-.12.15-.16.03-.02.06-.03.08-.04.07-.02.14-.02.2-.01.04.01.09.03.13.05.04.03.08.06.11.11.19.26.36.53.52.82.22.37.43.75.56 1.15 0 .01.01.02.01.03.43 1.08.71 2.29.84 3.68.21 2.16.04 4.35-.5 6.51-.25.98-.54 1.81-.89 2.54-.26.53-.98 1.81-2.22 2.47l.26 2.54c.08.73-.52 1.39-1.32 1.48.01.02-.04.02-.1.02z"/><path d="M38.649 30.744c-.81 0-1.94-.16-3.08-.85-.19-.11-.25-.36-.14-.55s.36-.25.55-.14c1.82 1.09 3.63.64 3.65.63.21-.06.44.07.49.29.06.22-.07.44-.29.49-.04.02-.5.13-1.18.13z"/></g><path d="M51.419 57.264c-.49 0-1.16.1-1.78.52-.8.55-1.12 1.46-1.24 2 1.11-.03 1.97-.33 2.57-.9.57-.54.78-1.2.86-1.6-.11-.01-.25-.02-.41-.02zm-3.21 3.33c-.1 0-.19 0-.29-.01a.41.41 0 01-.29-.13.406.406 0 01-.1-.3c.01-.08.16-2.02 1.66-3.04 1.49-1.02 3.14-.57 3.21-.55.18.05.3.21.29.39 0 .06-.04 1.45-1.14 2.5-.8.76-1.92 1.14-3.34 1.14z" fill="#27b67c"/><path d="M48.04 60.464c-.09 0-.17-.03-.25-.08a.41.41 0 01-.07-.57c.06-.08 1.51-1.92 3-2.14.22-.03.43.12.46.34s-.12.43-.34.46c-.97.14-2.12 1.37-2.48 1.84-.09.1-.2.15-.32.15zm2.189 22.46c1.01.47 1.92.58 2.72.34.75-.23 1.23-.73 1.47-1.05-.4-.26-1.21-.67-2.19-.53-.96.13-1.65.81-2 1.24zm1.86 1.27c-.83 0-1.72-.26-2.66-.77-.1-.05-.17-.14-.2-.25s-.01-.22.04-.31c.04-.07 1.05-1.74 2.84-1.98 1.79-.25 3.06.89 3.11.94.13.12.17.32.09.48-.03.05-.68 1.28-2.14 1.73-.34.1-.7.16-1.08.16zm21.921-15.95c-.47.08-1.34.32-1.97 1.08-.62.74-.67 1.71-.64 2.27 1.06-.33 1.8-.86 2.23-1.57.39-.68.41-1.38.38-1.78zm-2.96 4.26a.37.37 0 01-.21-.06.404.404 0 01-.18-.26c-.02-.08-.4-1.99.76-3.38 1.15-1.39 2.86-1.41 2.93-1.41.18 0 .34.12.39.3.02.06.36 1.4-.41 2.72-.59 1.01-1.66 1.71-3.18 2.08-.04.01-.07.01-.1.01z" fill="#27b67c"/><path d="M71.119 72.364c-.05 0-.1-.01-.15-.03a.397.397 0 01-.22-.53c.04-.09.92-2.26 2.3-2.88.2-.09.44 0 .53.2s0 .44-.2.53c-.89.4-1.66 1.9-1.88 2.45a.42.42 0 01-.38.26zm4.201-27.44c-.07.39-.1 1.06.27 1.7.36.63 1 .94 1.43 1.08.03-.84-.16-1.52-.56-2.02-.36-.45-.83-.66-1.14-.76zm2.06 3.7c-.02 0-.04 0-.06-.01-.07-.01-1.68-.27-2.43-1.59s-.26-2.67-.24-2.72c.06-.17.24-.28.42-.26.05.01 1.21.13 2.02 1.13.62.76.85 1.8.7 3.1-.01.11-.07.21-.16.28a.52.52 0 01-.25.07z" fill="#27b67c"/><path d="M77.289 48.524c-.1 0-.19-.03-.27-.11-.15-.14-1.5-1.4-1.58-2.65-.01-.22.16-.41.38-.43.22-.01.42.15.43.38.05.78.97 1.78 1.32 2.1.16.15.17.41.02.57-.08.1-.19.14-.3.14zM7.61 21.604c-.37.14-.96.45-1.33 1.09-.35.62-.3 1.34-.21 1.78.75-.4 1.24-.91 1.47-1.51.19-.53.14-1.04.07-1.36zm-1.8 3.85a.401.401 0 01-.37-.25c-.03-.06-.61-1.59.14-2.91s2.16-1.58 2.22-1.59c.18-.03.36.06.44.23.02.05.5 1.11.05 2.31-.34.92-1.12 1.65-2.32 2.17-.05.03-.11.04-.16.04z" fill="#27b67c"/><path d="M5.84 25.324c-.03 0-.06 0-.08-.01a.4.4 0 01-.31-.48c.04-.2.45-2 1.48-2.7.19-.12.44-.08.56.11s.08.44-.11.56c-.65.44-1.05 1.74-1.15 2.2-.03.19-.2.32-.39.32zm31.55-21.68c.77.35 1.47.44 2.09.26.55-.16.92-.51 1.13-.76-.33-.21-.94-.5-1.67-.4-.71.08-1.25.56-1.55.9zm1.44 1.16c-.7 0-1.46-.22-2.25-.67a.347.347 0 01-.19-.25.413.413 0 01.04-.31c.04-.06.9-1.45 2.41-1.63 1.51-.19 2.56.78 2.61.82.13.12.17.32.08.49a3.18 3.18 0 01-1.82 1.43c-.29.07-.58.12-.88.12z" fill="#27b67c"/><path d="M36.9 4.134c-.15 0-.3-.09-.37-.23-.09-.2-.01-.44.2-.54.19-.09 1.87-.84 3.05-.44a.402.402 0 01-.26.76c-.74-.25-2.02.21-2.45.41-.06.03-.11.04-.17.04z" fill="#27b67c"/><path d="M7.399 63.984l3.94 5.3c.01.01.02.03.03.04.25.43 1.32 1.68 2.45 3.01.49.58 1.01 1.19 1.52 1.78.05.06.15.2.29.38 2.78 3.63 3.81 4.12 4.2 4.08.04 0 .11-.01.2-.17.23-.47-.22-1.77-.42-2.32l-.06-.17c-.24-.68-.5-1.37-.76-2.04-.19-.5-.39-1-.57-1.5-.28-.76-.56-1.55-.82-2.29-.56-1.57-1.08-3.06-1.32-3.48-.01-.01-.01-.03-.02-.04l-2.63-6.06c-.31-.52-.8-.89-1.39-1.05-.6-.16-1.22-.08-1.75.23l-2.03 1.17c-1.1.63-1.48 2.03-.86 3.13zm12.41 15.4c-1.28 0-3.15-2.21-4.82-4.4-.13-.17-.22-.29-.27-.35-.5-.6-1.02-1.2-1.51-1.78-1.24-1.45-2.23-2.6-2.53-3.11l-3.94-5.31c-.01-.01-.02-.03-.03-.04a3.12 3.12 0 011.14-4.26l2.03-1.17c.72-.41 1.56-.52 2.36-.31.81.22 1.48.73 1.89 1.45.01.01.01.03.02.04l2.63 6.07c.28.5.76 1.87 1.37 3.59.26.74.54 1.52.82 2.28.18.5.37.99.56 1.48.26.67.53 1.37.77 2.06l.06.17c.37 1.05.74 2.23.38 2.95-.23.47-.58.59-.84.62-.02.02-.06.02-.09.02zm3.76-9.17l1.45 4.58c0 .01.01.03.01.05.07.34.5 1.46.97 2.63.2.52.42 1.06.62 1.59.02.06.06.17.11.33 1.07 3.23 1.65 3.69 1.85 3.74.01 0 .02.01.07-.04.24-.23.23-1.27.23-1.61v-.14c0-.52-.02-1.06-.04-1.58-.01-.39-.03-.78-.04-1.17-.01-.59-.02-1.2-.02-1.77-.01-1.21-.02-2.36-.08-2.69 0-.02-.01-.03-.01-.05l-.37-4.79c-.17-.84-1-1.38-1.84-1.22l-1.68.33a1.537 1.537 0 00-1.23 1.81zm5.01 13.73c-.07 0-.13-.01-.2-.02-.77-.19-1.49-1.46-2.42-4.27-.05-.14-.08-.25-.1-.3-.2-.53-.42-1.07-.62-1.59-.56-1.43-.92-2.34-1-2.75l-1.45-4.59c-.01-.02-.01-.03-.01-.05-.12-.62.01-1.25.37-1.78s.9-.88 1.52-1l1.68-.33c1.29-.25 2.54.6 2.79 1.88 0 .02.01.03.01.05l.37 4.8c.07.4.08 1.34.09 2.81.01.57.01 1.18.02 1.77.01.39.02.77.04 1.16.02.53.04 1.07.04 1.61v.13c0 .87-.03 1.76-.47 2.19-.21.19-.43.28-.66.28z" fill="#f79550"/><path d="M45.39 23.234c-.17 0-.31.14-.31.31s.14.31.31.31.31-.14.31-.31c-.01-.17-.15-.31-.31-.31zm0 1.42c-.61 0-1.11-.5-1.11-1.11s.5-1.11 1.11-1.11 1.11.5 1.11 1.11-.5 1.11-1.11 1.11zm-28.731-13.15c-.17 0-.31.14-.31.31s.14.31.31.31.31-.14.31-.31c-.01-.17-.14-.31-.31-.31zm0 1.42c-.61 0-1.11-.5-1.11-1.11s.5-1.11 1.11-1.11 1.11.5 1.11 1.11-.5 1.11-1.11 1.11z" fill="#fed538"/><path d="M23.67 34.114c-.17 0-.31.14-.31.31s.14.31.31.31.31-.14.31-.31c-.01-.17-.15-.31-.31-.31zm0 1.42c-.61 0-1.11-.5-1.11-1.11s.5-1.11 1.11-1.11 1.11.5 1.11 1.11-.5 1.11-1.11 1.11z" fill="#ab3192"/><path d="M29.05 55.784c-.17 0-.31.14-.31.31s.14.31.31.31.31-.14.31-.31-.14-.31-.31-.31zm0 1.42c-.61 0-1.11-.5-1.11-1.11s.5-1.11 1.11-1.11 1.11.5 1.11 1.11-.49 1.11-1.11 1.11zM2 52.194c-.17 0-.31.14-.31.31s.14.31.31.31.31-.14.31-.31-.14-.31-.31-.31zm0 1.42c-.61 0-1.11-.5-1.11-1.11s.5-1.11 1.11-1.11 1.11.5 1.11 1.11-.5 1.11-1.11 1.11z" fill="#f04c24"/><path d="M59.46 22.264c-.17 0-.31.14-.31.31s.14.31.31.31.31-.14.31-.31c-.01-.17-.15-.31-.31-.31zm0 1.42c-.61 0-1.11-.5-1.11-1.11s.5-1.11 1.11-1.11 1.11.5 1.11 1.11-.5 1.11-1.11 1.11z" fill="#ab3192"/><path d="M64 53.034c-.17 0-.31.14-.31.31s.14.31.31.31.31-.14.31-.31c0-.18-.14-.31-.31-.31zm0 1.42c-.61 0-1.11-.5-1.11-1.11s.5-1.11 1.11-1.11 1.11.5 1.11 1.11c.01.61-.49 1.11-1.11 1.11z" fill="#f04c24"/><path d="M76.44 20.474c-.17 0-.31.14-.31.31s.14.31.31.31.31-.14.31-.31-.14-.31-.31-.31zm0 1.42c-.61 0-1.11-.5-1.11-1.11s.5-1.11 1.11-1.11 1.11.5 1.11 1.11c.01.61-.49 1.11-1.11 1.11z" fill="#ab3192"/></svg>