<svg fill="none" height="165" width="234" xmlns="http://www.w3.org/2000/svg"><path d="M76.66 153.41c33.68-5.64 62.21-35.64 51.82-65.66-9.9-28.61-33.75-32.64-71.63-25.38-33.53 6.44-52.02 27.39-46.79 58.65 5.23 31.27 32.92 38.03 66.6 32.39z" fill="#f6a1ba"/><path d="M173.52 110.75c33.8 0 59.87-17.7 59.87-55.08S204.4 0 170.6 0 111 11.26 111 48.64s28.72 62.11 62.52 62.11z" fill="#f9c5d3"/><path d="M179.65 91.75c28.63 0 50.72-13.85 50.72-43.09S205.81 5.11 177.18 5.11s-50.5 8.81-50.5 38.05 24.33 48.59 52.97 48.59z" fill="#f1749f"/><g fill="#fff"><path d="M174.87 60.35c-.71 0-1.39-.14-2.04-.41l-12.81-5.34 1.02-2.45 12.81 5.34c.33.14.66.2 1.02.2 1.46 0 2.65-1.19 2.65-2.65 0-1.02-.6-1.96-1.52-2.4l-10.02-4.73c-.43-.2-.83-.47-1.2-.78L162.31 45c-2.4-2.07-5.47-3.22-8.65-3.22h-4.49c-1.6 0-3.2-.37-4.63-1.06l-4.48-2.17 1.16-2.38 4.48 2.17c1.08.52 2.28.8 3.47.8h4.49c3.81 0 7.5 1.37 10.38 3.86l2.46 2.13c.18.15.38.29.6.39l10.01 4.73c1.85.87 3.05 2.75 3.05 4.8.01 2.92-2.37 5.3-5.29 5.3z"/><path d="M170.16 70.95c-3.21 0-6.4-.82-9.21-2.37L140.1 57.06l1.28-2.32 20.85 11.52c2.42 1.34 5.16 2.04 7.93 2.04 3.76 0 7.43-1.31 10.35-3.68l18.8-15.32c.47-.38.73-.94.73-1.54a1.989 1.989 0 00-3.13-1.63L177.9 59.4l-1.52-2.17 19.03-13.27c.78-.55 1.7-.83 2.65-.83a4.643 4.643 0 012.93 8.24l-18.8 15.32a19.202 19.202 0 01-12.03 4.26z"/><path d="M198.059 45.77c-5.67 0-9.94-2.28-9.94-5.3v-5.3h2.65v5.3c0 1.05 2.91 2.65 7.29 2.65s7.29-1.6 7.29-2.65v-5.3h2.65v5.3c0 3.02-4.27 5.3-9.94 5.3z"/><path d="M198.059 32.52c-4.38 0-7.29 1.6-7.29 2.65 0 1.06 2.91 2.65 7.29 2.65s7.29-1.6 7.29-2.65-2.91-2.65-7.29-2.65zm0 7.95c-5.67 0-9.94-2.28-9.94-5.3s4.27-5.3 9.94-5.3 9.94 2.28 9.94 5.3-4.27 5.3-9.94 5.3zM182.1 54.1l-.43-3.54c-.07-.58-.34-1.14-.76-1.56l-2-2a5.266 5.266 0 00-2.46-1.39l-4.41-1.1c-1.22-.29-2.47.67-2.47 1.93 0 .25.05.49.13.72l-2.47.96a4.643 4.643 0 015.46-6.17l4.4 1.1c1.4.35 2.68 1.07 3.69 2.09l2 2c.83.84 1.37 1.94 1.51 3.11l.43 3.54zm20.6-34.83h-2.65v2.65h2.65zm-6.63 0h-2.65v2.65h2.65zm-6.62 2.65h-2.65v2.65h2.65zm-5.311 5.3h-2.65v2.65h2.65zm-2.649 6.63h-2.65v2.65h2.65zm27.84-11.93h-2.65v2.65h2.65zm5.299 5.3h-2.65v2.65h2.65zm2.651 6.63h-2.65v2.65h2.65zm-14.58 21.2h-2.65v2.65h2.65zm6.63-2.65h-2.65v2.65h2.65zm5.299-5.3h-2.65v2.65h2.65zm2.651-6.63h-2.65v2.65h2.65zm-54.34-25.18h-2.65v6.63h2.65zm0 11.93h-2.65v6.63h2.65zm7.96-3.98h-6.63v2.65h6.63zm-11.93 0h-6.63v2.65h6.63zm43.73 41.09h-2.65v6.63h2.65zm0 11.92h-2.65v6.63h2.65zm7.959-3.97h-6.63v2.65h6.63zm-11.929 0h-6.63v2.65h6.63z"/></g></svg>