<svg fill="none" height="73" width="75" xmlns="http://www.w3.org/2000/svg"><path d="M40.975 72.18c-20.58 2.89-37.8-4.49-40.65-24.77-2.85-20.28 13.4-32.69 33.98-35.58 20.57-2.89 37.14 1.01 39.99 21.29 2.85 20.29-12.75 36.16-33.32 39.06z" fill="#feeff1"/><g fill="#f6a1ba"><path d="M53.185 49.27c-5.87 0-10.65-4.76-10.65-10.6 0-4.21 2.48-7.86 6.06-9.57l-.67-1.66-8.87 10.1.05 1.45c.01.36-.27.65-.62.67-.33.02-.65-.27-.66-.62l-.06-1.7v-.01c-.07-2.12-.18-4.94-.26-7.04-.05-1.37-.1-2.43-.12-2.79s-.14-.63-.27-.81l-1.34 2.65c.15.11.25.28.27.47l.03.32v.02l.81 8.46v.01l.04.43c.04.35-.22.67-.58.7a.654.654 0 01-.68-.44h-3.34c-.34 5.55-4.97 9.96-10.63 9.96-5.87 0-10.65-4.76-10.65-10.6s4.78-10.6 10.65-10.6c1.96 0 3.8.53 5.39 1.46l1.25-1.86c-1.59-.61-3.79-2.15-3.48-4.76.04-1.95 2.9-8.79 4.76-10.83 1.28-1.42 2.6-2.09 3.9-2 .5.03.93.17 1.31.36.11.05.21.1.3.17.73.45 1.13 1.03 1.16 1.06.01.01.01.02.02.03.58.87 3.47 4.7 4.07 5.49l4.94 1.93c.33.13.5.5.37.83s-.5.49-.83.37l-5.11-2a.65.65 0 01-.28-.21c-.15-.19-3.52-4.65-4.21-5.68-.1-.11-.42-.44-.84-.76a.746.746 0 01-.12-.07.707.707 0 00-.38.01c-.16.05-.45.2-.6.66-.28.87.93 2.52 1.56 3.18.01.02.03.03.04.05l4.03 4.15 6.02 1.24c.3.06.53.32.53.63 0 .4-.38.71-.77.63l-6.22-1.28a.67.67 0 01-.33-.18l-2.88-2.96c-.11.45-.38.88-.87 1.21-1.07.7-1.71 2.5-1.97 3.52l4.79 2.69c.01 0 1.37.58 1.46 2.29.02.29.05 1.07.09 2.11.38-.07.74-.18 1.11-.34 3.2-1.39 5.89-4.17 6.71-5.07l-.2-.49c-.01-.03-.02-.05-.03-.08l-.61-1.49a.644.644 0 011.19-.49l.46 1.13h1.63v-1.49c0-.36.29-.64.64-.64h9.52c.36 0 .64.29.64.64v1.54a.643.643 0 010 1.2v.02c0 1.72-1.4 3.12-3.13 3.12h-4.55c-1.72 0-3.12-1.39-3.13-3.1h-1.1v.01l1.87 4.61c1.07-.36 2.21-.55 3.39-.55 5.87 0 10.65 4.76 10.65 10.6s-4.8 10.59-10.67 10.59zm-4.1-18.98c-3.11 1.51-5.26 4.7-5.26 8.37 0 5.14 4.2 9.32 9.36 9.32s9.36-4.18 9.36-9.32-4.2-9.32-9.36-9.32c-1.01 0-1.99.16-2.91.46l.56 1.38c.74-.23 1.53-.36 2.35-.36 4.34 0 7.87 3.52 7.87 7.84s-3.53 7.84-7.87 7.84-7.87-3.52-7.87-7.84c0-3.05 1.76-5.71 4.33-7zm-27.39-.94c-5.16 0-9.36 4.18-9.36 9.32s4.2 9.32 9.36 9.32c4.94 0 9.01-3.83 9.34-8.67h-1.5c-.33 4.02-3.72 7.19-7.84 7.19-4.34 0-7.87-3.52-7.87-7.84s3.53-7.84 7.87-7.84c1.39 0 2.7.36 3.83 1l.83-1.23a9.2 9.2 0 00-4.66-1.25zm28.44 3.51c-2.1 1.1-3.53 3.29-3.53 5.8 0 3.61 2.95 6.55 6.58 6.55s6.58-2.94 6.58-6.55-2.95-6.55-6.58-6.55c-.65 0-1.27.09-1.86.27l1.81 4.45c1.04-.01 1.89.8 1.89 1.83 0 1.01-.82 1.83-1.84 1.83a1.84 1.84 0 01-1.84-1.83c0-.53.23-1.01.59-1.35zm-28.44-.74c-3.63 0-6.58 2.94-6.58 6.55s2.95 6.55 6.58 6.55c3.41 0 6.22-2.59 6.55-5.9h-4.83a1.84 1.84 0 01-3.56-.64c0-1.01.82-1.83 1.84-1.83.15 0 .29.02.43.05l2.69-3.99c-.94-.51-2-.79-3.12-.79zm10.63 5.9h3.21l-.66-6.92-.68 1.34c-.1.19-.28.32-.49.35a.676.676 0 01-.56-.2l-3.81-4.12-1.19 1.77c2.39 1.81 3.99 4.61 4.18 7.78zm-2.79 0h1.5a9.316 9.316 0 00-3.6-6.71l-.83 1.23a7.839 7.839 0 012.93 5.48zm-6.12 0h4.83c-.17-1.77-1.06-3.33-2.37-4.41l-2.69 3.99c.1.13.17.27.23.42zm15.4-7.19c.06 1.49.12 3.24.18 4.83l8.39-9.56-.27-.67c-1.18 1.23-3.7 3.62-6.73 4.94-.52.23-1.03.38-1.57.46zm-9.06-3.81l3.71 4.01.56-1.11c.01-.03.03-.06.04-.09l.22-.44c0-.01.01-.01.01-.02l1.74-3.42-4.51-2.53-5.41.15c.15 2.18 2.99 3 3.12 3.03.12.03.22.1.3.18l.17.19zm20.55-3.03c.01 1 .83 1.81 1.84 1.81h4.55c1.01 0 1.83-.81 1.84-1.81zm0-1.29h8.23v-.85h-8.23zm-18.14-11.06c-.52.26-1.05.69-1.6 1.3-1.52 1.68-3.83 7.13-4.33 9.35l4.93-.13c.26-1.03.98-3.3 2.52-4.3.63-.41.28-1.33.17-1.59-.45-.5-2.33-2.68-1.78-4.39.02-.09.05-.17.09-.24zm-6.29-4.32c-1.39 0-2.89-.59-4.14-1.65a.643.643 0 01.2-1.1c.08-.03.2-.05.28-.04 1.81.11 2.86-.83 3.33-1.4.93-1.15 2.86-3.54 6.34-.98.15.11.29.22.42.32.28.22.33.62.11.9a.63.63 0 01-.59.24c.01.06.01.12 0 .19-.06.35-.38.58-.73.54-.06-.01-1.06-.1-1.85 1.19-.59.96-1.5 1.56-2.65 1.75-.23.02-.47.04-.72.04zm-1.84-1.71c.8.36 1.62.49 2.36.37.76-.12 1.37-.52 1.76-1.15.94-1.53 2.17-1.78 2.78-1.8-2.17-1.5-3.23-.53-4.38.89a4.89 4.89 0 01-2.52 1.69z"/><path d="M41.515 41.37h-4.88c-.32 0-.59-.23-.64-.54 0 0-.14-.88-.19-1.42-.03-.3-.03-.69.25-1 .32-.35.82-.42 1.47-.42h2.01c.01 0 1.21.01 1.66.34.99.72.96 2.26.95 2.43 0 .33-.29.61-.63.61zm-4.33-1.29h3.62c-.06-.29-.17-.58-.36-.72a6.68 6.68 0 00-.91-.09h-2.01c-.22 0-.36.01-.44.02.03.23.07.53.1.79zm7.92-17.73c-.96 0-1.74-.83-1.74-1.86s.78-1.86 1.74-1.86 1.73.83 1.73 1.86-.77 1.86-1.73 1.86zm0-2.43c-.24 0-.45.26-.45.57s.21.57.45.57.45-.26.45-.57-.21-.57-.45-.57zm-8.97-10.54c-1.77 0-3.35-1.26-3.92-3.06a.633.633 0 01-.3-.41c-.08-.35-.12-.73-.12-1.11 0-2.65 1.96-4.8 4.37-4.8.84 0 1.65.26 2.35.75.19.13.29.36.27.59.94.86 1.49 2.12 1.49 3.49.01 2.51-1.85 4.55-4.14 4.55zm-2.54-3.07c.48 1.07 1.46 1.78 2.55 1.78 1.58 0 2.86-1.46 2.86-3.26 0-1.06-.46-2.05-1.2-2.66-.41.07-.72.49-.72.99 0 1.73-1.3 3.14-2.89 3.14h-.6zm-.5-1.29h1.08c.89 0 1.6-.83 1.6-1.86 0-.75.34-1.42.85-1.84-.15-.03-.31-.04-.46-.04-1.7 0-3.08 1.57-3.08 3.51.01.08.01.16.01.23z"/></g></svg>