<svg fill="none" height="41" viewBox="0 0 34 41" width="34" xmlns="http://www.w3.org/2000/svg"><path d="m23.1979 40.2099c-.14 0-.28-.05-.4-.14-1.26-1.01-1.34-2.79-1.18-4.14-.63.5-1.28.98-1.96 1.45-1.43.98-3.2.98-4.63 0-.6-.41-1.23-.87-1.86-1.37.15 1.34.04 3.07-1.19 4.06-.27.22-.67.18-.89-.1-.22-.27-.18-.67.1-.89 1.16-.93.74-3.34.43-4.38-1.75001-1.6-3.27001-3.45-3.79001-5.36-.54-1.99-.86-4.06-.92-5.99l-.18-2.3c-.03-.35.23-.66.58-.68.35-.01.66.24.68.58l.18 2.33c.06 1.86.36 3.83.88 5.72.46 1.7 1.94001 3.41 3.51001 4.83.02.02.04.04.06.05 1.1.99 2.24 1.83 3.13 2.44.98.67 2.2.67 3.19 0 .85-.58 1.66-1.19 2.41-1.82l.29-.26c.39-.34.77-.67 1.14-1.03 1.28-1.26 2.25-2.75 2.88-4.42.5-1.32.85-2.51 1.06-3.63.2-1.05.37-2.27.07-3.35-.17-.59-.41-1.1-.71-1.54v.04c-.03.35-.33.61-.68.59-.85-.06-1.61-.22-2.34-.38-.33-.07-.67-.14-1.01-.2-.62-.11-1.26.04-1.76.4-.35.25-.45.37-.46.38-.21.28-.62.33-.89.11-.28-.21-.33-.61-.11-.89.14-.18.38-.39.72-.64.78-.56 1.77-.79 2.73-.62.36.06.7.14 1.05.21.72.15 1.4.3 2.17.35.03 0 .06.01.08.01-1-1.06-2.39-1.72-3.83-2.39-1.61-.75-3.27-1.53-4.53-2.92-.24-.26-.22-.66.04-.9s.66-.22.9.04c1.09 1.2 2.64 1.93 4.13 2.63 2.39 1.12 4.86 2.28 5.74 5.37.38 1.35.18 2.81-.04 3.94-.23 1.19-.6 2.45-1.12 3.84-.7 1.85-1.76 3.49-3.17 4.88-.16.15-.31.3-.48.45-.31.97-.81 3.53.4 4.5.27.22.32.62.1.89-.15.16-.34.25-.52.25zm-15.64001-.73c-1.43 0-2.89-.38-4.04-1.07-1.9-1.15-2.2-3.51-2.43-5.4-.04-.36-.090003-.71-.140003-1.04-.18-1.12-.330001-2.22-.450001-3.29-.50000012-4.53-.899997-9.34.230003-13.91 1.070001-4.3 3.920001-7.8 6.670001-11.18.58-.71 1.44-1.64999 2.85001-2.43999 1.09-.610005 2.38-.880007 3.84-.870007.47.01.93.030003 1.39.050003l.2.009994c.38.02.77.020005 1.16.020005.47 0 .85-.000005 1.24-.020005l.2-.009994c.46-.02.93-.040003 1.4-.050003 1.46-.04 2.75.260002 3.85.870007 1.41.78 2.27 1.72999 2.79 2.36999 2.8 3.44 5.65 6.94 6.72 11.24 1.14 4.57.74 9.38.23 13.91-.12 1.1-.27 2.2-.45 3.29-.05.33-.1.68-.14 1.04-.24 1.89-.53 4.25-2.43 5.39-1.54.93-3.64 1.28-5.47.93-.35-.07-.57-.4-.51-.74.07-.35.41-.57.74-.51 1.54.29 3.29 0 4.57-.78 1.37-.82 1.61-2.76 1.82-4.46.05-.38.09-.75.15-1.09.17-1.07.32-2.16.44-3.23.49-4.42.88-9.09-.2-13.46-1-4.03-3.76-7.40999-6.42-10.67999-.55-.67-1.27-1.46001-2.48-2.13001-.89-.5-1.95-.75-3.2-.71-.45.01-.91.03001-1.37.05001l-.2.00999c-.41.02-.81.02-1.23.02-.46 0-.88 0-1.28-.02l-.2-.00999c-.46-.02-.91-.04001-1.36-.05001-1.23-.02-2.3.21-3.19.71-1.21001.67-1.93001 1.46-2.43001 2.07-2.72 3.33-5.47 6.72-6.47 10.74-1.080001 4.37-.7 9.05-.2 13.46.12 1.05.26 2.14.44 3.23.06.34.1.71.15 1.09.21 1.71.45 3.64 1.82 4.47 1.26.76 3.06 1.06 4.57.77.34-.07.68.16.74.51.07.34-.16.68-.51.74-.44.12-.92.16-1.41.16zm10.35001-5.4h-.84c-.06 0-.13 0-.19-.01-.28-.02-.56-.1-.82-.23-.04-.02-.07-.04-.1-.06l-.51-.39-.31-.16c-.3-.15-.43-.5-.31-.8-.12.01-.24 0-.36-.01-.35-.05-.59-.37-.54-.72s.37-.6.72-.54c.06.01.09 0 .11 0 .13-.03.2-.1.2-.1l.17-.22c.24-.32.57-.54.93-.65.11-.03.23-.06.38-.07.39-.03.64.05.82.1.11.04.18.05.24.05.08 0 .12-.01.22-.04.18-.05.42-.13.82-.09.17.02.32.05.47.11.36.14.67.39.89.73.06.09.19.17.33.2.28.02.55.18.62.45.1.34-.03.67-.37.77 0 0-.07.02-.08.02-.07.02-.18.03-.28.04.11.29-.01.62-.29.78l-.28.16-.44.34c-.32.19-.58.29-.87.33-.1 0-.21.01-.33.01zm-1.23-1.36c.1.04.21.07.32.08h.92c.05 0 .1 0 .15-.01.12-.02.23-.06.33-.12l.41-.33c.03-.02.05-.04.08-.06l.33-.18c.01 0 .02-.01.02-.01-.16-.12-.29-.26-.4-.42-.08-.12-.18-.2-.29-.24-.03-.01-.06-.02-.13-.03-.15-.01-.2 0-.33.04-.14.04-.32.11-.62.1-.27 0-.46-.06-.6-.11-.13-.04-.19-.06-.34-.05-.07 0-.1.01-.11.02-.11.03-.21.1-.29.21l-.17.22c-.06.08-.14.17-.26.25l.36.18c.03.02.07.04.1.06zm-10.59001-3.54c-.22 0-.43-.11-.55-.31-1.16-1.95-1.49-4.71-.84-7.03.87-3.09 3.34-4.25 5.74001-5.37 1.49-.7 3.04-1.42 4.13-2.62 1.11-1.23 1.62-2.53 1.52-3.88-.21-2.65999-2.72-4.71-2.75-4.73-.27-.22-.32-.62-.1-.89s.62-.32.89-.1c.12.1 2.96 2.4 3.22 5.61.14 1.72-.48 3.35-1.84 4.85-1.26 1.39-2.92 2.17-4.53 2.92-2.23001 1.05-4.34001 2.03-5.05001 4.56-.56 2-.29 4.37.7 6.03.18.3.08.69-.22.87-.1.06-.21.09-.32.09zm11.43001-.45c-.57 0-1.02-.25-1.18-.35-.52-.3-1.12-.88-1.18-1.58-.03-.34.09-.53.3-.89.08-.13.19-.32.33-.57.09-.18.27-1.23-.01-2.88-.17-1.02-.32-1.21-.43-1.35-.01-.01-.11-.13-.46-.38-.51-.37-1.15-.51-1.77-.4-.34.06-.67.13-1.01.2-.57.12-1.35.27-2.32001.38-.35.03-.66-.21-.7-.56s.22-.66.56-.7c.91001-.1 1.65001-.24 2.19001-.36.35-.07.69-.15 1.05-.21.96-.18 1.95.06 2.73.62.34.25.58.45.72.63.29.37.49.8.68 1.92.27 1.57.21 3.09-.13 3.71-.15.27-.26.46-.34.6-.05.09-.09.15-.12.2.05.14.26.37.5.51.02.01.06.04.08.06.04.02.34.19.63.12.11-.02.17-.05.31-.13.36-.24.69-.49.69-.5.28-.22.68-.16.89.11.21.28.17.68-.11.89 0 0-.37.29-.77.55-.25.17-.47.26-.74.32-.13.02-.26.04-.39.04zm-6.43-4.29c-.08 0-.16-.01-.24-.05-.33-.13-.49-.5-.35-.83.03-.08.07-.16.12-.23-.01-.01-.09-.06-.22-.06-.11 0-.2.06-.22.08-.28001.21-.68001.16-.89001-.12s-.16-.68.12-.89c.16-.12.5-.32.97001-.33.51.01.87.21 1.05.35.19.16.38.27.59.34.03.01.05.01.07.02l.12.03c.27.06.5.04.61.03.13-.01.24-.03.96-.23l.62-.17c.34-.09.69.11.78.45s-.11.69-.45.78l-.62.17c-.76.21-.94.25-1.18.27-.16.02-.54.05-1-.05-.03-.01-.07-.01-.1-.02-.09.03-.14.07-.14.08-.11.23-.35.38-.6.38zm12.17-.04c-.24 0-.48-.14-.6-.37 0-.01-.04-.04-.14-.08-.03.01-.06.02-.1.02-.47.1-.85.07-1.01.05-.24-.02-.42-.06-1.18-.27l-.62-.17c-.34-.09-.54-.44-.45-.78s.45-.53.78-.45l.62.17c.72.2.82.22.95.23.12.01.35.03.62-.03.04-.01.08-.02.11-.03s.05-.02.08-.03c.2-.07.39-.18.57-.33.19-.15.57-.36 1.06-.36.35.01.68.12.96.33s.34.61.13.89-.61.34-.89.13c-.05-.04-.13-.08-.23-.08 0 0 0 0-.01 0-.1 0-.18.04-.21.06.05.07.09.15.12.23.13.31-.03.64-.34.78-.05.08-.14.09-.22.09zm-16.40001-9.81c-.25 0-.49-.15-.59-.4-.13-.33.03-.7.36-.83l.1-.04c1.82-.71 3.69001-1.45 4.50001-3.17.52-1.1.51-2.58999-.01-4.42999-.1-.34.1-.69001.44-.79001s.69.10001.79.44001c.62 2.17.6 3.91-.06 5.31999-1.02 2.18-3.24001 3.05-5.19001 3.81l-.1.04c-.09.04-.17.05-.24.05zm20.01001-2.51c-.11 0-.22-.03-.32-.09-1.3-.76-2.28-1.86-3.22-2.93-.55-.62-1.06-1.2-1.64-1.72-2.04-1.85-4.75-3.06999-7.62-3.43999-.35-.04-.59-.36-.55-.71s.37-.60001.71-.55001c3.13.4 6.08 1.74001 8.32 3.76001.63.57 1.19 1.21 1.74 1.83.92 1.04 1.78 2.01999 2.91 2.66999.3.18.41.57.23.87-.13.2-.35.31-.56.31z" fill="#9e79b6"/></svg>