<svg fill="none" height="68" viewBox="0 0 48 68" width="48" xmlns="http://www.w3.org/2000/svg"><path d="m23.7481 67.87c-.35 0-.64-.29-.64-.64v-5.1c-3.34-6.37-12.43-10.88-16.11001-12.5-.88 4.21-1.38 10.7 1.4 17.3.14.32-.02.7-.34.83s-.7-.01-.83-.34c-4.04-9.59-1.55-18.71-.44-21.88 0-.01 0-.01.01-.02.23-.66.4-1.06.44-1.13.63-1.75 1.29-3.54 1.96-5.35 1.15001-3.08 1.85001-5.92 2.15001-8.7.26-2.38.45-4.88-.42-7-.75-.9-1.16001-1.9-1.50001-2.84l-2.27 11.26c-.07.34-.4.57-.75.5-.34-.07-.57-.41-.5-.75l2.77-13.77s0-.09 0-.23v-.01c0-.04 0-.08 0-.11-.02-.4-.1-1.07-.44-1.69-.17-.31-.05-.7.26-.86.31-.17.7-.05.86.26.46.85.57 1.74.59 2.29.09001.78.27001 1.55.53001 2.28.46 1.29.93 2.62 2.22 3.61 2.06 1.57 4.66 1.08 4.94 1.02.67-.14 1.35-.42 1.89-.76 1.55-.99 2.18-2.51 2.42-3.33.1-.34.45-.53.79-.43s.53.45.43.79c-.29.99-1.05 2.83-2.95 4.05-.48.3-1.26.71-2.31.94-.51.11-2.98.53-5.27-.78.33 1.9.17 3.9-.03 5.71-.31 2.88-1.04 5.82-2.23 9-.68001 1.81-1.33001 3.6-1.97001 5.38-.01.02-.07.16-.17.42 5.41001 1.19 10.95001 1.78 16.52001 1.7 4.95-.06 9.93-.63 14.83-1.71-.09-.24-.15-.36-.15-.38-.66-1.82-1.31-3.61-1.99-5.42-1.19-3.18-1.92-6.13-2.23-9-.2-1.81-.36-3.81-.03-5.71-2.29 1.31-4.75.89-5.27.78-1.05-.22-1.84-.63-2.31-.94-1.9-1.22-2.66-3.06-2.95-4.05-.1-.34.1-.69.43-.79.34-.09.69.1.79.43.24.82.87 2.34 2.42 3.33.55.35 1.22.62 1.89.76.29.06 2.88.56 4.94-1.02 1.29-.99 1.76-2.32 2.22-3.61.26-.75.44-1.53.53-2.31v-.01c.02-.57.14-1.44.58-2.25.17-.31.55-.42.86-.26.31.17.42.55.26.86-.34.63-.42 1.33-.43 1.74v.01c-.01.21.01.35.01.35l2.76 13.71c.07.34-.15.68-.5.75s-.68-.15-.75-.5l-2.27-11.26c-.34.94-.75 1.93-1.5 2.83-.87 2.12-.68 4.62-.42 7 .3 2.77 1.01 5.62 2.16 8.7.68 1.81 1.33 3.61 1.98 5.39.19.42 4.88 11.36-.01 22.99-.14.33-.51.47-.83.34-.32-.14-.48-.51-.34-.83 2.81-6.67 2.26-13.23 1.37-17.43-1.38.6-3.55 1.6-5.87 2.95-3.59 2.08-8.31 5.45-10.54 9.67v5.1c-.01.38-.3.67-.65.67zm-16.46001-19.5c4.10001 1.77 12.61001 6.04 16.44001 12.28h.03c2.01-3.29 5.55-6.41 10.52-9.3 2.5-1.45 4.82-2.51 6.22-3.11-.17-.67-.34-1.26-.5-1.75-5.02 1.12-10.15 1.71-15.23 1.77-5.7.06-11.4-.53-16.95001-1.76-.17.52-.35 1.15-.53 1.87zm16.46001-8.39c-.71 0-1.35-.44-1.6-1.09-.13-.33.04-.7.37-.82.33-.13.7.04.82.37.06.16.22.27.4.27s.34-.11.4-.27c.13-.33.49-.49.82-.37.33.13.49.49.37.82-.23.64-.87 1.08-1.58 1.09zm-22.19001-8.01c-.33 0-.610002-.26-.630002-.59-.07-.98-.16-2.35-.25-4-.18-3.21-.289998-5.32-.279998-8.11s.139998-4.6.279998-6.53c.23-3.20997.470002-4.12998.780002-5.08998.45-1.39 1.28-3.4 3.21-4.72 1.22-.84 2.26-.98999 4.13-1.26999 1.41001-.21 3.34001-.5 6.28001-1.220001.61-.15 1.15-.290004 1.6-.4100036.34-.08.69.1200066.78.4600066s-.12.689998-.46.779998c-.46.12-1 .25999-1.62.40999-3 .74-4.96 1.03-6.39001 1.24-1.74.26-2.61.39-3.6 1.06-1.24.85-2.08 2.1-2.71 4.06-.24.73-.48 1.48001-.72 4.78998-.14 1.9-.27 3.7-.28 6.44-.01 2.75.11 4.84.28 8.01.09 1.66.18 3.03.25 4 .03.35-.24.66-.59.68-.03.01-.04.01-.06.01zm44.70001 0c-.02 0-.03 0-.05 0-.35-.03-.61-.33-.59-.68.07-.97.16-2.34.25-3.98.18-3.19.29-5.28.28-8.03-.01-2.78-.14-4.56-.28-6.44-.24-3.30998-.48-4.05997-.72-4.78997-.64-1.96-1.47-3.21-2.71-4.06-.99-.68-1.8-.80001-3.6-1.07001-1.43-.21-3.4-.51-6.4-1.24-.61-.15-1.16-.28999-1.62-.40999-.34-.09-.54-.439998-.46-.779998.09-.34.43-.5400066.78-.4600066.46.1199996 1 .2600036 1.6.4100036 2.94.720001 4.87 1.010001 6.28 1.220001 1.87.28 2.9.42999 4.13 1.26999 1.93 1.31 2.75 3.32 3.2 4.72.31.95.54 1.87001.78 5.08998.14 1.9.27 3.7.28 6.53.01 2.79-.11 4.9-.28 8.08-.09 1.67-.18 3.05-.25 4.03-.01.34-.29.59-.62.59zm-14.37-10.34c-.3 0-.6-.1-.84-.29-.28-.21-.33-.61-.11-.89s.62-.33.89-.11c.01.01.04.03.08.02.21-.28.65-.35.92-.14.28.21.36.59.15.87-.2.27-.5.45-.82.51-.09.02-.18.03-.27.03zm-15.96 0c-.09 0-.18-.01-.27-.03-.32-.06-.62-.25-.82-.51-.21-.28-.16-.68.12-.89s.68-.16.89.12c.28-.21.75-.16.96.12s.24.69-.04.9c-.25.19-.54.29-.84.29z" fill="#9e79b6"/></svg>