<svg fill="none" height="47" viewBox="0 0 32 47" width="32" xmlns="http://www.w3.org/2000/svg"><path d="m20.2732 46.44h-9.21c-.74 0-1.37999-.5-1.55999-1.23-.08-.34-.13-.69-.13-1.05 0-.35.04-.69.13-1.01.08-.31.24-.57.45-.78v-3.89c-.22-.2099-.38-.48-.45-.79-.08-.34-.13-.6899-.13-1.0499 0-.35.04-.6901.13-1.0101.08-.31.24-.58.45-.78v-1.89c-.47.3-1 .52-1.58.64-1.34.28-2.8.01-4.11-.76-2.15-1.28-3.499996-3.08-4.019996-5.35-1.24-5.41 2.579996-12 4.279996-14.58.41-.62 1.07-1.02 1.77-1.1l-1.1-1.94998c-.71999-1.27-.8-2.77999-.2-4.02999.04-.09.09001-.17998.13001-.25998l2.54999-4.52002c.43-.760003 1.34-1.1399971 2.17-.899997.57999.17 1.01999.580005 1.21999 1.130007.2.54.13 1.12999-.19 1.61999-1.23999 1.88-1.70999 3.01002-1.72999 3.49002.04.02.09.04998.14.06998.01-.01.03-.02.04-.03.14-.13.34-.34998.49-.50998.62999-.7 1.40999-1.58 2.42999-1.44 1.22.16 2.12 1.80998 2.36 2.28998.25.38.42.69.54.91.05.1.07.14999.1.17999.12.03.79.03003.97-.03997-.02.01-.01-.04001.02-.10001.13-.25.3-.55999.54-.92999.42-.82 1.26-2.17 2.37-2.31 1.01-.14 1.8.74 2.43 1.44.14.16.34.37998.49.50998.02.01.03.02001.04.04001.05-.03.11-.04999.14-.07999-.03-.47-.49-1.61002-1.74-3.49002-.3-.46-.38-1.02001-.22-1.54001.17-.529996.56-.949969 1.09-1.159969.86-.34 1.85.009998 2.3.809999l2.58 4.56c.25.46.42.94998.51 1.44998.17.93-.01 1.93999-.5 2.83999l-1.08 1.96998c.66.11 1.28.5001 1.67 1.0901 1.7 2.58 5.52 9.1699 4.28 14.5799-.52 2.27-1.88 4.07-4.02 5.35-1.31.78-2.77 1.05-4.11.76-.61-.13-1.15-.35-1.64-.67v1.89c.18.16.32.3601.42.5901.16.39.25.8099.25 1.2299 0 .44-.08.87-.25 1.28-.1.23-.24.43-.42.59v3.82c.18.16.32.36.42.59.16.39.25.81.25 1.23 0 .44-.08.87-.25 1.28-.28.61-.86 1-1.51 1zm-7.38-4.5199c.34 0 .62.2799.62.6199s-.28.62-.62.62h-1.83c-.17 0-.32.1201-.37.2901-.06.2299-.09.47-.09.72s.03.4999.09.7399c.04.17.19.2901.37.2901h9.21c.15 0 .29-.0901.35-.2401.11-.25.16-.52.16-.8 0-.27-.05-.5199-.16-.7699-.03-.08-.09-.1401-.15-.1801-.02-.01-.04-.02-.06-.03-.04-.02-.09-.03-.14-.03h-4.58c-.34 0-.62-.28-.62-.62s.28-.62.62-.62h4.42v-3h-4.42c-.34 0-.62-.28-.62-.62s.28-.6199.62-.6199h4.58c.04 0 .09-.0101.13-.0201.02-.01.05-.03.08-.04.06-.04.11-.1.14-.18.11-.25.16-.52.16-.8 0-.27-.05-.53-.16-.77-.03-.08-.08-.14-.14-.18-.03-.01-.05-.0199-.07-.0399-.04-.02-.08-.0301-.13-.0301h-1.52c-.34 0-.62-.28-.62-.62s.28-.62.62-.62h1.36v-2.71c-.14-.2-.26-.41-.38-.63-.63-1.26-1.71-2.14-2.95-2.4-.4-.08-.79-.11-1.21-.12-.29 0-.58.03-.89.09-1.3.24-2.42 1.13-3.08 2.43-.13.25-.27.49-.43.71v2.63h4.61c.34 0 .62.28.62.62s-.28.62-.62.62h-4.73c-.06 0-.11.01-.16.04-.02.01-.04.02-.06.03-.07.05-.13.13-.15.22-.06.23-.09.48-.09.72 0 .25.03.5.09.74.02.09.08.17.15.23l.06.03c.05.02.1.04.16.04.34 0 .62.28.62.62 0 .3-.21.55-.49.6v3.02h1.7zm8.33-10.78c.5.65 1.17 1.07 2.01 1.25 1.05.22 2.19-.0001 3.23-.6201 1.85-1.1 3.01-2.63 3.45-4.56 1.17-5.09-2.85-11.72-4.11-13.63-.3-.45-.84-.67-1.33-.53-.1.03-.14.05-.15.06-.24.19-.39.47-.42.77.29.07.64.21.98.45.44.31.77.73 1 1.26.03.08.05.16.05.24 0 .34-.28.6201-.62.6201-.27 0-.5-.1701-.58-.4101-.09-.2-.24-.48-.56-.7-.29-.21-.59-.28-.77-.3-.17.06-.49.22-.68.54s-.21.72-.06 1.1c.33-.01.66.03.98.13 1 .32 1.47 1.11 1.63 1.43.15.31.02.68-.28.83s-.67.02-.83-.28c-.07-.14-.34-.62-.91-.8-.22-.07-.45-.09-.69-.06-.15.12-.45.4-.49.84-.03.29.06.52.16.69.47.02.92.14 1.33.35.48.25.88.6101 1.19 1.0801.19.28.11.6699-.17.8499-.29.19-.67.11-.85-.17-.19-.29-.44-.51-.73-.66-.3-.15-.59-.1999-.82-.2099-.16.16-.32.38-.41.69-.11.39-.05.7399.04.9899.41.01.95.11 1.46.48.44.32.77.77.95 1.3.11.32-.07.67-.39.78s-.67-.07-.78-.39c-.1-.29-.26-.52-.5-.69-.15-.11-.31-.17-.46-.21-.08.53-.38 1.02-.85 1.3001.72.66 1.17 1.2099 1.46 1.6099.2.28.13.6601-.15.8601s-.66.1299-.86-.1501c-.38-.54-1.13-1.39-2.53-2.45-.07-.03-.13-.07-.17-.1199-.63-.4-1.74-.9401-3.18-.9701-1.8-.03-3.04.68-3.65 1.11-.07.05-1.46 1.08-2.40999 2.43-.2.28-.58.3401-.86.1501-.28-.2-.34-.5801-.15-.8601.44-.61.94-1.16 1.39999-1.6-.47999-.28-.78999-.78-.86999-1.31-.15.04-.31.1-.46.21-.23.16-.4.39-.49.68-.08.25-.31.44-.59.44-.34 0-.62-.27-.62-.61 0-.07.01-.1299.03-.1999.18-.54.51-.9901.95-1.3001.51-.37 1.05-.4699 1.46-.4799.09-.25.15-.6001.04-.9901-.09-.31-.26-.53-.4-.68-.24.01-.53.06-.83.21-.29.15-.54.38-.73.66s-.56999.36-.84999.17c-.28001-.19-.36001-.57-.17001-.85.31-.47.71-.83 1.19-1.08.41-.21.87-.33 1.33-.34.09-.16.19-.4.16-.69-.04-.44-.34-.72-.49-.84-.18-.03-.43-.03-.7.06-.57.19-.83999.67-.91.81-.15.31-.52.43-.83.28s-.43-.52-.28-.83c.16-.32.63001-1.11 1.63001-1.44.36-.12.68999-.14.97999-.13.14-.38.13-.78-.06-1.1s-.5-.47-.66999-.54c-.18.02-.47.09-.77001.3-.33.23-.47999.52-.56999.72-.09.23-.31001.39-.57001.39-.34 0-.62-.27-.62-.61 0-.08.02-.17.05-.24.08-.2.34-.79 1-1.26.34-.25.69001-.3799.98001-.4499-.03-.25-.13001-.4801-.31001-.6601-.03-.02-.05-.04-.07-.07-.02-.01-.02999-.03-.04999-.04 0 0-.04001-.03-.14001-.06-.48-.14-1.03.08-1.33.53-1.26 1.91-5.269997 8.54-4.11 13.63.44 1.93 1.61 3.47 3.45 4.57 1.04.62 2.18.84 3.23.62 1.08-.23 1.87999-.85 2.38999-1.87.83-1.65 2.27-2.78 3.96-3.09.38-.07.73-.1 1.09-.11.49-.02.99.04 1.48.14 1.61.34 3 1.46 3.8 3.06.11.22.23.42.37.61-.01-.06-.01-.0499 0-.0399zm-10.73-7.9001c-.06.25.05.52.27.64.2.11.47.09.68-.05.74-.52 2.29-1.38 4.39-1.34 1.96.04 3.4.86 4.08 1.34.21.15.48.17.68.05.22-.12.32-.39.26-.64-.19-.34-.57-1.2-.27-2.22.12-.43.33-.76.55-1.02-.18-.33-.33-.79-.28-1.35.06-.67.4-1.16.69-1.46-.31-.74-.27-1.5699.13-2.2399.28-.47.67-.7601.99-.9301-.01-.73.33-1.44.92-1.89 0 0 0 0 .01-.01l1.58-2.86996c.36-.66.49-1.38.37-2.03-.07-.37-.2-.73999-.38-1.07999l-2.57-4.55001c-.15-.27-.49-.37999-.78-.26999-.17.07-.3.21-.36.38-.03.1-.06.28999.07.48999 2.03 3.07 1.96 4.03001 1.94 4.35001-.03.38-.26.64-.5.81l.5.52999c.23.25.22.64-.03.87s-.64.22-.87-.03l-1.32-1.41c-.2-.17-.4-.39001-.59-.60001-.39-.43-1-1.08998-1.35-1.03998-.37.05-.97.74-1.43 1.65-.01.03-.03.04998-.05.07998-.22.34-.38.63002-.49.83002-.11.21-.21.39-.41.56-.48.39-1.98.4-2.47 0-.2-.16-.29-.34-.38-.5-.13-.25-.29-.54001-.52-.88001-.03-.04-.05-.09001-.07-.14001-.28-.59-.95-1.53-1.41-1.59-.38-.04-.96.61001-1.35 1.04001-.19.22-.39.42999-.59.60999l-1.40999 1.48001c-.23.25-.63.25999-.87.01999-.25-.23-.26-.62-.02-.87l.58-.60998c-.25-.18-.47-.43-.5-.81-.02-.31-.1-1.27001 1.93-4.35001.1-.15.13-.34001.06-.51001-.07-.18-.22-.31999-.41-.36999-.28-.08-.59.06001-.75.33001l-2.55 4.51999c-.03.06-.07.13001-.1.19001-.42.89-.36 1.96998.16 2.88998l1.76 3.10997c.44.45.68 1.05.68 1.68.33.17.72.46.99.93.38999.67.42999 1.5001.12 2.2401.29999.2999.62999.7899.68999 1.4599.05.56-.11 1.02-.28 1.35.25.3.44.65.55 1.02.3 1.01-.09 1.87-.27 2.21zm5.18-4.16c-.89 0-1.74-.41-2.3-1.11-.14-.18-.39-.28-.66-.28h-1.18c-.34 0-.62-.28-.62-.62s.28-.6199.62-.6199h1.18c.65 0 1.25.28 1.62.75.34.43.86.6599 1.4.6399.48-.02.92-.25 1.23-.62.41-.5.99-.78 1.59-.78h1.38c.34 0 .62.28.62.62s-.28.62-.62.62h-1.38c-.32 0-.54.21-.64.33-.53.64-1.3 1.03-2.13 1.06-.03.01-.07.01-.11.01z" fill="#9e79b6"/></svg>