<svg fill="none" height="337" viewBox="0 0 356 337" width="356" xmlns="http://www.w3.org/2000/svg" xmlns:xlink="http://www.w3.org/1999/xlink"><linearGradient id="a" gradientUnits="userSpaceOnUse" x1="202.13" x2="202.13" y1=".482788" y2="336.468"><stop offset=".260417" stop-color="#9e79b6"/><stop offset="1" stop-color="#9e79b6" stop-opacity="0"/></linearGradient><path d="m140.932 20.4916c-103.9918 43.9374-166.8831 125.0254-130.2908 224.6894 36.5924 99.65 143.6968 110.728 247.7038 66.791 103.991-43.938 172.389-107.509 135.797-207.158-36.607-99.6642-149.204-128.2742-253.21-84.3224z" fill="url(#a)"/><path d="m60.9482 168.661c0 98.054 77.7218 146.022 168.3368 146.022s159.805-29.523 159.805-127.563v-.029c-.014-98.0397-77.002-162.9162-167.617-162.9162h-.015c-90.6 0-160.5098 46.446-160.5098 144.4862z" fill="#90479b"/><path d="m248.639 302.822c82.318 0 145.811-37.586 145.811-116.949s-70.6-118.1958-152.918-118.1958c-82.319 0-145.1658 23.8973-145.1658 103.2598 0 79.363 69.9688 131.885 152.2728 131.885z" fill="#f6a1ba"/></svg>