<svg fill="none" height="40" viewBox="0 0 53 40" width="53" xmlns="http://www.w3.org/2000/svg"><path d="m28.5599 39.44c-.03 0-.06 0-.08-.01-.35-.05-.59-.37-.55-.71l.34-2.54h-.49c-.35 0-.64-.29-.64-.64s.28-.64.64-.64h.65l.05-.37h-.7c-.35 0-.64-.29-.64-.64s.28-.64.64-.64h.87l.07-.5h-.94c-.35 0-.64-.29-.64-.64s.28-.64.64-.64h1.1l.01-.08h-1.49c-.63 0-1.14-.52-1.14-1.15v-8.3c-.11-1.44.32-2.99 1.16-4.23.5-.73.87-1.13 1.24-1.52.35-.37.67-.72 1.1-1.36.8-1.21.88-2.24.95-3.34.08-1.1.16-2.24.92-3.56.31-.53.69-1.03 1.15-1.48-2.07.32-4.17.49-6.27.51-2.35.04-4.71-.13-7.05-.48.46.45.84.94 1.15 1.48.76 1.32.84 2.45.92 3.55s.15 2.13.95 3.33c.43.64.75.99 1.1 1.36.36.39.74.79 1.24 1.52.9 1.32 1.37 2.88 1.27 4.28v8.26c0 .63-.51 1.15-1.14 1.15h-1.59l.01.08h1.1c.35 0 .64.29.64.64s-.28.64-.64.64h-.94l.07.5h.87c.35 0 .64.29.64.64s-.28.64-.64.64h-.7l.05.37h.65c.35 0 .64.29.64.64s-.28.64-.64.64h-.49l.34 2.54c.05.35-.2.67-.55.71-.34.05-.67-.2-.71-.55l-.65-4.9c0-.01 0-.02 0-.03l-.35-2.68c-.47-.17-.88-.47-1.2-.92-1.52-2.1-.76-6.7-.66-7.22.11-1.5-.43-3-1.49-4.14-1.71-1.83-2.27-3.86-2.45-5.22-.02.01-.03.02-.05.04-1.11.83-2.64.88-3.45.84-.34.87-1.16 1.54-2.33 1.88-1.78998.52-3.38998.02-4.71998-.54-1.16-.49-2.64-1.2-3.76-2.41-1.349999-1.47-2.0399992-3.77-1.789999-6 .1-.82.32-1.6.66-2.33 1.099999-2.31 3.029999-3.3 3.669999-3.63 3.62-1.86 7.54998-.54 9.57998.42l.31.15c.64.31 1.3.63 1.95.69.81.07 1.71-.07 2.54-.4.01 0 .09-.03.1-.04.17-.07.42-.21.7-.41 1.92-1.33 4.15-2.03 6.45-2.05 2.3.01 4.53.72 6.44 2.04.29.2.53.34.74.43.01 0 .08.03.09.04.8.31 1.71.46 2.51.38.66-.06 1.32-.38 1.96-.69l.3-.15c2.03-.96 5.96-2.28 9.58-.42.63.33 2.57 1.32 3.67 3.63.36.74.58 1.52.67 2.34.25 2.24-.44 4.53-1.79 6-1.12 1.21-2.6 1.93-3.76 2.42-1.33.56-2.93 1.06-4.72.54-1.17-.34-1.99-1.02-2.33-1.88-.81.04-2.34-.01-3.45-.84-.02-.01-.03-.02-.05-.04-.17 1.34-.73 3.38-2.45 5.21-1.06 1.13-1.6 2.64-1.49 4.13.09.52.86 5.12-.67 7.22-.32.45-.73.75-1.2.92l-.35 2.68v.03l-.21 1.6c0 .02 0 .04-.01.05l-.43 3.24c-.02.33-.29.56-.61.56zm-1.02-9.3h2.06.01c.25-.04.52-.21.74-.52 1.02-1.41.67-4.99.44-6.25 0-.02-.01-.11-.01-.14-.14-1.84.52-3.7 1.83-5.09 2.43-2.59 2.17-5.73 2.16-5.76-.01-.29-.01-.58-.01-.87 0-.02 0-.04 0-.05 0-.71.02-1.39.08-2.04.03-.35.33-.61.68-.59.35.03.61.33.59.68-.05.62-.07 1.26-.07 1.93.08.6.34 1.05.77 1.37.72.54 1.83.62 2.54.59.21-1.58 1.93-2.78 4.08-2.78.49 0 2.15.08 3.13 1.14.04.04.08.09.12.14.82-.06 1.53-.49 1.95-1.19 1.1-1.91.11-4 .07-4.09-.65-1.37-1.85-1.99-2.3-2.22-1.4-.71-3.12-.79-5.06-.24-1.38.39-2.69 1.07-3.92 2.03-.28.22-.68.17-.89-.11-.22-.28-.17-.68.11-.89 1.36-1.06 2.82-1.82 4.36-2.25 2.25-.64 4.29-.53 5.97.33.56.29 2.04 1.05 2.87 2.8.14.28 1.3 2.83-.08 5.22-.6 1-1.52 1.64-2.57 1.83.02.18.03.36.01.55-.03.35-.33.61-.68.59-.35-.03-.61-.33-.59-.68.03-.38-.07-.69-.31-.95-.46-.49-1.32-.7-2-.73.17.12.28.31.28.53 0 .35-.28.64-.64.64-.75 0-1.24.38-1.24.62 0 .25.5.62 1.24.62.76 0 1.24-.37 1.24-.62 0-.35.28-.64.64-.64s.64.29.64.64c0 .75-.55 1.38-1.36 1.69.49-.11 1.03-.29 1.64-.54 1.05-.44 2.37-1.08 3.32-2.1 1.11-1.2 1.67-3.12 1.46-5-.08-.68-.26-1.32-.54-1.92-.91-1.92-2.56-2.77-3.1-3.04-3.13-1.61-6.64-.42-8.45.44l-.29.14c-.71.34-1.51.73-2.4.81-.99.09-2.1-.08-3.12-.48-.37-.15-.7-.33-1.06-.59-1.7-1.17-3.68-1.8-5.72-1.82-2.04.01-4.02.64-5.72 1.82-.36.25-.69.44-.99.56-1.09.43-2.19.6-3.19.51-.89-.08-1.69-.46-2.4-.81l-.3-.14c-1.81-.86-5.31998-2.05-8.44998-.44-.58.27-2.22 1.12-3.14 3.04-.28.6-.47 1.24-.54 1.92-.21 1.88.35 3.79 1.46 5 .95 1.03 2.27 1.67 3.32 2.1.5.21 1.05.42 1.63.54-.81-.31-1.35-.94-1.35-1.69 0-.35.28-.64.64-.64.35 0 .64.29.64.64 0 .25.49.62 1.24.62s1.23998-.38 1.23998-.62c0-.25-.49998-.62-1.23998-.62-.35 0-.64-.29-.64-.64 0-.22.11-.41.28-.53-.68.03-1.54.24-2 .73-.24.25-.34.56-.31.95.03.35-.24.66-.59.68-.36.02-.66-.24-.68-.59-.01-.19-.01-.38.01-.55-1.06-.19-1.97-.82-2.53-1.76-1.44-2.46-.27-5.01-.14-5.29.83-1.75 2.31-2.51 2.86-2.79 1.69-.87 3.73-.98 5.97998-.34 1.53.44 3 1.19 4.35 2.25.28.22.33.62.11.89s-.61.32-.89.11c-1.22-.95-2.54-1.64-3.92-2.03-1.92998-.55-3.64998-.47-5.03998.24-.46.23-1.66.85-2.3 2.21-.04.1-1.03 2.19.04 4.05.45.75 1.17 1.19 1.98 1.25.04-.05.08-.09.12-.14.98-1.06 2.64-1.14 3.12-1.14 2.14998 0 3.86998 1.2 4.07998 2.78.65.03 1.78-.02 2.54-.59.43-.32.68-.78.76-1.38 0-.65-.03-1.3-.07-1.92-.03-.35.24-.66.59-.68.35-.01.66.24.68.59.07.93.09 1.91.06 2.92-.01.07-.27 3.21 2.16 5.81 1.3 1.39 1.97 3.25 1.83 5.1 0 .02-.01.11-.01.13-.22 1.26-.58 4.84.44 6.25.22.3.47.46.79.52h2.13v-8.18c.08-1.16-.3-2.42-1.05-3.51-.44-.65-.77-1-1.12-1.37-.36-.39-.74-.79-1.23-1.52-.99-1.48-1.08-2.79-1.16-3.95-.07-1-.14-1.94-.75-3.01-.65-1.13-1.75-2.06-3.24-2.74-.3-.13-.44-.47-.34-.78s.42-.49.74-.42c3.23.73 6.54 1.09 9.84 1.06 3.05-.03 6.1-.38 9.07-1.06.32-.07.64.11.74.42s-.04.65-.34.78c-1.5.68-2.59 1.6-3.24 2.74-.61 1.06-.68 2.01-.75 3.01-.08 1.16-.17 2.47-1.17 3.95-.48.73-.86 1.13-1.23 1.52-.35.37-.67.72-1.12 1.37-.69 1-1.03 2.27-.94 3.47zm13.55-17.43c-.31.3-.5.65-.5 1.03 0 .66.45 1.07.91 1.32-.47-.34-.76-.83-.76-1.37 0-.36.13-.69.35-.98zm-29.93 0c.22.28.35.62.35.98 0 .54-.29 1.02-.75 1.37.45-.25.9-.66.9-1.32-.01-.38-.19-.73-.5-1.03z" fill="#f6a1ba"/></svg>