<svg fill="none" height="41" viewBox="0 0 30 41" width="30" xmlns="http://www.w3.org/2000/svg"><path d="m20.5997 40.14c-1.49 0-2.91-.49-4.13-.99-2.05-.83-3.86-1.9401-5.12-3.11-1.69003-1.57-5.53003-5.8-5.26003-11.72-.68-.85-3.11-4.18-2.73-7.61v-10.88004c0-.11-.1-3.03-2.510001-3.55-.34-.07-.560001-.41-.490001-.76s.41-.560004.760002-.49c2.72.58 3.49 3.37999 3.51 4.77999v7.77005c.7-.91 1.65-1.61 2.73-2.05.03-.1.06-.21.1-.31-.11.11-.27.17-.44.17-.35 0-.64-.29-.64-.64v-1.13005c0-.94.77-1.7 1.73-1.7.35 0 .64.29.64.64 0 .03 0 .06-.01.09.38-.54.8-1.01999 1.26-1.43999.01003-.01.01003-.01.02003-.02s.02-.02.03-.03c.44-.43.59-1.00001.42-1.51001l-.38-1.14999c-.09003-.27-.07-.57.06-.83s.37-.47001.66-.55001l1.22-.36999c.56-.17 1.17.14 1.37.69l.36 1.09c.11.32.46.50999.8.44999.34-.07.58-.31999.61-.61999l.13-1.27001c.07-.58.58-1.00999 1.16-.94999l1.32.11c.28.02.55.16.74.38.18.22.27.51.24.79l-.15 1.44999c-.02.14.08.28.23.31.18.05.34-.03.4-.17l.56-1.36c.23-.57.88-.84999 1.47-.64999l1.08.39c.3.11.54.33.67.61.13.29.13.6.02.89l-.53 1.3c-.16.38-.06.81.24 1.08.43.39.82.81999 1.15 1.26999h4.04c1.08 0 1.9 1.3 1.9 3.02005 0 1.66-.79 2.8599-1.88 2.8699-.03 0-.08.0001-.17.0101.32.79.42 1.75.44 2.16.12 1.73-.21 3.7599-1.48 4.3-.06.03-.12.05-.19.07.98 2.14 1.49 4.36 1.47 6.48-.01 1.35-.22 2.78-.64 4.28 0 .02-.01.0399-.02.0599-.33 1.17-.77 2.3801-1.34 3.6201-.88 1.93-2.36 4.52-5.02 4.69-.13.04-.27.04-.41.04zm2.11-30.29004c-2.35 0-4.64.55004-6.65 1.59004l-.2.11c-3.17 1.71-5.74 4.55-7.24003 8.01-.47 1.08-1.11 2.5599-1.24 4.59-.36 5.51 3.26003 9.49 4.83003 10.95 1.15 1.07 2.84 2.09 4.74 2.87.88.36 1.89.72 2.91.84l-.67-.58-1.25-.2c-.35-.06-.58-.38-.53-.73.06-.35.39-.59.73-.53l.49.08-.12-.5-.66-1.42c-.15-.32-.01-.7.31-.85s.7-.01.85.31l.2.43.01-.02c.19-.3.58-.38.88-.19.29.19.38.58.19.88l-.49.76.24 1.02.6.52.57-.62-.11-.8c-.05-.35.2-.67.55-.72s.67.2.72.55l.04.28.74-.3c.33-.1301.7.03.83.35 0 0 0 .01.01.01.35-.5601.65-1.15.89-1.68.51-1.12.92-2.2 1.22-3.24l-.25-.53-.55.22-.38.84c-.14.32-.52.46-.84.32s-.46-.52-.32-.84l.28-.62-.31-.24c-.28-.21-.33-.61-.12-.89s.61-.33.89-.12l.42.32.39-.16-.21-.46-2.08-1.48c-.29-.2-.35-.6-.15-.89s.6-.36.89-.15l1.21.86v-.15c0-.3501.28-.64.64-.64s.64.2899.64.64v1.24l.32.69c.13-.75.19-1.48.19-2.17.01-2.11-.55-4.35-1.62-6.49-.07-.07-.22-.17-.39-.29-.01-.01-.02-.02-.04-.03-.19-.13-.4-.27-.55-.38-.35-.23-.67-.45-.8-.56l-.12-.1c-1.06-.89-2.65-2.24-2.36-3.93.01-.09.04-.18.05-.23.09-.34.45-.54.78-.45.34.09.54.43.45.77l-.01.02c0 .01-.02.1-.02.11-.17.98 1.09 2.04 1.93 2.74l.12.1c.11.09.39.28.69.48.22.15.4.2699.55.3699.36.17.66.2201.83.1501.26-.11.59-.65.7-1.8.14-1.62-.26-3.12-.57-3.43-.78.03-1.72.05-2.52.05h-.84c-2.77 0-5.25 1.32-6.77 3.36-.01.31.09 1.39 1.86 2.75.28.21.33.6099.12.89-.21.28-.61.33-.89.12-.17-.13-.33-.26-.47-.39l-.35.79c-.14.32-.52.47-.84.33s-.47-.52-.33-.84l.35-.79-.08-.86c-.11-.16-.2-.3201-.27-.47-.36.8099-.59 1.68-.66 2.6l.22.7.69.97c.21.29.14.68-.15.89-.29.2-.68.14-.89-.15l-.51-.71c-.08.11-.17.22-.27.33l-.54 1.62.46 1.08 2.46 1.02c.33.13.48.51.35.83s-.5.48-.83.34l-1.99-.82-.05.22c-.07.34-.41.56-.75.49s-.56-.41-.49-.75l.16-.7701-.58-1.3499c-.06-.14-.07-.3-.02-.45l.15-.4501-.4.2201c-.31.17-.69.06-.86-.25s-.06-.7001.25-.86l1.74-.96c.34-.37.53-.7501.57-1.1501 0-.01 0-.0099 0-.0199.12-1.72.71-3.3 1.63-4.63.04-.1.1-.19.18-.26 1.76-2.37 4.61-3.89 7.79-3.89h.84c.79 0 1.72-.03 2.49-.05-.21-.46-.32-1.03-.32-1.67 0-.02 0-.04 0-.06-.47-.06-.94-.1-1.41-.12-.04.02-.09.04-.14.05-.2.04-.64.2-.56.7.06.35-.17.67-.52.73-.34.06-.68-.17-.73-.52-.06-.34-.03-.65.06-.91-.94.08-1.88.26-2.8.53-.33.1-.69-.1-.79-.43-.1-.34.1-.69.44-.79 1.53-.44 3.11-.63 4.67-.64.65.01 1.31.06 1.97.14.04-.15.09-.29004.15-.43004h-2.78c-.01 0-.01 0-.02 0h-.85zm-1.09 28.80004.06.05c.62-.22 1.15-.64 1.61-1.16l-1.02.41zm-11.54-26.36c-1.79003 0-3.45003.8-4.46003 2.13-2.06 2.73-.44 6.19.71 8.02.28-1.42.75-2.51 1.13-3.37 1.16-2.67 2.90003-5 5.06003-6.78zm17.86-2.44004c-.16 0-.63.60004-.63 1.74004 0 1.05.41 1.6.63 1.6s.62-.55.62-1.6c0-1.14-.46-1.74004-.62-1.74004zm-17.07-1.68001c-.86.8-1.55003 1.82-2.00003 2.95005.4-.07.8-.1 1.21003-.1h4.18c.32-.21.66-.4 1-.58l.22-.12c2.05-1.07004 4.37-1.66005 6.76-1.73005-.11-.12-.23-.22999-.35-.33999-.69-.63-.91-1.63-.56-2.5l.49-1.2-.88-.28-.52 1.26c-.07.17-.17.31999-.28.44999.1.1.2.2.29.31.23.27.19.67001-.08.90001s-.67.19-.9-.08c-.12-.14-.24-.26-.38-.36-.18-.13-.37-.23001-.57-.30001h-.01c-.75-.22-1.22-.90999-1.14-1.66999l.13-1.24001-.92-.07999-.11 1.07c-.02.15-.05.3-.1.44.16.04.3.09.43.17.31.17.41.55999.24.86999-.18.3-.56.41001-.87.24001-.18-.1-.8-.08001-1.26.00999-.01 0-.02.00001-.03.01001 0 0-.01 0-.02 0-.02 0-.05.01-.07.01h-.01c-.92.17-1.88-.39001-2.19-1.30001l-.31-.92-.88.27001.32.97c.1.31.15.63.14.94.3-.08.61-.14001.92-.15001.36.01.65.25001.67.60001s-.25.65-.6.67c-.23.01-.47.04999-.69.11999-.45.13-.87.37-1.24.7-.01-.02-.02-.02-.03-.01zm-2.42003.95c-.1.06-.21.09001-.33.09001-.25 0-.45.19-.45.43v1.03994c.22-.55.48-1.06995.78-1.55995zm.79-2.36h-.99c-.88 0-1.63-.64999-1.74-1.51999-.42-3.16-1.79-3.69001-1.8-3.70001-.32-.12-.5-.46999-.4-.799988.11-.33.45-.509998.78-.419998.22.06 2.15.749986 2.68 4.739986.03.24.23.41001.48.41001h.99c.35 0 .64.29.64.64s-.28.64999-.64.64999z" fill="#f6a1ba"/></svg>