<svg fill="none" height="31" viewBox="0 0 49 31" width="49" xmlns="http://www.w3.org/2000/svg"><path d="m38.1997 30.8199c-2.18 0-4.08-1.68-4.27-3.82-.09-.98.1701-1.93.72-2.71-2.1399-.39-6.59-1.37-8.74-3.14-1.13-.93-1.51-1.77-1.54-2.7l-2.16-.15c-2.44-.09-4.53-.43-6.36-1.03-3.42-1.13-5.61-3.82-7.72995-6.42-.69-.84996-1.4-1.71996-2.14-2.50996-1.11-1.2-2.1-2.11001-3.11-2.86001-.84-.63-2.400002-1.79999-1.71-3.66999.4-1.080004 1.51-1.630008 3.31-1.630008h31.55995c6.92 0 12.5501 5.510008 12.5501 12.289968v14.53c0 1.33-.7601 2.52-1.9901 3.09-1.2599.59-2.71.4-3.77-.49-.35-.29-.69-.57-1.02-.82-.14.24-.31.47-.5.67-.76.84-1.81 1.32-2.95 1.37-.04-.01-.1 0-.15 0zm-1.9-6.46c-.77.61-1.18 1.55-1.1 2.52.1301 1.53 1.52 2.69 3.11 2.66.8-.03 1.53-.37 2.06-.95.56-.61.85-1.45.8-2.3-.09-1.53-.86-2.67-1.75-3.99l-.0899-.13c-.7901-1.17-1.1601-2.52-1.1601-4.25v-.5c0-1.07-.89-1.93-1.98-1.95-.25.02-.88.16-1.19.56-.19.26-.24.6-.15 1.06.07.34-.15.68-.5.75s-.68-.15-.75-.5c-.18-.89.02-1.52.27-1.92-.72-.08-1.41-.26-2.05-.55-.41-.02-1.29.04-1.8.49-.3.27-.45.64-.46 1.15-.01.35-.31.62-.65.62-.35-.01-.63-.3-.62-.65.02-.87.32-1.57.9-2.08.3-.27.65-.45 1-.57-.47-.41-.89-.88-1.23-1.41l-.62-.95c-.19-.29-.11-.69.19-.88.29-.19.69-.11.88.19l.62.95c.55.84 1.3 1.49 2.18 1.91.04.01.09.03.13.06.7.31 1.47.48 2.27.48h1.57.01c1.8 0 3.27 1.45 3.27 3.22v.5c0 1.46.3001 2.58.94 3.54l.09.13c.9501 1.41 1.85 2.75 1.96 4.63.03.46-.02.91-.1199 1.34.43.32.8799.67 1.3399 1.06.81.68 1.78.61 2.4101.31.7799-.37 1.25-1.09 1.25-1.94v-14.53c0-6.06996-5.0601-11.01996-11.2801-11.01996h-13.04c1.6 1.71 4.22 5.22 3.92 9.68996-.15 2.28-.58 3.94-.9 5.15-.53 2.04-.71 2.73.69 3.89 2.28 1.87 7.83 2.83 9.06 3.02.43-.31.84-.65.92-.79.18-.3.57-.41.87-.23.3.17.41.55.24.85-.2799.5-1.13 1.11-1.51 1.36zm-31.81995-22.92997c-.83 0-1.87.14-2.12.8-.3.82.22 1.41001 1.28 2.22001 1.07.8 2.11 1.76001 3.27 3.01001.76.82 1.49 1.70998 2.19 2.57995 2.08995 2.57 4.06995 5 7.13995 6.01 1.71.57 3.69.88 6.03.97l2.22.16c.08-.38.18-.79.3-1.22.32-1.23.72-2.75.86-4.92.33-4.99997-3.61-8.82996-4.47-9.59996h-16.69995zm19.01995 7.73001c-.32 0-.59-.24-.63-.55999-.21-1.69-1.12-3.16001-1.83-4.10001-.54-.71-1.41-1.13001-2.32-1.13001h-7.46c-.35 0-.64-.29-.64-.64s.28-.63999.64-.63999h7.46c1.3 0 2.55.61 3.33 1.63.82 1.06 1.84 2.74 2.09 4.72.04.35-.2.66999-.55.70999-.03 0-.06.01001-.09.01001z" fill="#f6a1ba"/></svg>