<svg fill="none" height="41" viewBox="0 0 23 41" width="23" xmlns="http://www.w3.org/2000/svg"><path d="m14.9905 40.9699c-.3 0-.57-.21-.63-.52-.1-.57-.09-1.27-.06-2.09.01-.43.02-.9.02-1.4-.03-3.17 1.44-6.13 3.92-7.9 1.2-.85 1.76-2.32 1.39-3.64-.14-.52-.57-2.08-3.68-1.65-.14.02-.28.04-.43.07-.27.05-.55.09-.82.12-.29.07-2.33.61-4.04 1.97-.28.22-.67999.17-.88999-.1-.22-.28-.17-.68.1-.89.99999-.8 2.07999-1.34 2.93999-1.68-.03-.02-.06-.05-.09-.07l-.14-.1c-.35-.26-.8-.41-1.36-.46-.69-.05-1.27999.2-1.50999.32-.04.03-.09.06-.14.08-.1.07-.19.16-.3.24-.36.31-.81.69-1.44.69-.24 0-.49-.05-.73-.09l-.2-.04c-.21-.03-.33-.06-.33-.06-3.08-.43-3.51 1.14-3.65 1.65-.36 1.33.2 2.79 1.39 3.64.38.27.74.57 1.07.89l.04.04c1.81 1.79 2.85 4.3 2.82 6.97l-.03 3.38c0 .35-.32.66-.64.63-.35 0-.63-.29-.63-.64l.03-3.38c.02-2.07-.69-4.02-1.95-5.52l-.02.05c-.1.13-.15.29-.15.45v8.4c0 .35-.28.64-.64.64s-.64-.29-.64-.64v-8.4c0-.43.13-.84.38-1.19l.16-.23c-.17-.15-.35-.28-.53-.42-.77-.55-1.35-1.29-1.69-2.12l-.37.32c-.13.11-.18.28-.12.44l.9 2.35c.1.25.15.53.15.8v8.44c0 .35-.28.64-.64.64s-.64-.29-.64-.64v-8.44c0-.12-.02-.24-.06-.34l-.900002-2.35c-.25-.65-.059999-1.4.470001-1.86l.870001-.74c-.04-.5 0-1.01.14-1.51.39-1.44 1.6-3.07 5.09-2.57.04.01.14.03.32.05l.23.04c.17.03.35.07.52.07.12.03.39-.21.59-.38.16-.14.32-.28.5-.39.73-.71 1.91999-1.58 3.55999-1.83.26-.04.52-.06.78-.07-.17-.08-.34-.17-.5-.28-.44-.28-.92-.42-1.44-.44-.01 0-.1 0-.11 0-.33.02-.64.09-.94.21-.02.01-.04.02-.06.03-.14.06-.27999.14-.40999.23-1.82 1.2-4.31 1.1-6.21-.25-1.68-1.19-2.4-3.04-1.93-4.94.28-1.1.95-2.08 1.9-2.76 2.15-1.54 3.42-4.09996 3.39-6.84996l-.03-3.38001c0-.35.28-.640014.63-.640014h.01c.35 0 .63.280004.64.630004l.03 3.38001c.03 3.17-1.44 6.11997-3.92 7.89997-.7.5-1.2 1.22-1.4 2.03-.49 1.98.83 3.17 1.43 3.59 1.45 1.03 3.41 1.12 4.77.22.19-.12.38-.23.58-.32.85999-.6 2.55999-1.52 4.60999-1.31.35.04.6.35.56.7s-.35.6-.7.56c-.43-.05-.85-.03-1.23.03.18.08.36.18.54.29.16.1.32.18.48.26 1.11.49 2.48.45 3.65-.11 1.04-.5 1.76-1.31 2.03-2.3.15-.53.15-1.1.01-1.64-.21-.8-.7-1.51-1.4-2.01-2.49-1.77-3.95-4.72998-3.92-7.89998l.03-3.37999c0-.35.29-.630008.64-.630008h.01c.35 0 .63.289998.63.639998l-.03 3.38001c-.03 2.76 1.24 5.31997 3.39 6.84997.94.67 1.61 1.64 1.89 2.72.2.75.19 1.55-.01 2.29-.37 1.35-1.33 2.46-2.71 3.11-1.23.59-2.63.72-3.89.41.05.1.08.21.07.33-.02.35-.31.6-.67.6-.32-.02-.65 0-.96.05-.21.03-.42.08-.61.13.48.12.9.31 1.26.59l.15.11c.35.27.71.54 1.04.53h.01c.25-.02.5-.07.76-.11.15-.03.31-.05.46-.07 3.68-.52 4.77 1.39 5.09 2.57.5 1.84-.25 3.85-1.88 5.02-2.15 1.53-3.42 4.1-3.39 6.85 0 .51-.01 1-.02 1.44-.02.75-.04 1.39.04 1.82.06.35-.17.68-.51.74-.06.05-.1.05-.14.05zm6.45-16.13c-.26 0-.51-.16-.6-.42-.17-.48-.6-1.37-1.55-1.96-.38-.24-.81-.41-1.27-.49h-1.83c-.35 0-.64-.29-.64-.64s.28-.64.64-.64h1.79c.17-.06.35-.13.53-.22 1.13-.57 1.76-1.56 2.09-2.3.14-.32.52-.46.84-.32s.46.52.32.84c-.35.78-.98 1.8-2.05 2.54.08.05.17.09.25.15 1.29.8 1.85 1.99 2.08 2.62.12.33-.06.69-.39.81-.07.02-.14.03-.21.03zm-20.479992 0c-.07 0-.139999-.01-.209999-.04-.33-.12-.51-.48-.39-.81.22-.63.790001-1.82 2.080001-2.62.08-.05.16-.1.25-.15-1.07-.74-1.69-1.76-2.050002-2.54-.14-.32 0-.7.32-.84.320002-.15.700002 0 .840002.32.33.73.96 1.73 2.09 2.3.18.09.36.16.53.22h1.79c.35 0 .64.29.64.64s-.28.64-.64.64h-1.83c-.46.09-.89.25-1.27.49-.96.6-1.39 1.49-1.55 1.96-.09.27-.34.43-.600002.43z" fill="#f6a1ba"/></svg>