<svg fill="none" height="41" viewBox="0 0 35 41" width="35" xmlns="http://www.w3.org/2000/svg"><path d="m11.8301 40.2301c-.19 0-.37-.08-.5-.24-.22-.27-.18-.67.1-.89 1.16-.93.74-3.33.43-4.38-1.75-1.6-3.28003-3.45-3.80003-5.36-.54-1.99-.86-4.06-.92-5.99l-.18-2.3c-.03-.35.23001-.66.58001-.68.36 0 .65999.24.67999.58l.18 2.33c.06001 1.86.36001 3.83.88001 5.72.46 1.7 1.93002 3.4 3.51002 4.83.02.02.05.04.07.06 1.1.99 2.24 1.83 3.12 2.44.98.67 2.21.67 3.19 0 .85-.58 1.66-1.2 2.41-1.82l.3-.26c.38-.33.77-.67 1.13-1.03 1.28-1.26 2.25-2.75 2.88-4.42.5-1.32.85-2.51 1.06-3.63.2-1.05.37-2.27.07-3.35-.17-.59-.41-1.1-.71-1.54v.04c-.03.35-.33.61-.68.59-.85-.06-1.61-.22-2.34-.38-.33-.07-.67-.14-1.01-.2-.62-.11-1.26.04-1.76.4-.36.26-.45.37-.46.38-.21.28-.61.33-.89.11s-.33-.62-.11-.89c.14-.18.37-.38.72-.63.78-.56 1.77-.79 2.73-.62.36.06.7.14 1.05.21.72.15 1.4.3 2.17.35.03 0 .06.01.08.01-1-1.06-2.39-1.72-3.83-2.39-1.61-.75-3.27-1.53-4.53-2.92-.24-.26-.22-.66.04-.9s.66-.22.9.04c1.09 1.2 2.64 1.92 4.13 2.63 2.39 1.12 4.86 2.28 5.74 5.37.38 1.33.19 2.74-.04 3.94-.23 1.19-.6 2.45-1.12 3.84-.7 1.85-1.77 3.49-3.17 4.88-.16.15-.31.3-.48.45-.31.97-.81 3.53.4 4.5.27.22.32.62.1.89s-.62.32-.89.1c-1.26-1.01-1.34-2.79-1.18-4.14-.63.5-1.28.98-1.96 1.45-1.43.98-3.2.98-4.63 0-.6-.41-1.23-.87-1.86-1.37.15 1.34.04 3.07-1.19 4.06-.13.08-.28.13-.41.13zm-4.03003-.73c-1.43 0-2.88999-.38-4.03999-1.07-1.9-1.14-2.19-3.5-2.43-5.4-.04-.36-.09001-.71-.14001-1.04-.18-1.12-.329995-2.22-.449995-3.29-.5-4.53-.9-9.34.23-13.91 1.070005-4.3 3.919995-7.80003 6.669995-11.18003.57-.7 1.43001-1.64999 2.84003-2.42999 1.09-.610004 2.38-.889999 3.84-.869999.47.01.93.029997 1.4.059997l.2.01001c.38.02.77.019989 1.16.019989.47 0 .85.000011 1.24-.019989l.2-.01001c.47-.02.93-.039987 1.4-.049987 1.45-.05 2.75.259995 3.85.869999 1.41.78 2.27 1.72999 2.79 2.36999 2.8 3.44 5.65 6.94002 6.72 11.24002 1.14 4.57.74 9.38.23 13.91-.12 1.09-.27 2.2-.45 3.29-.05.33-.1.68-.14 1.04-.23 1.89-.53 4.25-2.43 5.4-1.54.93-3.63 1.29-5.47.93-.35-.07-.57-.4-.51-.74.07-.34.4-.58.74-.51 1.54.29 3.29 0 4.57-.77 1.37-.83 1.61-2.76 1.82-4.46.05-.38.09-.75.15-1.09.17-1.07.32-2.16.44-3.23.49-4.42.88-9.1-.2-13.46-1-4.03-3.76-7.41002-6.42-10.68002-.54-.67-1.27-1.45-2.47-2.12-.89-.5-1.96-.74999-3.2-.70999-.45.01-.91.02999-1.37.04999l-.2.01001c-.41.02-.82.01999-1.23.01999-.47.01-.88.00001-1.28-.01999l-.2-.01001c-.46-.02-.91-.03999-1.37-.04999-1.23-.02-2.31.20999-3.19.70999-1.21002.67-1.93002 1.46001-2.43002 2.07001-2.71 3.33-5.47001 6.71001-6.47001 10.74001-1.08 4.37-.69999 9.05-.19999 13.46.12 1.05.26999 2.14.43999 3.23.06.34.10001.71.15001 1.09.21 1.71.45 3.64 1.82 4.47 1.27999.77 3.02999 1.07 4.56999.77.35001-.07.68.16.74.51.07.35-.16.68-.51.74-.45.07-.93.11-1.41.11zm10.35003-5.4h-.84c-.06 0-.13 0-.19-.01-.28-.02-.56-.1-.82-.23-.04-.02-.07-.04-.1-.06l-.51-.39-.31-.16c-.3-.15-.42-.5-.31-.8-.12.01-.24.01-.35-.01-.35-.05-.59-.37-.55-.71s.37-.6.71-.55c.06.01.1 0 .11 0 .13-.03.2-.1.21-.1l.12-.15c.3-.38.62-.61.98-.72.07-.02.19-.05.38-.07.39-.03.64.05.82.1.11.04.16.04.24.05.08 0 .12-.01.22-.04.18-.05.42-.13.82-.09.17.02.32.05.47.1.36.14.67.39.89.73.05.08.15.15.27.19.32-.08.66.12.76.45.1.34-.1.69-.44.79l-.15.04c-.07.02-.14.02-.21.02.11.29-.01.62-.29.77l-.33.18-.4.32c-.31.19-.58.28-.86.33-.1.01-.22.02-.34.02zm-1.23-1.36c.1.04.21.07.32.08h.92c.05 0 .09 0 .14-.01.13-.02.25-.06.35-.12l.41-.33.41-.24c.01 0 .02-.01.02-.01-.16-.12-.29-.26-.4-.42-.08-.12-.18-.2-.29-.24-.03-.01-.07-.02-.13-.03-.14-.01-.2 0-.33.04-.14.04-.34.1-.62.1-.27 0-.46-.06-.6-.11-.13-.04-.19-.06-.34-.05-.07 0-.1.01-.11.02-.11.03-.21.1-.29.21l-.17.22c-.06.08-.15.17-.26.25l.36.18c.03.02.07.04.1.06zm-10.59002-3.53c-.22 0-.43001-.11-.55-.31-1.16-1.95-1.49001-4.71-.84001-7.03.87-3.09 3.34001-4.25 5.74003-5.37 1.49-.7 3.04-1.42 4.13-2.62 1.11-1.23 1.63-2.53 1.52-3.88-.21-2.66002-2.72-4.71003-2.75-4.73003-.27-.22-.32-.61998-.1-.88998s.62-.32001.89-.10001c.12.1 2.96 2.40002 3.22 5.61002.14 1.72-.48 3.35-1.84 4.85-1.26 1.39-2.92 2.17-4.53 2.92-2.23003 1.04-4.34002 2.03-5.05002 4.56-.56 2-.29 4.37.7 6.03.18.3.08.69-.22001.87-.09999.06-.20999.09-.31999.09zm11.43002-.46c-.57 0-1.02-.25-1.19-.35-.52-.3-1.12-.88-1.17-1.58-.03-.34.09-.53.3-.89.08-.14.19-.32.33-.58.09-.18.27-1.23-.01-2.88-.17-1.02-.32-1.21-.43-1.35-.02-.02-.11-.13-.46-.38-.5-.36-1.15-.51-1.76-.4-.34.06-.67.13-1.01.2-.57.12-1.35.27-2.32.38-.34002.03-.66002-.21-.70002-.56s.21999-.66.55999-.7c.91003-.1 1.65003-.24 2.19003-.36.35-.07.69-.15 1.05-.21.96-.17 1.95.05 2.73.62.35.25.58.45.72.63.29.37.5.8.69 1.92.27 1.57.21 3.09-.13 3.71-.15.27-.26.46-.34.6-.05.09-.09.15-.11.2.05.14.26.37.5.51.02.01.06.04.08.06.04.02.34.19.63.13.1-.02.17-.05.3-.13.36-.24.69-.49.69-.5.28-.22.68-.17.89.11.22.28.16.68-.11.89 0 0-.37.29-.77.55-.25.17-.47.26-.74.32-.15.03-.29.04-.41.04zm5.73-4.29c-.25 0-.49-.15-.59-.4 0-.01-.05-.05-.14-.08-.03.01-.06.02-.1.02-.47.1-.85.07-1.01.05-.24-.02-.42-.06-1.18-.27l-.62-.17c-.34-.09-.54-.44-.45-.78s.44-.53.78-.45l.62.17c.72.2.83.22.95.23s.35.03.62-.03l.12-.03c.02-.01.05-.02.08-.02.2-.07.39-.18.57-.33.19-.15.56-.38 1.06-.36.35.01.69.13.96.33.28.21.34.61.13.89s-.61.34-.89.13c-.04-.03-.12-.08-.23-.08 0 0 0 0-.01 0-.1 0-.17.04-.21.06.05.07.09.15.12.23.13.33-.03.7-.36.83-.06.05-.14.06-.22.06zm-12.16 0c-.08 0-.16-.01-.24-.05-.33-.13-.49-.5-.36-.83.03-.08.07-.16.12-.23-.01-.01-.08-.04-.22-.06-.11 0-.2.06-.22.08-.28.21-.68002.16-.89002-.12s-.16001-.68.11999-.89c.16-.12.49003-.32.96003-.33.52-.01.88.21 1.05.35.19.16.38.27.59.34.03.01.05.01.08.02l.12.03c.27.06.5.04.62.03.13-.01.24-.03.96-.23l.62-.17c.33-.09.69.11.78.44.09.34-.11.69-.45.78l-.62.17c-.76.21-.94.25-1.18.27-.16.02-.54.05-1-.05-.03-.01-.06-.01-.1-.02-.1.03-.14.07-.14.08-.11.24-.35.39-.6.39zm-4.24002-9.84c-.25 0-.49-.15-.59-.4-.13-.33.03-.7.36-.83l.09999-.04c1.82-.71 3.69003-1.45 4.50003-3.17.52-1.10002.51-2.59002-.01-4.43002-.1-.34.1-.69001.44-.79001.33-.1.69.10001.79.44001.62 2.17.6 3.91-.06 5.32002-1.02 2.18-3.23002 3.05-5.19002 3.81l-.1.04c-.08.03-.16.05-.24.05zm20.01002-2.52c-.11 0-.22-.03-.32-.09-1.3-.76-2.28-1.86-3.22-2.93003-.55-.62-1.06-1.2-1.64-1.72-2.04-1.85-4.75-3.06997-7.62-3.43997-.35-.04-.59-.36003-.55-.71003.05-.35.37-.58998.71-.54998 3.13.4 6.08 1.74001 8.32 3.76001.63.57 1.19 1.20997 1.74 1.81997.92 1.04 1.78 2.02003 2.91 2.67003.3.18.41.57.23.87-.13.21-.34.32-.56.32z" fill="#f6a1ba"/></svg>