<svg fill="none" height="71" viewBox="0 0 76 71" width="76" xmlns="http://www.w3.org/2000/svg"><path d="m41.9734 69.9165c-20.58 2.89-37.79999-4.48-40.64999-24.77-2.85-20.28 13.39999-32.68 33.97999-35.56999 20.57-2.89 37.14 1.00999 39.99 21.28999s-12.75 36.16-33.32 39.05z" fill="#feeff1"/><g fill="#f6a1ba"><path d="m30.0038 24.6865c.52 0 1.01-.16 1.44-.46.89-.63 1.79-.92 2.86-.92.15 0 .3.01.46.02.09.01.19.01.28.01 1.28 0 2.45-.65 3.12-1.73.82-1.33 1.16-2.83 1.1-4.86-.01-.4-.23-.77-.59-.99l-9.16-5.54c-.1-.06-.22-.1-.34-.1-.24 0-.45.12-.58.32-.19.32-.09.73.23.92l9.11 5.51v.14c.02 1.64-.26 2.84-.9 3.88-.43.69-1.17 1.1-1.97 1.1-.06 0-.13 0-.19-.01-.19-.01-.39-.02-.57-.02-1.34 0-2.49.37-3.61 1.17-.2.14-.43.21-.66.21-.1 0-.19-.01-.29-.04l-3.07-.78.03-.23c.26-2.23.83-4.35 1.85-6.87.07-.17.07-.35-.01-.52-.07-.16-.2-.29-.36-.36-.08-.03-.17-.05-.26-.05-.27 0-.51.16-.62.42-1.14 2.81-1.76 5.2-2 7.75-.05.49.28.94.77 1.07l3.33.85c.2.09.4.11.6.11z"/><path d="m33.2137 55.5466v-15.99c0-.26-.04-.52-.11-.78l-1.86-6.27.28-.05c5.26-1 8.59-2.83 12.29-6.78 1.48-1.57 2.34-3.63 2.44-5.78.04-.86.07-1.74.09-2.49.04-1.49-.79-2.88-2.12-3.55l-15.17-7.61003c-.18-.09-.38-.14-.58-.14-.46 0-.9.24-1.13.64l-.88 1.45c-.19.32-.09.73.23.92.1.06.22.1.34.1.23 0 .45-.12.57-.32l.86-1.44 15.16 7.61003c.87.44 1.41 1.34 1.38 2.31-.02.74-.05 1.61-.09 2.46-.09 1.84-.82 3.58-2.08 4.92-3.65 3.89-6.85 5.6-12.22 6.51-.09.02-.18.02-.27.02-.19 0-.37-.03-.54-.1-3.98-1.52-6.02-2.74-8.2-4.34-.59-.43-.87-1.17-.71-1.89 1.44-6.35 2.22-8.82 5.87-13.77.22-.3.16-.72-.14-.94-.11-.08-.25-.13-.4-.13-.22 0-.41.1-.54.27-3.79 5.13-4.64 7.84-6.1 14.27-.28 1.24.2 2.52 1.22 3.26 2.27 1.66 4.39 2.93 8.52 4.51.13.05.26.08.4.11l.15.03 1.95 6.57c.04.13.06.26.06.39v16.06"/><path d="m36.6835 55.7165 1.86-15.76c.07-.45.07-.91.02-1.36l-.62-5.13c-.04-.34-.32-.59-.66-.59-.26.03-.42.12-.53.26s-.16.32-.14.49l.61 5.12c.04.34.04.68-.01 1.01l-1.86 15.79"/><path d="m55.1635 29.8265c.19 0 .37-.08.5-.23l1.13-1.27c.45-.51.44-1.29-.04-1.79l-8.07-8.34c-.02.51-.04 1.06-.06 1.59 0 .08-.02.25-.02.25l7.18 7.41-1.11 1.25c-.12.13-.18.31-.17.49s.09.34.22.46c.12.12.28.18.44.18z"/><path d="m52.3837 28.4565c.19 0 .37-.08.5-.23.24-.28.22-.7-.06-.95l-4.91-4.33c-.18.43-.38.85-.61 1.24l4.63 4.09c.13.12.29.18.45.18z"/><path d="m43.994 1.98651c-1.18 0-1.93 1.01-2.24 1.43-1.95 2.63-3.6 4-4.9 4.1-.38.03-.72-.05-1.05-.22 1.57-.47 2.71-1.84 4.25-4.21.72-1.11 1.45-1.71 2.19-1.78.56-.06 1.16.16 1.85.69-.04 0-.07-.01-.1-.01zm7.12 3.65c-.67 1.2-2.25 2.19-3.91 2.45-.89.14-2.55.17-3.94-1.07.25-1.1.75-2.42 1.11-3.05.16-.28.37-.52.61-.71.19-.15.41-.26.64-.35 1.04-.36 2.52-.05 3.79.78.86.58 1.47 1.29 1.7 1.95zm-.4 2.33c-.45.96-1.23 2.29999-1.87 2.99999-1.39 1.52-3.02.86-3.87.34-.9-.56-1.67-1.72999-1.84-2.75999 1.22.78 2.69 1.07 4.27.83 1.22-.19 2.38-.7 3.31-1.41zm-3.85 5.23999c1.09 0 2.12-.46 2.94-1.36.97-1.06 2.08-3.14999 2.43-4.12999.22-.61.3-1.2.26-1.74-.09-1.18-.97-2.44-2.36-3.36-1.47-.97-3.17-1.34-4.53-1.03-.86-.820001-2.09-1.720001-3.5-1.570001-1.14.12-2.2.91-3.14 2.370001-2.15 3.31-3.11 3.86-4.74 3.81l-1.64-.06 1.16 1.17c.53.53 1.62 1.64 3.21 1.52 1.72-.12 3.64-1.63 5.85-4.62.03-.05.07-.09.1-.13-.54 1.23-1.16 3.2-1.08 4.33.11 1.5 1.15 3.18999 2.48 4.00999.85.53 1.73.79 2.56.79z"/></g></svg>