<svg fill="none" height="57" viewBox="0 0 66 57" width="66" xmlns="http://www.w3.org/2000/svg"><path d="m36.2674 56.1408c-17.71 2.49-32.54001-3.86-34.99001-21.32s11.54001-28.14 29.25001-30.63 31.98.87 34.43 18.33c2.46 17.46-10.97 31.13-28.69 33.62z" fill="#ebe5f2"/><path d="m19.447 44.1708c-2.06 0-3.1-1.76-3.19-3.42-.05-.94.2-1.92.74-2.68l-3.25.13-.54-3.13 3.71-1.14 3.07-4.21 1.53-8.66c.73-2.35 1.67-3.52 2.83-4.13.8-1.92.5-3.14.17-4.43-.11-.45-.23-.92-.3-1.41-.29-2.09-.81-5.83.42-8.21.61-1.2 2.03-2.330004 3.54-2.160004 2.54-1.13 5.35-.92 7.39.550004 2.04 1.47 3.01 4 2.66 6.94-.09.55-.19 1.06-.29 1.56-.54 2.83-1.01 5.28.25 7.4.96.66 1.76 1.79 2.39 3.81l1.55 8.74 3.07 4.21 3.71 1.14-.53 3.13-3.54-.14c.56.76.81 1.74.76 2.69-.09 1.69-1.18 3.49-3.33 3.42h-22.71c-.04 0-.07 0-.11 0zm.97-6.21c-.27 0-.55 0-.84.01-1.49.12-2.11 1.49-2.04 2.7.06 1.11.68 2.21 1.93 2.21h.07 15.62c-.99-.46-1.92-.96-2.85-1.45-3.19-1.71-6.48-3.47-11.89-3.47zm21.87 4.92c1.33.06 1.96-1.08 2.02-2.2.07-1.22-.55-2.58-2.07-2.7-1.53-.04-2.9.25-4.23.54-.36.08-.71.15-1.04.22-1.57.3-3.25.56-6.11.49.7.35 1.38.71 2.06 1.08 1.92 1.03 3.73 2 5.93 2.59h3.44zm-15.09-5.19c4.84.46 7.15.21 9.11-.15-.4-.8-.64-1.62-.7-2.43l.27-7.12.07-.13c.29-.55.51-1.1.65-1.64.16-.62.15-.64-.01-1.28l-.04-.14-.99-3.21 1.23-.38 1.04 3.41c.2.78.24 1.02.01 1.92-.01.04-.02.08-.03.13l1.31 4.97 4.84 5.1 3.34.13.15-.9-3.04-.94-3.5-4.8-1.58-8.95c-1.1-3.49-2.44-3.61-5.37-3.87-1.98-.14-3.84-.14-5.83 0-2.92.26-4.25.38-5.38 3.95l-1.56 8.87-3.5 4.8-3.04.94.15.9 3.34-.13 4.84-5.1 1.19-4.49c-.07-.2-.13-.4-.18-.6-.23-.9-.19-1.14.01-1.92l.03-.13 1.01-3.27 1.23.38-1 3.33c-.16.64-.17.66-.01 1.28.14.54.36 1.09.65 1.64l.07.13.27 7.05c-.05.78-.24 1.52-.57 2.23.52.12 1.03.26 1.52.42zm9.93-8.58-.23 5.98c.05.69.3 1.44.73 2.19.04-.01.07-.02.11-.02 1.29-.28 2.74-.6 4.39-.57l-4.17-4.4zm-16.71 7.56c1.46 0 2.76.12 3.96.32.34-.66.53-1.32.58-1.98l-.19-5.01-.6 2.28-4.17 4.4c.14-.01.28-.01.42-.01zm10.65-20.65c.99 0 1.98.04 3.01.11.87.08 1.66.15 2.39.32-.56-1.75-.38-3.6-.04-5.53-.18-.35-.37-.68-.57-.98-.35 2.18-1.21 3.61-2.57 4.26-1.49.75-2.92.74-4.25-.02-1.82-1.16-2.7-3.4-2.7-6.86h1.29c0 2.99.68 4.88 2.08 5.76.93.54 1.89.53 3.01-.03 1.16-.56 1.82-2.03 1.98-4.39-.72-.60001-1.58-1.04-2.67-1.37l-.39-.12c-.96-.28-1.72-.5-2.65-1.52-.44-.48-.8-1.07-1.07-1.74l1.19-.48c.22.54.49.98.83 1.35.69.75 1.15.88 2.06 1.15l.41.12c1.94.59 3.32 1.51 4.37 2.96.06-.33.12-.66.18-.99.29-2.46-.47-4.5-2.14-5.71-1.71-1.23-4.11-1.360004-6.27-.35l-.19.09-.2-.04c-.89-.16-1.94.62-2.37 1.45-1.04 2.02-.56 5.49-.3 7.36.07.51.17.92.28 1.36.29 1.16.62 2.45.12 4.21.66-.13 1.37-.2 2.14-.26 1.04-.07 2.04-.11 3.04-.11z" fill="#9e79b6"/></svg>