<svg fill="none" height="84" viewBox="0 0 106 84" width="106" xmlns="http://www.w3.org/2000/svg"><path d="m61.5399 82.2367c-26.98 3.79-49.62-6.1999-53.44999-33.48-3.83-27.27 17.43999-43.86995 44.41999-47.66995 26.98-3.79 48.7401 1.53 52.5801 28.80995 3.83 27.2801-16.5701 48.55-43.5501 52.34z" fill="#ebe5f2"/><g fill="#9e79b6"><path d="m53.7402 35.6368c-.44 0-.79-.36-.79-.79v-4.28h-21.96v4.28c0 .44-.36.79-.79.79s-.79-.36-.79-.79v-5.87h25.14v5.87c-.01.44-.37.79-.81.79z"/><path d="m52.0103 75.7368h-18.38l-1.7-9.49c-.08-.43.21-.85.64-.92.43-.08.85.21.92.64l1.46 8.18h15.71l5.49-32.11c.07-.43.48-.72.92-.65.43.07.72.48.65.92z"/><path d="m29.6498 48.6668c-.38 0-.72-.27-.78-.66l-.96-5.7c-.07-.43.22-.84.65-.92.43-.07.84.22.92.65l.96 5.7c.07.43-.22.84-.65.92-.05.01-.09.01-.14.01z"/><path d="m25.6095 40.8968h33.19v-5.1h-33.19zm34.78 1.59h-36.37v-8.28h36.37z"/><path d="m17.42 43.3368c-8.73 0-15.83 7.1-15.83 15.83s7.1 15.83 15.83 15.83 15.83-7.1 15.83-15.83-7.1-15.83-15.83-15.83zm0 33.25c-9.61 0-17.42-7.81-17.42-17.42s7.81-17.42 17.42-17.42 17.42 7.81 17.42 17.42-7.81 17.42-17.42 17.42z"/><path d="m17.4202 54.0368c-2.83 0-5.13 2.3-5.13 5.13s2.3 5.13 5.13 5.13 5.13-2.3 5.13-5.13-2.3-5.13-5.13-5.13zm0 11.85c-3.71 0-6.72-3.02-6.72-6.72 0-3.71 3.02-6.72 6.72-6.72 3.71 0 6.72 3.02 6.72 6.72 0 3.71-3.01 6.72-6.72 6.72z"/><path d="m11.0396 70.9468c-1.72999 0-3.13999-1.41-3.13999-3.14v-1.06c-.32.14-.68.22-1.06.22-1.46 0-2.65-1.19-2.65-2.64v-1.66c-.04-.05-.09-.11-.13-.16-1.93-2.67-2.96-5.79-2.96-9.02 0-.44.36-.79.79-.79s.79.36.79.79c0 2.89.92 5.69 2.65 8.09.05.07.08.09.08.09l.35.24v2.43c0 .58.47 1.05 1.06 1.05.58 0 1.06-.47 1.06-1.05h1.59v3.48c0 .85.69999 1.55 1.54999 1.55.77 0 1.43-.57 1.54-1.33l.13-.92.89.27c1.63.5 3.33.75 5.06.75 6.21 0 11.9-3.35 14.51-8.52.2-.39.67-.55 1.07-.35.39.2.55.67.35 1.07-2.87 5.71-9.12 9.4-15.93 9.4-1.62 0-3.22-.2-4.76-.61-.48 1.07-1.59 1.82-2.84 1.82z"/><path d="m9.51953 54.1569c0 .69-.56 1.25-1.25 1.25s-1.25-.56-1.25-1.25.56-1.25 1.25-1.25c.69-.01 1.25.56 1.25 1.25z"/><path d="m14.4297 46.7368c0 .69-.56 1.25-1.25 1.25s-1.25-.56-1.25-1.25.56-1.25 1.25-1.25c.69-.01 1.25.55 1.25 1.25z"/><path d="m20.9902 49.8168c0 .69-.56 1.25-1.25 1.25s-1.25-.56-1.25-1.25.56-1.25 1.25-1.25 1.25.56 1.25 1.25z"/><path d="m29.9502 52.4167c0 .69-.56 1.25-1.25 1.25s-1.25-.56-1.25-1.25.56-1.25 1.25-1.25 1.25.56 1.25 1.25z"/><path d="m27.9297 60.8969c0 .69-.56 1.25-1.25 1.25s-1.25-.56-1.25-1.25.56-1.25 1.25-1.25c.68 0 1.25.56 1.25 1.25z"/><path d="m44.4802 32.9768h-5.02c-.44 0-.8-.3599-.8-.7899 0-.44.36-.79.8-.79h5.02c.44 0 .79.36.79.79 0 .44-.35.7899-.79.7899z"/><path d="m52.9104 66.8268h-10.22c-.44 0-.79-.36-.79-.79s.36-.79.79-.79h10.22c.44 0 .79.36.79.79s-.35.79-.79.79z"/><path d="m51.9704 71.9468h-9.28c-.44 0-.79-.36-.79-.79 0-.44.36-.79.79-.79h9.28c.44 0 .79.36.79.79s-.35.79-.79.79z"/><path d="m53.8496 61.7068h-11.16c-.44 0-.8-.36-.8-.79 0-.44.36-.79.8-.79h11.16c.44 0 .79.36.79.79 0 .44-.35.79-.79.79z"/><path d="m54.3204 56.3768h-11.63c-.44 0-.79-.36-.79-.79 0-.44.36-.79.79-.79h11.63c.44 0 .79.36.79.79s-.35.79-.79.79z"/><path d="m56.1996 46.1468h-13.51c-.44 0-.8-.36-.8-.79 0-.44.36-.79.8-.79h13.51c.44 0 .7901.36.7901.79.01.43-.3501.79-.7901.79z"/><path d="m55.0304 51.2568h-12.34c-.44 0-.79-.36-.79-.79 0-.44.36-.79.79-.79h12.34c.44 0 .79.36.79.79 0 .44-.36.79-.79.79z"/></g></svg>