<svg fill="none" height="150" viewBox="0 0 339 150" width="339" xmlns="http://www.w3.org/2000/svg"><path d="m162.02 149.011c-26.98 3.79-49.62-6.2-53.45-33.48-3.83-27.2802 17.43-43.8802 44.42-47.6702s48.74 1.53 52.58 28.81c3.83 27.2802-16.57 48.5502-43.55 52.3402z" fill="#fdeaee"/><path d="m92.8199 135.391c45.5101-8.03 83.3001-51.5302 68.3201-95.2502-14.28-41.67004-53.02-43.95005-97.9101-37.30005-45.71 6.78001-69.72997 39.57005-61.69997 85.08005 8.02 45.5202 45.76997 55.5002 91.28997 47.4702z" fill="#f6a1ba"/><g fill="#9e79b6"><path d="m172.15 81.8907c-.55 0-1.09.1-1.61.29-2.5.91-3.81 3.74-2.92 6.31 1.41 4.08 2.16 8.82 2.16 13.7103 0 4.89-.75 9.63-2.16 13.71-.43 1.24-.36 2.59.19 3.78s1.52 2.09 2.73 2.54c.52.19 1.06.29 1.61.29 2.03 0 3.85-1.32 4.53-3.29 1.78-5.13 2.72-11.02 2.72-17.02 0-6.0003-.94-11.8903-2.72-17.0203-.67-1.98-2.5-3.3-4.53-3.3zm0 42.0703c-.71 0-1.41-.12-2.09-.37-1.57-.57-2.82-1.74-3.53-3.28s-.8-3.28-.24-4.88c1.36-3.93 2.08-8.5 2.08-13.23 0-4.7303-.72-9.3003-2.08-13.2303-1.15-3.32.54-6.98 3.78-8.16.67-.25 1.38-.37 2.09-.37 2.63 0 4.98 1.71 5.86 4.25 1.83 5.28 2.8 11.34 2.8 17.5103 0 6.17-.97 12.22-2.8 17.51-.89 2.54-3.24 4.25-5.87 4.25z"/><path d="m176.96 120.731c-.18 0-.36-.07-.5-.21l-2.76-2.83c-.28-.28-.28-.74 0-1.02.27-.28.72-.28 1 0l2.76 2.83c.27.28.27.74 0 1.02-.14.14-.32.21-.5.21z"/><path d="m178.72 114.701c-.18 0-.36-.07-.5-.21l-3.76-3.86c-.27-.28-.27-.74 0-1.02.28-.28.72-.28 1 0l3.76 3.86c.27.28.27.74 0 1.02-.14.14-.32.21-.5.21z"/><path d="m179.83 108.011c-.18 0-.36-.07-.5-.21l-4.11-4.22c-.28-.28-.28-.74 0-1.02.27-.28.72-.28 1 0l4.11 4.22c.27.28.27.74 0 1.02-.14.14-.32.21-.5.21z"/><path d="m179.6 99.9307c-.18 0-.36-.07-.5-.21l-4.05-4.16c-.27-.28-.27-.74 0-1.02.28-.28.72-.28 1 0l4.05 4.16c.27.28.27.74 0 1.02-.14.14-.32.21-.5.21z"/><path d="m178.48 90.9507c-.18 0-.36-.07-.5-.21l-3.35-3.44c-.27-.28-.27-.74 0-1.02.28-.28.72-.28 1 0l3.35 3.44c.27.28.27.74 0 1.02-.14.14-.32.21-.5.21z"/><path d="m166.3 81.6407c-.21 0-.43-.1-.56-.29-.23-.32-.17-.77.14-1.01l2.35-1.81c.31-.24.75-.18.99.14.23.32.17.77-.14 1.01l-2.35 1.81c-.13.1-.28.15-.43.15z"/><path d="m168.65 126.001c-.15 0-.29-.05-.42-.14l-2.35-1.81c-.31-.24-.37-.69-.14-1.01s.67-.38.99-.14l2.35 1.81c.31.24.37.69.14 1.01-.14.18-.35.28-.57.28z"/><path d="m188.82 81.8907c-.55 0-1.09.1-1.61.29-2.5.91-3.81 3.74-2.92 6.31 1.41 4.08 2.16 8.82 2.16 13.7103 0 4.89-.75 9.63-2.16 13.71-.43 1.24-.36 2.59.19 3.78s1.52 2.09 2.73 2.54c.52.19 1.06.29 1.61.29 2.03 0 3.85-1.32 4.53-3.29 1.78-5.13 2.72-11.02 2.72-17.02 0-6.0003-.94-11.8903-2.72-17.0203-.67-1.98-2.5-3.3-4.53-3.3zm0 42.0703c-.71 0-1.41-.12-2.09-.37-1.57-.57-2.82-1.74-3.53-3.28s-.8-3.28-.24-4.88c1.36-3.93 2.08-8.5 2.08-13.23 0-4.7303-.72-9.3003-2.08-13.2303-1.15-3.32.54-6.98 3.78-8.16.67-.25 1.38-.37 2.09-.37 2.63 0 4.98 1.71 5.86 4.25 1.83 5.28 2.8 11.34 2.8 17.5103 0 6.17-.97 12.22-2.8 17.51-.89 2.54-3.24 4.25-5.87 4.25z"/><path d="m193.63 120.731c-.18 0-.36-.07-.5-.21l-2.76-2.83c-.28-.28-.28-.74 0-1.02.27-.28.72-.28 1 0l2.76 2.83c.27.28.27.74 0 1.02-.14.14-.32.21-.5.21z"/><path d="m195.39 114.701c-.18 0-.36-.07-.5-.21l-3.76-3.86c-.27-.28-.27-.74 0-1.02.28-.28.72-.28 1 0l3.76 3.86c.27.28.27.74 0 1.02-.14.14-.32.21-.5.21z"/><path d="m196.5 108.011c-.18 0-.36-.07-.5-.21l-4.11-4.22c-.28-.28-.28-.74 0-1.02.27-.28.72-.28 1 0l4.11 4.22c.27.28.27.74 0 1.02-.14.14-.32.21-.5.21z"/><path d="m196.27 99.9307c-.18 0-.36-.07-.5-.21l-4.05-4.16c-.27-.28-.27-.74 0-1.02.28-.28.72-.28 1 0l4.05 4.16c.27.28.27.74 0 1.02-.14.14-.32.21-.5.21z"/><path d="m195.15 90.9507c-.18 0-.36-.07-.5-.21l-3.35-3.44c-.27-.28-.27-.74 0-1.02.28-.28.72-.28 1 0l3.35 3.44c.27.28.27.74 0 1.02-.14.14-.32.21-.5.21z"/><path d="m182.97 81.6407c-.21 0-.43-.1-.56-.29-.23-.32-.17-.77.14-1.01l2.35-1.81c.31-.24.75-.18.99.14.23.32.17.77-.14 1.01l-2.35 1.81c-.13.1-.28.15-.43.15z"/><path d="m185.32 126.001c-.15 0-.29-.05-.42-.14l-2.35-1.81c-.31-.24-.37-.69-.14-1.01s.67-.38.99-.14l2.35 1.81c.31.24.37.69.14 1.01-.14.18-.36.28-.57.28z"/><path d="m205.49 81.8907c-.55 0-1.09.1-1.61.29-2.5.91-3.81 3.74-2.92 6.31 1.41 4.08 2.16 8.82 2.16 13.7103 0 4.89-.75 9.63-2.16 13.71-.43 1.24-.36 2.59.19 3.78s1.52 2.09 2.73 2.54c.52.19 1.06.29 1.61.29 2.03 0 3.85-1.32 4.53-3.29 1.78-5.13 2.72-11.02 2.72-17.02 0-6.0003-.94-11.8903-2.72-17.0203-.67-1.98-2.5-3.3-4.53-3.3zm0 42.0703c-.71 0-1.41-.12-2.09-.37-1.57-.57-2.82-1.74-3.53-3.28s-.8-3.28-.24-4.88c1.36-3.93 2.08-8.5 2.08-13.23 0-4.7303-.72-9.3003-2.08-13.2303-1.15-3.32.54-6.98 3.78-8.16.67-.25 1.38-.37 2.09-.37 2.63 0 4.98 1.71 5.86 4.25 1.83 5.28 2.8 11.34 2.8 17.5103 0 6.17-.97 12.22-2.8 17.51-.89 2.54-3.24 4.25-5.87 4.25z"/><path d="m210.3 120.731c-.18 0-.36-.07-.5-.21l-2.76-2.83c-.28-.28-.28-.74 0-1.02.27-.28.72-.28 1 0l2.76 2.83c.27.28.27.74 0 1.02-.14.14-.32.21-.5.21z"/><path d="m212.06 114.701c-.18 0-.36-.07-.5-.21l-3.76-3.86c-.27-.28-.27-.74 0-1.02.28-.28.72-.28 1 0l3.76 3.86c.27.28.27.74 0 1.02-.14.14-.32.21-.5.21z"/><path d="m213.17 108.011c-.18 0-.36-.07-.5-.21l-4.11-4.22c-.28-.28-.28-.74 0-1.02.27-.28.72-.28 1 0l4.11 4.22c.27.28.27.74 0 1.02-.14.14-.32.21-.5.21z"/><path d="m212.94 99.9307c-.18 0-.36-.07-.5-.21l-4.05-4.16c-.27-.28-.27-.74 0-1.02.28-.28.72-.28 1 0l4.05 4.16c.27.28.27.74 0 1.02-.14.14-.32.21-.5.21z"/><path d="m211.82 90.9507c-.18 0-.36-.07-.5-.21l-3.35-3.44c-.27-.28-.27-.74 0-1.02.28-.28.72-.28 1 0l3.35 3.44c.27.28.27.74 0 1.02-.14.14-.32.21-.5.21z"/><path d="m199.64 81.6407c-.21 0-.43-.1-.56-.29-.23-.32-.17-.77.14-1.01l2.35-1.81c.31-.24.75-.18.99.14.23.32.17.77-.14 1.01l-2.35 1.81c-.13.1-.28.15-.43.15z"/><path d="m201.99 126.001c-.15 0-.29-.05-.42-.14l-2.35-1.81c-.31-.24-.37-.69-.14-1.01s.67-.38.99-.14l2.35 1.81c.31.24.37.69.14 1.01-.14.18-.36.28-.57.28z"/></g><g fill="#f6a1ba"><path d="m244.7 106.071c-6.4 0-12.79-2.43-17.66-7.3002-9.74-9.74-9.74-25.58 0-35.32 6.2-6.2 15.33-8.71 23.83-6.55.5.13.8.63.67 1.13s-.63.8-1.13.67c-7.87-2-16.33.32-22.06 6.06-9.01 9.01-9.01 23.68 0 32.69 9.01 9.0102 23.68 9.0102 32.7 0 5.79-5.79 8.09-14.31 6.01-22.23-.13-.5.17-1 .66-1.13s1 .17 1.13.66c2.25 8.56-.24 17.76-6.5 24.02-4.85 4.8602-11.25 7.3002-17.65 7.3002z"/><path d="m244.7 53.3707c-7.41 0-14.38 2.89-19.62 8.12-10.82 10.82-10.82 28.41 0 39.2303 5.24 5.24 12.21 8.12 19.62 8.12s14.38-2.89 19.62-8.12c6.9-6.9003 9.65-16.9103 7.3-26.3403l-30.96 10.77 10.77-30.96c-2.2-.55-4.46-.82-6.73-.82zm0 57.3303c-7.91 0-15.34-3.08-20.93-8.67-11.54-11.5403-11.54-30.3203 0-41.8603 5.59-5.59 13.02-8.67 20.93-8.67 2.77 0 5.53.39 8.19 1.15l.94.27-10.16 29.2 29.21-10.16.27.94c2.97 10.35.09 21.51-7.52 29.1103-5.59 5.61-13.02 8.69-20.93 8.69z"/><path d="m257.281 86.7708c-.95 0-1.85.37-2.53 1.05-1.39 1.4-1.39 3.66 0 5.06.68.68 1.57 1.05 2.53 1.05.95 0 1.85-.37 2.53-1.05 1.39-1.39 1.39-3.66 0-5.06-.68-.68-1.58-1.05-2.53-1.05zm0 9.01c-1.45 0-2.81-.57-3.84-1.59-2.12-2.12-2.12-5.56 0-7.68 1.03-1.03 2.39-1.59 3.84-1.59s2.81.56 3.84 1.59c2.12 2.12 2.12 5.56 0 7.68-1.02 1.02-2.39 1.59-3.84 1.59z"/><path d="m239.26 89.4807c-.96 0-1.85.37-2.53 1.05-1.39 1.4-1.39 3.66 0 5.06.67.68 1.57 1.05 2.53 1.05.95 0 1.85-.37 2.53-1.05s1.05-1.57 1.05-2.53c0-.95-.37-1.85-1.05-2.53s-1.58-1.05-2.53-1.05zm0 9.01c-1.45 0-2.81-.57-3.84-1.59-2.12-2.12-2.12-5.56 0-7.68 1.03-1.03 2.39-1.59 3.84-1.59s2.81.56 3.84 1.59 1.59 2.39 1.59 3.84-.57 2.81-1.59 3.84c-1.03 1.02-2.39 1.59-3.84 1.59z"/><path d="m230.991 72.2808c-.95 0-1.85.37-2.53 1.05-.68.67-1.05 1.57-1.05 2.53 0 .95.37 1.85 1.05 2.53s1.57 1.05 2.53 1.05c.95 0 1.85-.37 2.53-1.05s1.05-1.57 1.05-2.53c0-.95-.37-1.85-1.05-2.53s-1.57-1.05-2.53-1.05zm0 9c-1.45 0-2.81-.57-3.84-1.59-1.03-1.03-1.59-2.39-1.59-3.84s.57-2.81 1.59-3.84c1.03-1.03 2.39-1.59 3.84-1.59s2.81.56 3.84 1.59 1.59 2.39 1.59 3.84-.57 2.81-1.59 3.84-2.39 1.59-3.84 1.59z"/><path d="m245.42 70.6508c-1.41 0-2.8-.55-3.84-1.59-1.03-1.03-1.59-2.39-1.59-3.84s.56-2.81 1.59-3.84 2.39-1.59 3.84-1.59 2.81.56 3.84 1.59c.36.36.36.95 0 1.31s-.95.36-1.31 0c-.67-.68-1.57-1.05-2.53-1.05s-1.85.37-2.53 1.05c-1.39 1.4-1.39 3.66 0 5.06 1.01 1.01 2.53 1.32 3.86.79.48-.19 1.02.04 1.21.52s-.04 1.02-.52 1.21c-.65.25-1.34.38-2.02.38z"/><path d="m246.26 102.051c-.03 0-.06 0-.09-.01-.51-.05-.88-.51-.83-1.02l.54-5.3302 2.6.76.31-2.73c.06-.51.52-.88 1.03-.82s.88.52.82 1.03l-.56 4.92-2.57-.75-.31 3.1102c-.07.48-.47.84-.94.84z"/><path d="m237.001 67.6907-5.36-.01.5-2.66-2.75-.04c-.51-.01-.92-.43-.91-.94s.42-.91.93-.91h.01l4.95.08-.49 2.63 3.13.01c.51 0 .93.42.93.93-.01.49-.43.91-.94.91z"/><path d="m222.42 90.6307c-.5 0-.92-.4-.93-.91s.39-.94.91-.95l3.13-.07-.55-2.62 4.95-.18c.52-.01.94.38.96.9.02.51-.38.94-.9.96l-2.75.1.56 2.65-5.36.12c-.01 0-.02 0-.02 0z"/><path d="m278.21 63.1008c-.4 0-.78-.27-.89-.67-1.07-3.74-3.1-7.18-5.87-9.95-2.75-2.75-6.17-4.77-9.88-5.85-.49-.14-.78-.66-.63-1.15.14-.49.66-.78 1.15-.63 4.01 1.16 7.7 3.35 10.67 6.32 2.99 2.99 5.19 6.71 6.35 10.75.14.49-.14 1.01-.64 1.15-.09.02-.17.03-.26.03z"/><path d="m266.01 54.2908c-.95 0-1.85.37-2.53 1.05-1.39 1.39-1.39 3.66 0 5.06.68.67 1.57 1.05 2.53 1.05.95 0 1.85-.37 2.53-1.05 1.39-1.4 1.39-3.66 0-5.06-.68-.68-1.58-1.05-2.53-1.05zm0 9c-1.45 0-2.81-.57-3.84-1.59-2.12-2.12-2.12-5.56 0-7.68 1.03-1.03 2.39-1.59 3.84-1.59s2.81.57 3.84 1.59c2.12 2.12 2.12 5.56 0 7.68-1.03 1.03-2.39 1.59-3.84 1.59z"/><path d="m260.331 67.6807v2.56c0 .64.52 1.16 1.16 1.16s1.16-.52 1.16-1.16v-3.36l18.87-6.5599c-1.34-4.16-3.68-7.9901-6.79-11.1001s-6.94-5.45-11.1-6.79l-9.54 27.43zm1.15 5.5701c-1.64 0-2.98-1.3201-3.01-2.9601l-7.41 2.58 11.38-32.73.84.24c4.79 1.37 9.2 3.97 12.74 7.52 3.54 3.54 6.14 7.9501 7.52 12.7401l.24.8399-19.3 6.71v2.04c.01 1.67-1.34 3.0201-3 3.0201z"/><path d="m300.949 118.591c6.27 0 11.62-2.05 15.47-5.93 4.42-4.44 6.78-11.14 6.67-18.8603-.01-.41-.34-.74-.77-.74-.42.01-.75.35-.75.76.11 7.3103-2.11 13.6303-6.23 17.7903-3.62 3.64-8.46 5.49-14.39 5.49-13.5 0-19.93-7.66-20.23-24.1003-.01-.41-.36-.74-.77-.74-.42.01-.75.35-.74.76.31 17.2003 7.42 25.5703 21.74 25.5703z"/><path d="m294.719 86.9408c.08 0 .16-.01.23-.04.4-.13.62-.55.49-.95-1.13-3.45-.54-4.79 2.1-7.61 1.44-1.53 2.12-3.13 2.04-4.75-.09-1.68-1.02-3.3-2.77-4.81-.32-.27-.79-.24-1.07.07-.27.31-.24.79.07 1.06 1.43 1.23 2.18 2.5 2.25 3.76.06 1.2-.49 2.42-1.63 3.65-2.84 3.02-3.8 4.95-2.44 9.1.11.32.41.52.73.52z"/><path d="m300.25 90.5608c6.42 0 11.9.35 14.27.68 5.73.8 6.98 2.05 7.01 2.34.01.14-.43.81-2.8 1.5-2.62.76-9.37 1.29-16.43 1.29-9.31 0-16.78-.89-19.97-2.38-1.51-.7-1.6-1.13-1.6-1.13.12-.44 2.22-1.23 4.65-1.53 5.24-.64 10.98-.77 14.87-.77zm2.05 7.32c7.3 0 14.07-.54 16.85-1.36 2.67-.78 3.98-1.81 3.88-3.06-.13-1.72-2.92-2.97-8.3-3.72-2.42-.34-7.98-.7-14.48-.7-3.93 0-9.74.14-15.06.79-1.32.16-5.65.84-5.96 2.8-.21 1.31 1.3 2.18 2.45 2.72 4.88 2.29 16.04 2.53 20.62 2.53z"/><path d="m321.58 110.781c2.99 0 5.68-.49 8.26-3.32 2.71-2.97 2.38-6.57.86-8.8302-1.76-2.6-4.95-3.55-8.14-2.41-.39.14-.601.57-.461.96s.58.59.97.45c3.04-1.09 5.281.23 6.361 1.83 1.2 1.7702 1.44 4.6202-.72 6.9802-2.77 3.03-5.56 2.92-9.43 2.76-.48-.02-.96-.04-1.47-.05-.42 0-.77.31-.78.73-.01.41.32.76.74.77.5.01.979.03 1.449.05.82.04 1.601.08 2.361.08z"/><path d="m300.629 86.7709c.13 0 .25-.03.37-.1.36-.2.49-.6601.29-1.0201-1.17-2.05-.05-3.38 1.12-4.79.32-.38.62-.7399.86-1.1099.97-1.47 1.81-3.73 1.29-5.7-.32-1.23-1.12-2.17-2.35-2.81-.37-.19-.83-.05-1.02.32s-.05.82.32 1.01c.85.44 1.37 1.04 1.59 1.85.4 1.49-.34 3.35-1.09 4.49-.2.3-.47.63-.76.98-1.18 1.41-2.95 3.5299-1.28 6.4799.13.2701.39.4001.66.4001z"/><path d="m299.5 126.001c4.51 0 10.05-.38 16.43-1.54 6.6-1.2 8.88-4.2 8.81-6.61-.09-3.06-3.54-5.46-8.8-6.12-.41-.05-.79.24-.85.65-.05.41.24.79.66.84 5.09.63 7.42 2.8 7.48 4.67.05 1.7-1.91 4.06-7.57 5.09-17.53 3.2-32.15.92-37.01-2.86-.66-.52-1.47-1.33-1.52-2.26-.05-.78.25-1.5.92-2.2 1.82-1.92 5.72-2.91 6.98-2.91.42 0 .76-.34.76-.75s-.34-.75-.76-.75c-1.7 0-5.98 1.16-8.09 3.38-.95 1-1.4 2.12-1.33 3.32s.78 2.32 2.1 3.35c2.7 2.09 7.96 3.67 14.43 4.33 1.98.21 4.45.37 7.36.37z"/><path d="m306.249 87.1808c.08 0 .15-.01.23-.03.4-.12.62-.55.49-.94-.49-1.53.39-3.01 1.31-4.57 1.22-2.08 2.75-4.66.06-7.27-.3-.29-.78-.28-1.07.01-.29.3-.29.77.01 1.06 1.75 1.7 1.06 3.1-.31 5.43-1 1.7-2.14 3.62-1.45 5.79.11.32.41.52.73.52z"/><path d="m300.12 121.541c.64 0 1.28-.01 1.91-.04 8.61-.33 13.89-1.89 14.13-4.2.09-.9-.5-2.15-3.88-2.99-.41-.1-.82.14-.92.55-.1.4.15.81.55.91 2.31.57 2.75 1.24 2.74 1.38-.02.21-.59.9-2.92 1.58-2.36.68-5.73 1.12-9.77 1.28-9.45.36-16.51-1.87-16.73-3.22-.03-.17.4-.8 2.66-1.47.4-.12.63-.54.51-.94s-.55-.62-.94-.5c-1 .3-4.05 1.2-3.72 3.15.47 2.8 8.64 4.51 16.38 4.51z"/><path d="m284.419 96.2708c.23 0 .45-.1.6-.3.12-.15.96-.95 6.01-1.43 9.95-.96 25.19.12 26.86 1.24.11.29.38.49.71.49.42 0 .76-.34.76-.75 0-.87-1.04-1.22-1.44-1.35-4.64-1.55-31.33-2.73-34.11.89-.25.33-.19.8.14 1.05.15.11.31.16.47.16z"/><path d="m288.57 96.8308c.09 0 .19-.03.28-.08 1.28-.82 2.59-1.72 4.02-2.75.23-.16.28-.48.11-.7-.16-.22-.48-.28-.7-.11-1.42 1.01-2.72 1.9-3.98 2.72-.23.15-.3.46-.15.69.09.15.25.23.42.23z"/><path d="m292.08 96.9708c.12 0 .24-.04.33-.12.89-.77 1.86-1.56 2.96-2.4.22-.17.26-.48.09-.7s-.49-.26-.71-.09c-1.12.86-2.1 1.66-3.01 2.44-.21.18-.23.5-.05.71.11.1.25.16.39.16z"/><path d="m295.69 96.9807c.12 0 .23-.04.33-.12 1.06-.9 2.11-1.81 3.16-2.72l.7-.61c.21-.18.23-.5.05-.71s-.5-.23-.71-.05l-.7.61c-1.05.91-2.09 1.82-3.15 2.72-.21.18-.24.5-.05.71.08.11.22.17.37.17z"/><path d="m299.53 96.9207c.12 0 .23-.04.33-.12 1.02-.87 2.11-1.84 3.44-3.06.2-.19.22-.5.03-.71-.19-.2-.51-.22-.71-.03-1.32 1.21-2.41 2.18-3.41 3.04-.21.18-.23.5-.05.71.08.11.22.17.37.17z"/><path d="m303.11 97.2007c.14 0 .28-.0599.38-.1699.88-1 1.89-2.0001 3.19-3.1201.21-.18.23-.5.05-.71s-.5-.23-.71-.05c-1.33 1.16-2.38 2.18-3.28 3.22-.18.21-.16.52.05.71.08.08.2.12.32.12z"/><path d="m306.289 97.2808c.12 0 .25-.05.34-.13 1.08-1 2.17-1.99 3.26-2.98.21-.19.22-.5.03-.71s-.51-.22-.71-.03c-1.1.99-2.19 1.98-3.27 2.99-.2.19-.22.5-.03.71.11.1.25.15.38.15z"/><path d="m310 97.2708c.12 0 .239-.04.329-.12 1.04-.9 2.07-1.8 3.11-2.7.21-.18.23-.5.05-.71s-.499-.23-.709-.05c-1.04.9-2.081 1.8-3.111 2.71-.21.18-.229.5-.049.71.1.1.24.16.38.16z"/><path d="m314.27 97.0708c.12 0 .23-.04.33-.12.8-.68 1.6-1.36 2.4-2.03.21-.18.24-.49.06-.71-.18-.21-.5-.24-.71-.06-.8.68-1.61 1.36-2.41 2.04-.21.18-.23.5-.05.71.1.11.24.17.38.17z"/><path d="m321.809 107.291c2.44 0 5.21-.81 6.11-3.32.6-1.67.22-3.18-1.02-4.0302-1.49-1.03-3.81-.8-5.41.5202-.32.27-.36.74-.09 1.06s.75.36 1.07.09c1.19-.99 2.75-1 3.57-.44.84.58.71 1.57.45 2.29-.84 2.36-4.42 2.57-6.48 2.14-.41-.08-.81.18-.9.58-.09.41.18.8.59.89.63.15 1.36.22 2.11.22z"/></g><g fill="#9e79b6"><path d="m332.09 125.731c-.59 0-1.09.22-1.44.62-.54.63-.67 1.65-.34 2.79.55 1.94 2.17 3.9 4.2 3.9.1 0 .2 0 .3-.01 1.17-.1 1.51-.62 1.66-.99.59-1.48-.72-4.16-1.86-5.17-.82-.73-1.71-1.14-2.52-1.14zm2.42 8.8c-2.99 0-5.1-2.6-5.79-5.01-.46-1.61-.24-3.06.63-4.07.66-.77 1.64-1.2 2.74-1.2 1.24 0 2.55.56 3.68 1.57 1.51 1.35 3.1 4.57 2.25 6.72-.32.8-1.1 1.8-3.04 1.97-.16.01-.31.02-.47.02z"/><path d="m336.5 134.021c-.11 0-.22-.02-.33-.06-2.95-1.16-6.14-5.49-6.58-8.1-.07-.4.24-.78.69-.84s.87.22.94.62c.36 2.13 3.25 6.04 5.6 6.96.42.16.61.6.43.97-.13.29-.43.45-.75.45z"/><path d="m316.91 129.531c-1.42 0-3.19.9-3.9 1.71-1.32 1.51-2.74 5.09-1.09 6.39.36.28.78.42 1.29.42 1.73 0 3.93-1.61 4.68-3 .8-1.49 1.27-4.29.28-5.13-.31-.26-.73-.39-1.26-.39zm-3.7 10c-.91 0-1.7-.26-2.37-.78-2.56-2-.82-6.48.87-8.42.96-1.1 3.22-2.28 5.19-2.28.95 0 1.78.27 2.39.79 1.82 1.54.95 5.22.07 6.85-.97 1.82-3.74 3.84-6.15 3.84z"/><path d="m311.54 139.021c-.23 0-.46-.09-.62-.25-.3-.31-.27-.77.08-1.04 1.26-.99 1.99-2.63 2.75-4.36.77-1.73 1.56-3.51 2.97-4.74.33-.28.85-.27 1.16.02s.31.76-.02 1.05c-1.16 1.01-1.85 2.57-2.59 4.22-.81 1.82-1.64 3.7-3.2 4.93-.15.11-.34.17-.53.17z"/></g></svg>