<svg fill="none" height="98" viewBox="0 0 132 98" width="132" xmlns="http://www.w3.org/2000/svg"><path d="m60.2122 96.4207c-30.15 4.2403-55.42996-6.93-59.709965-37.41-4.289995-30.47 19.469965-49.02004 49.609965-53.26004 30.15-4.24 54.4598 1.71 58.7398 32.18004 4.29 30.48-18.4998 54.25-48.6398 58.49z" fill="#ebe5f2"/><path d="m106.203 25.2108c-.38.17-.56.63-.4 1.02.01.03 1.24 3.22-1.36 5.27-3.48 2.74-6.9902-1.5-7.1403-1.68-.15-.18-.3699-.29-.5899-.29-.09 0-.1801.02-.2701.05l-3.0199 1.17c-.11-.42-.25-.81-.43-1.17l2.58-2.32c1.31.94 3.4499 1.97 5.7602 1.05.68-.27 1.31-.7 1.88-1.27 1.41-1.4 2.07-2.96 1.95-4.64-.06-.79-.29-1.56-.69-2.31 1.16-.65 2.43-1.84 3.06-3.99.04-.14.06-.28.1-.42 1.09.64 2.19 1.67 2.65 3.41.96 3.81-4.03 6.1-4.08 6.12zm-25.5103 29.65c-.2599.14-.4199.41-.4199.7v3.42h-24.07v-3.42c0-.29-.1601-.56-.4201-.7-16.92-8.98-15.9699-19.78-15.4599-22.35h55.84c.5099 2.57 1.4599 13.37-15.4701 22.35zm-21.19-23.93h-6.83c.36-1.73 1.12-3.34 2.25-4.7zm-3.4999-5.83c1.7299-1.57 3.89-2.5 6.2-2.67v8.5h-.5201zm8.2199 5.83h-.49v-8.5c2.3.17 4.4501 1.1 6.1801 2.66zm6.7701-4.72c1.14 1.37 1.8999 2.98 2.2599 4.72h-6.8599zm-8.03-10.22c8.32 0 15.2199 6.24 16.5399 14.4.03.18.03.36.05.54h-4.7399c-.44-2.41-1.5501-4.63-3.2601-6.41-2.29-2.38-5.3399-3.7-8.5999-3.7s-6.3201 1.32-8.6201 3.71c-1.7 1.78-2.81 4-3.25 6.39h-4.7599c1.12-8.41 8.14-14.93 16.64-14.93zm12.53 3.19 1.5-3.47c.64.45 1.3899.74 2.1299.75h.0401c.5699 0 1.18-.17 1.76-.49-.09 3.04 2.3 5.27 4.14 6.3l-.35 3.65c-.7.27-1.4201.66-2.1301 1.29-.56.5-1.1599 1.1-1.7699 1.75-.85-3.76-2.81-7.09-5.49-9.61.05-.06.13-.09.17-.17zm-10.8401-13.11003c.11-.91.5501-2.2 2.0501-3.21 2.56-1.73 5.5199-1.73 9.3099-.01s5.78 3.98 6.25 7.09c.19 1.27003-.0699 2.23003-.4399 2.93003-.04.07-.07.15-.11.22-.13.21-.26.4-.39.56-.72.85-1.6001 1.22-2.1701 1.22h-.0199c-.73-.01-1.53-.47-1.96-1.13-.22-.33-.43-.86-.18-1.49.49-1.26 1.7399-1.12 1.8799-1.1.44.06.8101-.23.8701-.66.07-.43-.22-.83003-.64-.90003-.89-.14-2.77.11-3.54 2.08003-.37.94-.2601 1.93.2699 2.81l-1.4399 3.33-8.0901-3.68 1.4401-3.32c1-.19 1.78-.78 2.21-1.69003.9-1.9-.18-3.5-.88-4.08-.33-.28-.82-.22-1.08.12-.27.34-.21.83.11 1.11.04.04 1.06.9.46 2.16-.29.6-.8101.8-1.2001.86-.75.12-1.64-.18-2.13-.73-.3799-.42-.71-1.36-.58-2.49zm22.29 5.65003c.23 0 .3901.02.4101.02.44.06.7899-.24.85-.67.0099-.06.8499-5.59003 4.68-5.61003h.0199c1.86 0 3.1601.91 4.0501 1.88-.12.07-.2501.11-.3701.19-1.52.96-2.5399 2.39-2.9499 4.07003-1.13-.28-2.23-.23-3.22.17-1.2201.49-2.2201 1.46-3 2.88-.75 1.4-.93 2.82-.52 4.24.42 1.47 1.4099 2.61 2.31 3.38l-1.5801 3.3c-.43-.07-.8799-.09-1.3399-.05l.35-3.64c.03-.34-.1501-.65-.4401-.79-.21-.1-5.12-2.46-3.44-6.64.11-.28.2501-.53.3901-.76.02-.04.05-.07.06-.1 1.12-1.66 2.9299-1.87 3.7399-1.87zm4.9101 19.21h-10.71c0-.01 0-.02 0-.02.84-.94 1.67-1.81 2.45-2.5.5299-.47 1.06-.79 1.57-.99.95-.39 1.8399-.38 2.5899-.2.01 0 .0201 0 .0201.01.25.06.48.14.69.22.87.35 1.44.85 1.53.93.05.03.51.36.9899.94.1501.18.3001.39.4401.62.01.01.01.02.0199.03.14.23.2701.49.3701.78 0 .01.01.02.01.02.01.05.02.11.03.16zm6.42-22.51003c2.9002-1.16 5.4902.88 5.6202.99.13.1 3.24 2.50003 2.14 6.26003-.59 2.03-1.91 2.94-2.99 3.37-.22.09-.39.28-.46.52s-.02.49.12.69c.54.75.85 1.53.9 2.29.08 1.19-.42 2.33-1.49 3.39-.42.42-.88.73-1.37.93-1.9202.76-3.8002-.43-4.7502-1.21-.29-.24-.7101-.23-.9901.02l-2.8699 2.58c-.41-.5-.8501-.88-1.22-1.13-.42-.38-1.05-.79-1.7901-1.1l1.7301-3.62c.16-.34.0599-.76-.2401-.98-.67-.5-1.85-1.56-2.25-2.97-.29-1-.16-2.02.39-3.03.59-1.1 1.3401-1.83 2.2101-2.18.4-.16.83-.24 1.2699-.24.5401 0 1.1201.12 1.7201.36.22.09.48.07.68-.06s.34-.35.36-.59c.11-1.13.62-2.71 2.39-3.84003.31-.18.5999-.33.89-.45zm13.4702 10.29003c-.67-2.58-2.4-3.96-3.94-4.71-.04-3.57-2.85-5.75003-2.98-5.84003-.32-.26-3.04-2.29-6.3403-1.42-1.09-1.38-2.88-2.85-5.58-2.85h-.0199c-3.7401.01-5.51 3.76-6.07 6.25003-.86.01-1.95.22-2.97.8.0099-.4 0-.81-.07-1.23003-.55-3.64-2.89-6.35-7.14-8.29-4.2601-1.940003-7.79-1.890003-10.78.13-1.55 1.05-2.53 2.59-2.7301 4.34-.17 1.45.2101 2.89.9801 3.75.5.55003 1.21.93003 1.97 1.11003l-1.5 3.47c-.03.08-.0501.17-.0601.26-.52-.05-1.0299-.07-1.5599-.07-9.35 0-17.07 7.23-18.18 16.52h-5.07c-.34 0-.63.22-.73.55-.04.14-4 13.89 15.68 24.56v3.73c0 .44.3399.79.7699.79h25.62c.42 0 .7701-.35.7701-.79v-3.73c16.85-9.14 16.37-20.52 15.86-23.7 1.16.9 2.6702 1.66 4.3002 1.66 1.11 0 2.27-.35 3.41-1.25 2.44-1.92 2.49-4.72 2.07-6.41 2.19-1.19 5.25-3.93 4.29-7.63z" fill="#9e79b6"/><path d="m123.743 72.8907c8.51 3.49 7.11 11.28 6.22 13.13-.07.15-.18.28-.33.37-1.76 1.16-9.57 3.84-14.69-3.5m6.98-24.78s3.29 5.77-2.69 7.76zm-2.48-3.37s-7.32.89-9.09 4.42c-1.78 3.53-1 5.26.76 6.46zm-1.79 4.18c-3.08 1.46-5.88 7.11-3.26 8.22zm4.43-6.77s2.98 5.7 3.27 9.28c.29 3.59-3.03 8.19-8.09 6.63-3.64-1.12-4.72-1.52-6.16-2.44-1.87-1.2-3.18-3.1-3.4-5.23-.21-2.11.54-4.58 4.4-6.04 6.13-2.32 9.98-2.2 9.98-2.2zm-22.7204 8.21s-1.21-1.43-2.93-.71c-.44.19-.94.21-1.42.15-.59-.07-1.4-.04-2.04.49-.43.35-.92.63-1.48.72-.73.12-1.68.47-1.93 1.46zm-1.39 5.41s-2.93.05-5.16.86zm-6.21 4.38s1.11 1.5 2.88.88c.45-.16.95-.15 1.43-.07.59.11 1.39.12 2.07-.37.45-.32.96-.57 1.52-.63.7404-.07 1.7004-.37 2.0204-1.34zm-7.08-1.58c3.07-3.39 8.33-5.27 15-5.31zm0 0c2.56-2-1.46-12.6 12.17-12.35 6.4704.11 6.2904 5.93 6.2904 5.93s6.68 8.05-3.2704 11.18c-11.19 3.51-11.32-4.5-15.19-4.76zm11.98 16.89s-.69.33-1.14.9zm4.4104-5.49s-1.3304.35-2.3604 1.41zm-.03 4.51s-1.2104.35-1.9904 1.17zm4.86-4.71s-1.32.21-2.62 1.34zm2.67-1.51s3.2 5.58-4.74 10.95c-7.9404 5.37-12.4104 1.59-12.4104 1.59zm-5.08 7.75s-4.7704 3.79-12.0604 4.79c0 0 .71-8.51 7.14-12.51 6.4404-4.01 16.4104-1.29 4.9204 7.72zm26.08.02s-2.03.16-4.97-1.07zm.43-.29s-.57-2.86-3.28-5.08zm-14.1-10.59s-1.66-1.62-4.24-1.35zm0 0c4.35-4.95 8.3-3.08 8.3-3.08-1.31 2.54-2.81 3.04-3.44 3.14-.11.02-.13.15-.05.22 2.4 1.85 1.41 4.67 1.41 4.67s-2.74 1.43-5.08-.49c-.09-.07-.22-.03-.21.08.01.61-.25 2.1-2.65 3.78 0-.01-2.63-3.37 1.72-8.32z" stroke="#f6a1ba" stroke-linecap="round" stroke-linejoin="round" stroke-miterlimit="10" stroke-width="1.2856"/></svg>