<svg fill="none" height="165" viewBox="0 0 234 165" width="234" xmlns="http://www.w3.org/2000/svg"><path d="m76.6605 153.41c33.6795-5.64 62.2095-35.64 51.8195-65.6599-9.9-28.61-33.7495-32.64-71.6295-25.38-33.53 6.44-52.02004 27.39-46.79 58.6499 5.23 31.27 32.92 38.03 66.6 32.39z" fill="#f6a1ba"/><path d="m173.52 110.75c33.8 0 59.87-17.7 59.87-55.08s-28.99-55.67-62.79-55.67-59.6 11.26-59.6 48.64 28.72 62.11 62.52 62.11z" fill="#f9c5d3"/><path d="m179.65 91.75c28.63 0 50.72-13.85 50.72-43.09s-24.56-43.55001-53.19-43.55001-50.5 8.81001-50.5 38.05001 24.33 48.59 52.97 48.59z" fill="#f1749f"/><g fill="#fff"><path d="m174.87 60.35c-.71 0-1.39-.14-2.04-.41l-12.81-5.34 1.02-2.45 12.81 5.34c.33.14.66.2 1.02.2 1.46 0 2.65-1.19 2.65-2.65 0-1.02-.6-1.96-1.52-2.4l-10.02-4.73c-.43-.2-.83-.47-1.2-.78l-2.47-2.13c-2.4-2.07-5.47-3.22-8.65-3.22h-4.49c-1.6 0-3.2-.37-4.63-1.06l-4.48-2.17 1.16-2.38 4.48 2.17c1.08.52 2.28.8 3.47.8h4.49c3.81 0 7.5 1.37 10.38 3.86l2.46 2.13c.18.15.38.29.6.39l10.01 4.73c1.85.87 3.05 2.75 3.05 4.8.01 2.92-2.37 5.3-5.29 5.3z"/><path d="m170.16 70.95c-3.21 0-6.4-.82-9.21-2.37l-20.85-11.52 1.28-2.32 20.85 11.52c2.42 1.34 5.16 2.04 7.93 2.04 3.76 0 7.43-1.31 10.35-3.68l18.8-15.32c.47-.38.73-.94.73-1.54 0-1.1-.89-1.99-1.99-1.99-.41 0-.8.12-1.14.36l-19.01 13.27-1.52-2.17 19.03-13.27c.78-.55 1.7-.83 2.65-.83 2.56 0 4.64 2.08 4.64 4.64 0 1.4-.62 2.71-1.71 3.6l-18.8 15.32c-3.39 2.74-7.66 4.26-12.03 4.26z"/><path d="m198.059 45.77c-5.67 0-9.94-2.28-9.94-5.3v-5.3h2.65v5.3c0 1.05 2.91 2.65 7.29 2.65s7.29-1.6 7.29-2.65v-5.3h2.65v5.3c0 3.02-4.27 5.3-9.94 5.3z"/><path d="m198.059 32.52c-4.38 0-7.29 1.6-7.29 2.65 0 1.06 2.91 2.65 7.29 2.65s7.29-1.6 7.29-2.65-2.91-2.65-7.29-2.65zm0 7.95c-5.67 0-9.94-2.28-9.94-5.3s4.27-5.3 9.94-5.3 9.94 2.28 9.94 5.3-4.27 5.3-9.94 5.3z"/><path d="m182.1 54.1001-.43-3.54c-.07-.58-.34-1.14-.76-1.56l-2-2c-.68-.68-1.53-1.16-2.46-1.39l-4.41-1.1c-1.22-.29-2.47.67-2.47 1.93 0 .25.05.49.13.72l-2.47.96c-.21-.54-.31-1.1-.31-1.67 0-2.56 2.08-4.64 4.64-4.64.38 0 .76.05 1.13.14l4.4 1.1c1.4.35 2.68 1.07 3.69 2.09l2 2c.83.84 1.37 1.94 1.51 3.11l.43 3.54z"/><path d="m202.7 19.27h-2.65v2.65h2.65z"/><path d="m196.07 19.27h-2.65v2.65h2.65z"/><path d="m189.45 21.92h-2.65v2.65h2.65z"/><path d="m184.139 27.2201h-2.65v2.65h2.65z"/><path d="m181.49 33.8501h-2.65v2.65h2.65z"/><path d="m209.33 21.92h-2.65v2.65h2.65z"/><path d="m214.629 27.2201h-2.65v2.65h2.65z"/><path d="m217.28 33.8501h-2.65v2.65h2.65z"/><path d="m202.7 55.05h-2.65v2.6501h2.65z"/><path d="m209.33 52.4h-2.65v2.65h2.65z"/><path d="m214.629 47.1001h-2.65v2.65h2.65z"/><path d="m217.28 40.4701h-2.65v2.65h2.65z"/><path d="m162.94 15.29h-2.65v6.63h2.65z"/><path d="m162.94 27.2201h-2.65v6.63h2.65z"/><path d="m170.9 23.24h-6.63v2.65h6.63z"/><path d="m158.97 23.24h-6.63v2.65h6.63z"/><path d="m202.7 64.3301h-2.65v6.63h2.65z"/><path d="m202.7 76.25h-2.65v6.63h2.65z"/><path d="m210.659 72.28h-6.63v2.65h6.63z"/><path d="m198.73 72.28h-6.63v2.65h6.63z"/></g></svg>