<svg fill="none" height="83" viewBox="0 0 76 83" width="76" xmlns="http://www.w3.org/2000/svg"><path d="m34.6547 81.8898c20.57 2.89 37.8-4.48 40.65-24.77 2.85-20.28-13.4-32.69-33.98-35.58-20.57-2.89-37.13998 1.01-39.98998 21.29-2.85 20.29 12.74998 36.16 33.31998 39.06z" fill="#feeff1"/><path d="m24.8743 57.3898-1.19-.49 4.95-12.1c.17-.41.34-.8.52-1.41l.83-2.92c-1.2-.99-2.35-1.98-3.32-2.94l-.72 5.42-5.04 14.3-1.21-.43 5.02-14.24.82-6.36 1.29-.36.27.28c1.45 1.51 3.49 3.17 5.46 4.77.88.72 1.74 1.42 2.51 2.07l.19.16 1.8 13.95-1.28.17-1.75-13.47c-.71-.6-1.49-1.24-2.3-1.89-.22-.18-.45-.36-.67-.55l-.68 2.39c-.2.69-.39 1.13-.57 1.55l-.12.29zm14.66-.18-.63-15.15c-.1-.66-.48-1.45-1.08-2.23l-5.24-7.36-.28-.99-.34-9.49c-.06-.27.12-.66.52-1.49.31-.64.69-1.43.86-2.13.14-.57-.08-1.38-.67-1.69l-3.57-1.96c-1.88-1.04-3.54-1.22-4.94-.53-1.27.6-1.43 1.28-1.83 3.55l-1.29 7.27.15 1 2.77 5.78-.04.3.86 2.14 2.47-.74-.67-2.3-.59-.16-2.41-5.63 2.11-8.12 1.25.32-2 7.69 2 4.65.69.19.43 1.48.8-.23-.75-2.41 1.23-.38.75 2.43 1.2-.35.36 1.24-1.18.35.73 2.37-1.23.38-.74-2.39-.82.24.28.96-.79.88-3.42.95-.74-.55-.32-.79-.85.25.73 2.37-1.23.38-.74-2.39-1.2.35-.36-1.24 1.18-.35-.75-2.41 1.23-.38.75 2.43.75-.22-.35-.86.04-.26-2.69-5.7-.2-1.3 1.31-7.38c.4-2.33.64-3.67 2.55-4.58 1.23-.6 3.29-.99 6.12.56l3.56 1.96c1.04.55 1.61 1.9 1.31 3.12-.15.63-.43 1.28-.69 1.85l4.04-2.23c-.18-.43-.28-.9-.28-1.39 0-2.01 1.68-3.65 3.74-3.65s3.74 1.64 3.74 3.65c0 1.91-1.51 3.48-3.42 3.64-.13.29-.32.52-.57.7l-7.71 5.41.17 4.71.19.64 5.07 7.07c.73.94 1.18 1.91 1.32 2.87l.64 15.22zm-6.26-34.85.1 2.76 6.79-4.76c-.58-.2-1.1-.54-1.51-.97zm8.13-7.81c-1.35 0-2.45 1.06-2.45 2.36s1.1 2.36 2.45 2.36 2.45-1.06 2.45-2.36-1.1-2.36-2.45-2.36zm-1.17 15.34c-1.7 0-3.42-.39-5.02-1.2l.58-1.15c4.68 2.39 10.49.63 12.94-3.92.96-1.77 1.29-3.8.97-5.75l-.84 1.88-1.18-.53 1.96-4.37 3.58 3.41-.88.93-1.32-1.26c.29 2.15-.1 4.36-1.15 6.3-1.94 3.6-5.73 5.66-9.64 5.66zm1.82-12.35h-1.29v-1.25h1.29zm-14.29-5.58c-.3 0-.61-.02-.93-.07-1.65-.24-3.39-1.42-4.13-2.81002-.61-1.15-.82-3.64-.76-4.99-.06.16-.11.34-.16.54-.91 3.75-2.14 5.98002-3.76 6.83002-1.33.69-2.62.35-3.81-.12l-1.56-.61 1.57-.59c1.67-.62002 2.39-1.57002 3.11-5.66002.31-1.76 1-2.94 2.04-3.530003 1.34-.75 2.95-.37 4.15.060003 1.22-.880003 3.07-1.220003 4.96-.880003 1.73.31 3.11 1.140003 3.68 2.220003.27.51.43 1.1.48 1.77.08 1.08-.13 3.55-.64 4.98-.67 1.83002-2.21 2.86002-4.24 2.86002zm-3.83-3.33002c.6.96 1.91 1.81002 3.09 1.98002 1.09.16 3.02.11 3.76-1.96002.36-1.01.56-2.76.58-3.87-.59 1.09-1.53 2.1-2.68 2.83-1.51.96-3.15 1.31-4.75 1.02zm-7.79 1.92002c.43.04.86-.01 1.28-.23 1.26-.65002 2.3-2.67002 3.11-5.99002.14-.56.47-1.94 1.78-2.35-1-.26-1.75-.23-2.32.09-.69.39-1.17 1.28-1.41 2.63-.56 3.22-1.2 4.86-2.44 5.85002zm7.31-3.37002c1.99.66 3.68-.11 4.53-.65 1.52-.96 2.62-2.54 2.76-3.96-.51-.55-1.42-.99-2.5-1.18-1.65-.3-3.29.03-4.19.83-.2.18-.37.38-.5.61-.16.28-.26.6-.3.94-.09.75-.01 2.25.2 3.41z" fill="#f6a1ba"/></svg>