<svg fill="none" height="70" viewBox="0 0 75 70" width="75" xmlns="http://www.w3.org/2000/svg"><path d="m33.6567 68.821c20.57 2.89 37.8-4.48 40.65-24.77 2.85-20.28-13.4-32.69-33.98-35.57996-20.57-2.88-37.14003 1.02-39.990028 21.29996-2.850002 20.28 12.750028 36.16 33.320028 39.05z" fill="#feeff1"/><path d="m22.1671 56.181-.84-.97 10.54-9.13c.51-.49.98-1.08 1.42-1.79l2.06-3.88c-.21-.06-.41-.11-.61-.17-1.71-.53-2.81-1.68-3.41-3.05-.79 2.74-1.76 4.58-2.57 6.13-.19.36-.37.7-.54 1.04l-.12.16-11.35 11.51-.92-.9 11.28-11.44c.16-.32.33-.64.5-.97 1.08-2.08 2.31-4.43 3.14-8.67.01-.31.04-.62.08-.92.21-1.41.43-4.93-.06-9.17-.67-5.89 1.25-7.59 5.29-8.81 2.05-.62 4.1-1.36 6.07-2.07.67-.24 1.35-.49 2.03-.73l-.12-10.74997c.04-1.000004 1.04-1.6300038 2.47-1.60000384 1.31.03000004 2.73.60999984 2.71 1.82000384l.85 12.11997c-.01.96-.56 2.23-1.44 2.72-1.8 1.11-3.83 2.1-5.85 3.06.0401.34.02.69-.05 1.01-.2.83-.6 1.7-.92 2.39-.15.33-.34.73-.38.89l-.35 8.58c0 .2.03.26.03.28l9.46 3.24c1.24.5 1.82 2.35 1.96 3.26l.02.11-3.1 16.67-1.27-.24 3.07-16.46c-.16-.88-.64-1.95-1.12-2.14l-9.4-3.23c-.92-.32-.93-1.19-.93-1.52l.34-8.5c-.02-.34.15-.73.51-1.5.3-.64.6701-1.44.83-2.14.0101-.04.02-.08.02-.12-1.08.5-2.14 1-3.17 1.51l-.57-1.15c1.04-.51 2.12-1.02 3.22-1.54 2.39-1.12 4.87-2.28 7.01-3.59.41-.23.79-1 .8-1.57l-.85-12.09997c0-.2-.55-.55-1.46-.57-.7399-.01-1.15.21-1.15.33l.13 10.88997c-.0499.41-.2.67-.45.87l-.18.1c-.76.27-1.51.54-2.26.81-1.99.72-4.05 1.46-6.13 2.09-3.44 1.04-4.99 2.11-4.38 7.43.5 4.38.27 8.04.05 9.51-.31 2.1.2901 4.86 3.01 5.7 2.37.73 5.91 1.08 8.75 1.36.77.08 1.51.15 2.17.22.42.03.68.27.72.67l.01.15-.98 14.65-1.29-.09.95-14.15c-.54-.06-1.11-.11-1.71-.17-2.22-.22-4.86-.48-7.1-.94l-2.24 4.22c-.51.84-1.0499 1.52-1.67 2.11zm14.08-42.15c-.32 0-.64-.03-.98-.08-1.61-.26-3.29-1.47-4-2.88-.57-1.11997-.75-3.51997-.69-4.89997-.04.13-.08.27-.12.42-.94 3.78997-2.18 6.02997-3.79 6.83997-1.3.66-2.54.3-3.69-.18l-1.5-.63 1.52-.57c1.62-.61 2.33-1.55 3.08-5.65997.33-1.78 1.02-2.97 2.07-3.55 1.31-.71 2.85-.32 4.01.12 1.19-.86 2.98-1.17 4.79-.84 1.71.32 3.07 1.18 3.63 2.29.26.51.4 1.11.44 1.78.06 1.08-.17 3.56-.68 4.97997-.65 1.84-2.15 2.86-4.09 2.86zm-3.75-3.38c.57.97 1.83 1.85 2.97 2.03 1.05.17 2.92.14 3.66-1.92.36-.98997.57-2.71997.61-3.83997-.61 1.11-1.57 2.13-2.73 2.83-1.44.87997-3 1.17997-4.51.89997zm-7.61 1.83c.42.05.82-.01 1.2-.2 1.24-.62 2.29-2.63997 3.12-5.99997.14-.57.48-1.96 1.78-2.35-.95-.27-1.67-.25-2.22.04-.69.38-1.17 1.27-1.42 2.65-.59 3.25-1.23 4.88997-2.46 5.85997zm7.17-3.28997c1.86.66 3.47-.04 4.28-.54 1.53-.93 2.67-2.57 2.83-4.02-.49-.57-1.39-1.02-2.46-1.22-1.57-.3-3.15.01-4.01.79-.2.18-.36.38-.49.61-.16.28-.26.6-.31.95-.1.75-.04 2.26.16 3.43z" fill="#f6a1ba"/></svg>