<svg fill="none" height="41" width="40" xmlns="http://www.w3.org/2000/svg"><path d="M23.21 40.56c-.28 0-.59-.04-.9-.16-.54-.2-.93-.52-1.19-.94-.18-.31-.29-.67-.3-1.04-.01-.05-.02-.1-.02-.16l.01-6.26c0-.35.29-.64.64-.64s.64.29.64.64v4.26c.91-.39 1.81.02 2 .11a.634.634 0 01-.57 1.13c-.01 0-.57-.29-1-.04-.23.13-.33.36-.37.52-.07.28-.04.6.09.81.15.25.43.36.54.4.54.2 1.09-.03 1.39-.16.25-.11.38-.21.64-.4l.23-.17c.04-.04.12-.11.22-.2l.06-.06c.6-.56.79-1.4.49-2.1-.4-.92-1.5-1.1-1.52-1.1a.64.64 0 01-.54-.72c.05-.35.38-.58.72-.54.18.03 1.82.31 2.5 1.84.21.49.29 1.02.23 1.53.32-.12.65-.22.97-.31.65-.18 1.21-.34 1.63-.76.49-.48.83-1.18 1.02-2.09v-.01c.02-.56-.23-1.13-.66-1.53-.02-.01-.03-.03-.05-.04-.15-.13-.32-.24-.51-.32-.96-.41-1.89.15-1.93.18-.3.18-.69.09-.88-.21-.18-.3-.09-.69.21-.88.13-.08 1.08-.62 2.24-.49-.16-.87.03-1.76.58-2.46 1.01-1.28 2.69-1.16 2.88-1.14.35.03.61.34.57.69a.63.63 0 01-.69.57c-.01 0-1.16-.1-1.77.67-.54.68-.46 1.74.19 2.48.46.43.8.99.96 1.61 5.39-3.06 3.98-8.63 3.37-10.39-1.58.43-3.2-.03-4.02-1.2-.48-.69-.56-1.45-.52-2-.17-.04-.31-.08-.4-.11a.636.636 0 11.42-1.2c.22.08.81.22 1.44-.04.58-.25.86-.71.96-.9a.634.634 0 011.13.57 3.215 3.215 0 01-2.27 1.71c-.03.35 0 .84.29 1.25.57.8 1.86 1.04 3.04.57.85-.61 1.5-1.37 1.95-2.25.55-1.1 1.02-2.93.09-5.39-.58-1.53-1.57-2.58-2.4-3.24-.24.94-.83 2.28-2.3 3.12-1.42.82-3.15.88-4.62.21-.17.41-.27.94-.22 1.65.03.35-.23.66-.58.69a.64.64 0 01-.69-.58c-.26-3.25 2.06-4.07 2.15-4.1.33-.12.69.07.81.4.11.33-.06.69-.39.81-.02.01-.11.04-.24.12a3.8 3.8 0 003.14-.28c1.78-1.02 1.82-3.01 1.82-3.13v-.05c.04-.47.05-1.71-.69-2.9-.97-1.58-2.94-2.44-5.04-2.21-.56.38-.86 1.02-.79 1.66.11.95 1.02 1.38 1.06 1.4.32.15.46.53.31.84-.15.32-.52.46-.84.31-.59-.27-1.64-1.08-1.79-2.41-.11-.94.25-1.88.93-2.53-.49-.53-1.41-1.29-2.71-1.37-1.05-.05-1.87.32-2.37.65v3.37c0 .35-.28.64-.64.64s-.64-.29-.64-.64v-3.7c0-.2.09-.38.25-.51.59-.45 1.83-1.19 3.48-1.09 2 .12 3.29 1.42 3.83 2.08 2.51-.21 4.85.88 6.05 2.83.76 1.24.9 2.48.89 3.28 1.03.69 2.58 2.04 3.41 4.23 1.1 2.9.53 5.09-.14 6.42-.48.94-1.15 1.77-2.01 2.46.67 1.9 2.56 8.93-4.49 12.41-.27 1.06-.7 1.86-1.3 2.44-.66.64-1.46.87-2.18 1.07-.29.08-.58.16-.87.28-1.1.44-1.74 1.07-1.74 1.08-.02.02-.05.05-.08.07l-.26.19c-.3.23-.52.39-.91.56-.26.11-.79.34-1.43.34zm-6.22-.01c-.65 0-1.2-.23-1.45-.34-.39-.17-.61-.33-.91-.56l-.26-.19a.27.27 0 01-.08-.07s-.64-.64-1.74-1.08c-.28-.11-.58-.19-.87-.28-.71-.2-1.52-.43-2.18-1.07-.61-.6-1.05-1.42-1.31-2.44-7.04-3.48-5.15-10.51-4.48-12.4a7.484 7.484 0 01-2.01-2.45c-.67-1.33-1.24-3.53-.14-6.42.83-2.19 2.39-3.54 3.41-4.23-.01-.8.13-2.04.89-3.28 1.2-1.95 3.54-3.04 6.05-2.83.56-.7 1.84-1.96 3.83-2.08 1.65-.11 2.89.64 3.48 1.09.16.12.25.31.25.51v3.7c0 .35-.28.64-.64.64s-.64-.29-.64-.64V2.76c-.5-.33-1.33-.7-2.37-.65-1.3.08-2.22.84-2.71 1.37.69.66 1.04 1.59.93 2.53-.19 1.62-1.63 2.33-1.79 2.41a.64.64 0 11-.54-1.16c.04-.02.95-.45 1.06-1.4.08-.64-.23-1.28-.79-1.66-2.09-.23-4.06.63-5.04 2.21-.73 1.19-.72 2.42-.69 2.9v.05c0 .1.03 2.1 1.82 3.13.96.55 2.11.65 3.14.28a.928.928 0 00-.24-.12c-.33-.12-.5-.48-.38-.81s.47-.51.8-.39c.1.03 2.42.86 2.15 4.1a.638.638 0 01-1.27-.11c.06-.7-.05-1.24-.22-1.65-1.48.67-3.21.61-4.62-.21-1.47-.84-2.06-2.18-2.29-3.12-.83.66-1.82 1.71-2.4 3.24-.94 2.46-.47 4.29.09 5.39a6.34 6.34 0 001.95 2.25c1.17.47 2.47.24 3.04-.57.29-.42.32-.9.29-1.25-.22-.04-.45-.11-.68-.21-.93-.4-1.4-1.11-1.59-1.5a.63.63 0 111.13-.56c.09.19.37.65.96.9.65.28 1.27.11 1.44.05a.636.636 0 11.42 1.2c-.1.03-.23.08-.4.11.03.55-.04 1.31-.52 2-.82 1.17-2.44 1.62-4.02 1.2-.62 1.77-2.03 7.35 3.38 10.4.16-.63.49-1.19.94-1.61.65-.74.73-1.81.19-2.49-.61-.77-1.76-.67-1.77-.67-.35.03-.66-.22-.69-.57s.22-.66.57-.69c.19-.01 1.87-.13 2.88 1.14.55.7.74 1.59.58 2.45 1.17-.13 2.11.41 2.24.49.3.18.39.58.21.88s-.58.4-.88.21c-.04-.02-.97-.58-1.93-.18-.19.08-.36.19-.51.32l-.03.03c-.44.4-.69.99-.66 1.63v.01c.17.82.52 1.53 1.01 2 .43.42.99.58 1.63.76.32.09.65.18.97.31-.06-.52.02-1.04.23-1.53.67-1.54 2.31-1.82 2.5-1.84.35-.04.67.19.72.54s-.19.67-.54.72c-.01 0-1.11.18-1.52 1.1-.31.7-.11 1.54.49 2.1l.06.06c.1.09.18.16.22.2l.23.17c.26.2.4.3.65.41.3.13.85.37 1.39.16.11-.04.39-.15.54-.4.13-.22.16-.53.09-.81a.79.79 0 00-.37-.52c-.43-.24-.99.04-.99.04-.31.16-.7.04-.86-.28a.63.63 0 01.27-.85c.11-.06 1.06-.52 2-.11v-4.26c0-.35.28-.64.64-.64.35 0 .64.29.64.64l.01 6.26c0 .05-.01.11-.02.16-.02.37-.12.74-.3 1.04-.25.42-.65.74-1.18.94-.3.08-.61.12-.89.12zm6.88-12c-.18 0-.38-.02-.58-.05-.29-.05-1.29-.3-1.94-1.18-.41-.56-.59-1.24-.54-1.94l-.09-15.63c0-.3.21-.57.51-.63s.6.1.71.38c.21.5.72.82 1.21.75.53-.09.79-.65.79-.66.14-.32.52-.46.84-.32s.47.52.32.84c-.04.08-.28.61-.81 1 .37.52.74 1.3.71 2.3-.01.35-.31.65-.66.62a.639.639 0 01-.62-.66c.03-.89-.46-1.54-.72-1.83-.33-.04-.7-.08-1.02-.23l.07 11.76c.46-.35 1.11-.69 1.93-.8.19-.03.38-.03.57-.04.83-.05 1.53-.56 1.73-1.26.22-.74-.23-1.41-.33-1.53-.21-.28-.15-.68.13-.89s.68-.15.89.13c.22.3.91 1.36.53 2.65a2.94 2.94 0 01-.96 1.43c.48.26.79.53.9.63.26.24.27.64.03.9s-.64.27-.9.03c-.18-.16-1.12-.97-2.42-.79-.94.13-1.54.69-1.79.97-.41.7-.41 1.52-.01 2.07.38.52 1.02.66 1.14.68.47.09.88-.02 1.14-.13.33-.14.7.01.83.34.14.32-.01.7-.34.83-.28.13-.72.26-1.25.26zm-7.54 0c-.53 0-.98-.13-1.28-.26a.644.644 0 01-.34-.83c.14-.32.51-.47.83-.34.26.11.66.22 1.14.13.12-.02.76-.16 1.14-.68.4-.55.4-1.38-.01-2.08-.24-.27-.84-.84-1.78-.96-1.34-.18-2.31.69-2.42.79-.26.24-.66.23-.9-.03s-.23-.66.03-.9c.11-.1.42-.38.9-.64a2.94 2.94 0 01-.96-1.43c-.4-1.34.37-2.45.53-2.66.21-.28.61-.34.89-.12.28.21.34.61.12.89-.09.12-.55.78-.32 1.53.21.7.9 1.21 1.73 1.26.18 0 .37.01.57.04.83.11 1.48.46 1.93.8l.07-11.76c-.32.15-.68.23-1.02.23-.27.28-.75.93-.72 1.83.01.35-.26.65-.62.66-.36.04-.65-.26-.66-.62-.03-1 .34-1.78.71-2.3-.5-.37-.75-.86-.81-.99-.14-.32 0-.7.32-.84s.7 0 .84.32c.01.02.26.57.8.66.48.08 1-.24 1.21-.75a.634.634 0 011.22.25l-.08 15.65c.04.69-.14 1.37-.55 1.92-.65.88-1.64 1.12-1.93 1.18-.2.04-.4.05-.58.05z" fill="#f6a1ba"/></svg>