<svg fill="none" height="41" width="30" xmlns="http://www.w3.org/2000/svg"><path d="M20.6 40.14c-1.49 0-2.91-.49-4.13-.99-2.05-.83-3.86-1.94-5.12-3.11-1.69-1.57-5.53-5.8-5.26-11.72-.68-.85-3.11-4.18-2.73-7.61V5.83c0-.11-.1-3.03-2.51-3.55-.34-.07-.56-.41-.49-.76s.41-.56.76-.49c2.72.58 3.49 3.38 3.51 4.78v7.77c.7-.91 1.65-1.61 2.73-2.05.03-.1.06-.21.1-.31a.644.644 0 01-1.08-.47V9.62c0-.94.77-1.7 1.73-1.7.35 0 .64.29.64.64 0 .03 0 .06-.01.09.38-.54.8-1.02 1.26-1.44l.02-.02.03-.03c.44-.43.59-1 .42-1.51l-.38-1.15c-.09-.27-.07-.57.06-.83s.37-.47.66-.55l1.22-.37c.56-.17 1.17.14 1.37.69l.36 1.09c.11.32.46.51.8.45.34-.07.58-.32.61-.62l.13-1.27c.07-.58.58-1.01 1.16-.95l1.32.11c.28.02.55.16.74.38.18.22.27.51.24.79l-.15 1.45c-.02.14.08.28.23.31.18.05.34-.03.4-.17l.56-1.36c.23-.57.88-.85 1.47-.65l1.08.39c.3.11.54.33.67.61.13.29.13.6.02.89l-.53 1.3c-.16.38-.06.81.24 1.08.43.39.82.82 1.15 1.27h4.04c1.08 0 1.9 1.3 1.9 3.02 0 1.66-.79 2.86-1.88 2.87-.03 0-.08 0-.17.01.32.79.42 1.75.44 2.16.12 1.73-.21 3.76-1.48 4.3-.06.03-.12.05-.19.07.98 2.14 1.49 4.36 1.47 6.48-.01 1.35-.22 2.78-.64 4.28 0 .02-.01.04-.02.06-.33 1.17-.77 2.38-1.34 3.62-.88 1.93-2.36 4.52-5.02 4.69-.13.04-.27.04-.41.04zm2.11-30.29c-2.35 0-4.64.55-6.65 1.59l-.2.11c-3.17 1.71-5.74 4.55-7.24 8.01-.47 1.08-1.11 2.56-1.24 4.59-.36 5.51 3.26 9.49 4.83 10.95 1.15 1.07 2.84 2.09 4.74 2.87.88.36 1.89.72 2.91.84l-.67-.58-1.25-.2a.642.642 0 01-.53-.73.64.64 0 01.73-.53l.49.08-.12-.5-.66-1.42a.64.64 0 111.16-.54l.2.43.01-.02c.19-.3.58-.38.88-.19.29.19.38.58.19.88l-.49.76.24 1.02.6.52.57-.62-.11-.8a.641.641 0 011.27-.17l.04.28.74-.3c.33-.13.7.03.83.35 0 0 0 .01.01.01.35-.56.65-1.15.89-1.68.51-1.12.92-2.2 1.22-3.24l-.25-.53-.55.22-.38.84c-.14.32-.52.46-.84.32s-.46-.52-.32-.84l.28-.62-.31-.24a.636.636 0 01.77-1.01l.42.32.39-.16-.21-.46-2.08-1.48c-.29-.2-.35-.6-.15-.89s.6-.36.89-.15l1.21.86v-.15c0-.35.28-.64.64-.64s.64.29.64.64v1.24l.32.69c.13-.75.19-1.48.19-2.17.01-2.11-.55-4.35-1.62-6.49-.07-.07-.22-.17-.39-.29a.138.138 0 00-.04-.03c-.19-.13-.4-.27-.55-.38a11 11 0 01-.8-.56l-.12-.1c-1.06-.89-2.65-2.24-2.36-3.93.01-.09.04-.18.05-.23.09-.34.45-.54.78-.45.34.09.54.43.45.77l-.01.02c0 .01-.02.1-.02.11-.17.98 1.09 2.04 1.93 2.74l.12.1c.11.09.39.28.69.48.22.15.4.27.55.37.36.17.66.22.83.15.26-.11.59-.65.7-1.8.14-1.62-.26-3.12-.57-3.43-.78.03-1.72.05-2.52.05h-.84c-2.77 0-5.25 1.32-6.77 3.36-.01.31.09 1.39 1.86 2.75a.636.636 0 01-.77 1.01c-.17-.13-.33-.26-.47-.39l-.35.79c-.14.32-.52.47-.84.33s-.47-.52-.33-.84l.35-.79-.08-.86c-.11-.16-.2-.32-.27-.47a7.84 7.84 0 00-.66 2.6l.22.7.69.97c.21.29.14.68-.15.89a.64.64 0 01-.89-.15l-.51-.71c-.08.11-.17.22-.27.33l-.54 1.62.46 1.08 2.46 1.02c.33.13.48.51.35.83s-.5.48-.83.34l-1.99-.82-.05.22c-.07.34-.41.56-.75.49s-.56-.41-.49-.75l.16-.77-.58-1.35a.634.634 0 01-.02-.45l.15-.45-.4.22c-.31.17-.69.06-.86-.25s-.06-.7.25-.86l1.74-.96c.34-.37.53-.75.57-1.15v-.02c.12-1.72.71-3.3 1.63-4.63.04-.1.1-.19.18-.26a9.688 9.688 0 017.79-3.89h.84c.79 0 1.72-.03 2.49-.05-.21-.46-.32-1.03-.32-1.67v-.06c-.47-.06-.94-.1-1.41-.12-.04.02-.09.04-.14.05-.2.04-.64.2-.56.7.06.35-.17.67-.52.73a.627.627 0 01-.73-.52c-.06-.34-.03-.65.06-.91-.94.08-1.88.26-2.8.53-.33.1-.69-.1-.79-.43-.1-.34.1-.69.44-.79 1.53-.44 3.11-.63 4.67-.64.65.01 1.31.06 1.97.14.04-.15.09-.29.15-.43h-3.65zm-1.09 28.8l.06.05c.62-.22 1.15-.64 1.61-1.16l-1.02.41zM10.08 12.29c-1.79 0-3.45.8-4.46 2.13-2.06 2.73-.44 6.19.71 8.02.28-1.42.75-2.51 1.13-3.37 1.16-2.67 2.9-5 5.06-6.78zm17.86-2.44c-.16 0-.63.6-.63 1.74 0 1.05.41 1.6.63 1.6s.62-.55.62-1.6c0-1.14-.46-1.74-.62-1.74zM10.87 8.17a8.17 8.17 0 00-2 2.95c.4-.07.8-.1 1.21-.1h4.18c.32-.21.66-.4 1-.58l.22-.12c2.05-1.07 4.37-1.66 6.76-1.73-.11-.12-.23-.23-.35-.34a2.25 2.25 0 01-.56-2.5l.49-1.2-.88-.28-.52 1.26c-.07.17-.17.32-.28.45.1.1.2.2.29.31.23.27.19.67-.08.9s-.67.19-.9-.08a2.142 2.142 0 00-.95-.66h-.01c-.75-.22-1.22-.91-1.14-1.67l.13-1.24-.92-.08-.11 1.07c-.02.15-.05.3-.1.44.16.04.3.09.43.17.31.17.41.56.24.87-.18.3-.56.41-.87.24-.18-.1-.8-.08-1.26.01-.01 0-.02 0-.03.01h-.02c-.02 0-.05.01-.07.01h-.01c-.92.17-1.88-.39-2.19-1.3l-.31-.92-.88.27.32.97c.1.31.15.63.14.94.3-.08.61-.14.92-.15.36.01.65.25.67.6s-.25.65-.6.67a2.7 2.7 0 00-.69.12c-.45.13-.87.37-1.24.7-.01-.02-.02-.02-.03-.01zm-2.42.95a.63.63 0 01-.33.09c-.25 0-.45.19-.45.43v1.04c.22-.55.48-1.07.78-1.56zm.79-2.36h-.99c-.88 0-1.63-.65-1.74-1.52-.42-3.16-1.79-3.69-1.8-3.7a.656.656 0 01-.4-.8.64.64 0 01.78-.42c.22.06 2.15.75 2.68 4.74.03.24.23.41.48.41h.99a.644.644 0 010 1.29z" fill="#f6a1ba"/></svg>