<svg fill="none" height="31" width="49" xmlns="http://www.w3.org/2000/svg"><path d="M38.2 30.82c-2.18 0-4.08-1.68-4.27-3.82-.09-.98.17-1.93.72-2.71-2.14-.39-6.59-1.37-8.74-3.14-1.13-.93-1.51-1.77-1.54-2.7l-2.16-.15c-2.44-.09-4.53-.43-6.36-1.03-3.42-1.13-5.61-3.82-7.73-6.42-.69-.85-1.4-1.72-2.14-2.51-1.11-1.2-2.1-2.11-3.11-2.86-.84-.63-2.4-1.8-1.71-3.67C1.56.73 2.67.18 4.47.18h31.56c6.92 0 12.55 5.51 12.55 12.29V27c0 1.33-.76 2.52-1.99 3.09-1.26.59-2.71.4-3.77-.49-.35-.29-.69-.57-1.02-.82-.14.24-.31.47-.5.67-.76.84-1.81 1.32-2.95 1.37-.04-.01-.1 0-.15 0zm-1.9-6.46c-.77.61-1.18 1.55-1.1 2.52.13 1.53 1.52 2.69 3.11 2.66.8-.03 1.53-.37 2.06-.95.56-.61.85-1.45.8-2.3-.09-1.53-.86-2.67-1.75-3.99l-.09-.13c-.79-1.17-1.16-2.52-1.16-4.25v-.5c0-1.07-.89-1.93-1.98-1.95-.25.02-.88.16-1.19.56-.19.26-.24.6-.15 1.06.07.34-.15.68-.5.75s-.68-.15-.75-.5c-.18-.89.02-1.52.27-1.92-.72-.08-1.41-.26-2.05-.55-.41-.02-1.29.04-1.8.49-.3.27-.45.64-.46 1.15a.65.65 0 01-.65.62.636.636 0 01-.62-.65c.02-.87.32-1.57.9-2.08.3-.27.65-.45 1-.57-.47-.41-.89-.88-1.23-1.41l-.62-.95a.634.634 0 01.19-.88c.29-.19.69-.11.88.19l.62.95c.55.84 1.3 1.49 2.18 1.91.04.01.09.03.13.06.7.31 1.47.48 2.27.48h1.58c1.8 0 3.27 1.45 3.27 3.22v.5c0 1.46.3 2.58.94 3.54l.09.13c.95 1.41 1.85 2.75 1.96 4.63.03.46-.02.91-.12 1.34.43.32.88.67 1.34 1.06.81.68 1.78.61 2.41.31.78-.37 1.25-1.09 1.25-1.94V12.44c0-6.07-5.06-11.02-11.28-11.02H23.01c1.6 1.71 4.22 5.22 3.92 9.69-.15 2.28-.58 3.94-.9 5.15-.53 2.04-.71 2.73.69 3.89 2.28 1.87 7.83 2.83 9.06 3.02.43-.31.84-.65.92-.79.18-.3.57-.41.87-.23.3.17.41.55.24.85-.28.5-1.13 1.11-1.51 1.36zM4.48 1.43c-.83 0-1.87.14-2.12.8-.3.82.22 1.41 1.28 2.22 1.07.8 2.11 1.76 3.27 3.01.76.82 1.49 1.71 2.19 2.58 2.09 2.57 4.07 5 7.14 6.01 1.71.57 3.69.88 6.03.97l2.22.16c.08-.38.18-.79.3-1.22.32-1.23.72-2.75.86-4.92.33-5-3.61-8.83-4.47-9.6H4.48zM23.5 9.16c-.32 0-.59-.24-.63-.56-.21-1.69-1.12-3.16-1.83-4.1a2.924 2.924 0 00-2.32-1.13h-7.46c-.35 0-.64-.29-.64-.64s.28-.64.64-.64h7.46c1.3 0 2.55.61 3.33 1.63.82 1.06 1.84 2.74 2.09 4.72.04.35-.2.67-.55.71-.03 0-.06.01-.09.01z" fill="#f6a1ba"/></svg>