<svg fill="none" height="337" width="356" xmlns="http://www.w3.org/2000/svg"><linearGradient id="a" gradientUnits="userSpaceOnUse" x1="202.13" x2="202.13" y1=".483" y2="336.468"><stop offset=".26" stop-color="#9e79b6"/><stop offset="1" stop-color="#9e79b6" stop-opacity="0"/></linearGradient><path d="M140.932 20.492C36.94 64.429-25.951 145.517 10.642 245.18c36.592 99.65 143.696 110.728 247.703 66.791 103.991-43.938 172.389-107.509 135.797-207.158C357.535 5.15 244.938-23.46 140.932 20.492z" fill="url(#a)"/><path d="M60.948 168.661c0 98.054 77.722 146.022 168.337 146.022S389.09 285.16 389.09 187.12v-.029c-.014-98.04-77.002-162.916-167.617-162.916h-.015c-90.6 0-160.51 46.446-160.51 144.486z" fill="#90479b"/><path d="M248.639 302.822c82.318 0 145.811-37.586 145.811-116.949S323.85 67.677 241.532 67.677c-82.319 0-145.166 23.897-145.166 103.26s69.969 131.885 152.273 131.885z" fill="#f6a1ba"/></svg>