<svg fill="none" height="180" viewBox="0 0 191 180" width="191" xmlns="http://www.w3.org/2000/svg"><path d="m189.816 78.7829c.186.5382.534 1.1909.356 1.6166-.141.3594-.945.7232-1.41.6757-1.181-.1286-2.352-.2773-3.516-.432l-1.742-.2531-1.745-.2392-2.546-.3813c-.845-.1339-1.684-.2598-2.533-.3655-1.698-.2116-3.365-.4475-5.047-.6212-.492-.0513-1.1.1246-1.461-.1159-.571-.3685-1.217-.9323-1.371-1.5448-.098-.3911.547-1.1613 1.024-1.526.214-.1641 1.078-.1704 2.265-.0839 1.203.0744 2.715.2897 4.249.5509 3.091.4681 6.179 1.2283 6.756 1.3407l.268-.4066c-2.258-.5642-4.504-1.2125-6.942-1.9789-.772-.2526-1.555-.535-2.366-.8212-.812-.2721-1.649-.576-2.513-.8977-.863-.3217-1.734-.6873-2.656-1.0523-.915-.3572-1.869-.748-2.855-1.1645-4.874-2.0249-9.819-3.8951-14.872-5.4303-5.045-1.5412-10.158-2.8418-15.324-3.8498-10.334-2.0521-20.89-2.864-31.392-2.5343-10.5028.3436-20.9602 1.8989-31.1411 4.5396s-20.0713 6.3686-29.5292 10.9743c-11.8087 5.7626-23.1789 12.625-33.5304 20.7855-1.57004 1.2393-3.23445 2.6515-4.79244 3.6926-1.558 1.0407-3.00958 1.7107-4.24606 1.4607 1.84947-2.7496 4.24525-5.2629 6.88688-7.5866 2.64962-2.3297 5.57912-4.4582 8.61572-6.4797 9.0186-5.9695 18.6577-10.865 28.3805-15.3714 8.5161-3.9606 17.367-7.2204 26.4541-9.6285 9.081-2.416 18.3843-3.9821 27.7725-4.631 4.6885-.3394 9.4045-.397 14.1025-.2645 4.701.1545 9.401.487 14.067 1.1219 4.66.6269 9.304 1.43 13.901 2.4836 1.15.2529 2.287.5539 3.434.8348l1.712.4274 1.699.4756c1.133.3291 2.27.6301 3.401.9731l3.369 1.0615c5.195 1.7038 10.484 3.0207 15.651 5.0347 3.603 1.4492 7.185 3.1026 10.702 4.8687-.018-.0238-.043-.0556-.061-.0794-.755-.9208-1.543-1.8032-2.296-2.7379-1.085-1.3356-2.109-2.7558-3.069-4.1745-.221-.3219-.028-1.2878.309-1.5211.322-.2211 1.103.0753 1.633.2742.299.1111.499.4872.696.7773.778 1.1165 1.569 2.1989 2.387 3.2351.409.518.834 1.0239 1.259 1.5299.417.5119.85 1.0118 1.291 1.5055.875.9796 1.8 1.9087 2.767 2.7934.949.9108 1.961 1.7731 3.025 2.5708.213.164.445.3517.523.569z" fill="#f9c5d3"/></svg>