<svg fill="none" height="44" viewBox="0 0 53 44" width="53" xmlns="http://www.w3.org/2000/svg"><g fill="#feeff1"><path d="m46.07 27.5039h-40.07c-3.31 0-6-2.69-6-6s2.69-6 6-6h40.07c3.31 0 6 2.69 6 6s-2.69 6-6 6z"/><path d="m29.4004 43.0039c-1.61 0-3.21-.64-4.39-1.91-2.26-2.43-2.12-6.22.31-8.48l11.94-11.11-11.95-11.11c-2.43-2.25002-2.56-6.05002-.31-8.48002 2.26-2.430003 6.05-2.560003 8.48-.31l16.67 15.50002c1.22 1.14 1.91 2.73 1.91 4.39s-.69 3.26-1.91 4.39l-16.67 15.52c-1.16 1.07-2.62 1.6-4.08 1.6z"/></g></svg>