<svg fill="none" height="21" viewBox="0 0 21 21" width="21" xmlns="http://www.w3.org/2000/svg"><g fill="#fff"><path d="m10.5 14.8751c-.3623 0-.65625-.294-.65625-.6563v-13.56255c0-.362251.29395-.65625.65625-.65625s.6562.293999.6562.65625v13.56255c0 .3623-.2939.6563-.6562.6563z"/><path d="m10.4998 14.875c-.1681 0-.336-.0639-.4638-.1926l-3.49999-3.4999c-.25635-.2564-.25635-.672 0-.9285.25635-.25632.67195-.25632.92846 0l3.03613 3.0363 3.0363-3.0363c.2563-.25632.6721-.25632.9284 0 .2564.2565.2564.6721 0 .9285l-3.5001 3.4999c-.1294.1287-.2973.1926-.4654.1926z"/><path d="m18.5937 21.0001h-16.1874c-1.3274 0-2.4063-1.0789-2.4063-2.4063v-3.9375c0-.3623.293999-.6563.65625-.6563.36225 0 .65625.294.65625.6563v3.9375c0 .6028.49091 1.0938 1.0938 1.0938h16.1874c.6029 0 1.0938-.491 1.0938-1.0938v-3.9375c0-.3623.294-.6563.6563-.6563.3622 0 .6562.294.6562.6563v3.9375c0 1.3274-1.0789 2.4063-2.4063 2.4063z"/></g></svg>