<svg fill="none" height="100" viewBox="0 0 82 100" width="82" xmlns="http://www.w3.org/2000/svg"><path d="m43.3601 66.01h-36.82999c-1.75 0-3.4-.68-4.64-1.93-1.23-1.24-1.89999966-2.88-1.88999966-4.63l.05999996-9.89c.1199997-2.98 1.7499997-5.68 4.2299997-7.07.71-.39 1.47-.69 2.26-.87l1.42-.45 9.11999-2.9c.34-.1.68.07.8.4l.19.52c.49-.37 1.11-.99 1.44-1.93.2-.56.27-1.18.2-1.79-.56-.53-1.07-1.14-1.54-1.81-1.68-2.66-2.84-5.48-3.45-8.41 0-.01-.02-.11-.02-.12-.21-1-.32-2.12-.32-3.29v-.43c0-.25.15-.48.38-.59 5.23-2.33 6.26-7.07 6.35-7.54 0-.01 0-.02.01-.04.06-.35.4-.58.74-.52.29.05.5.29.53.57.01.03.01.06.02.08l.02.1c0 .01 0 .01.01.02.03.08.05.17.08.26l.31.79c.01.02.05.12.06.13.01.02.05.11.06.14l.05.11.04.07c.09.17.14.25.18.34l.1.17c.16.26.32.49.49.72.01.01.02.03.03.04l.24.3c.1.13.2.24.3.35.09.1.17.18.25.26.09.09.18.18.28.27.02.01.04.03.05.04.06.05.13.11.2.18.06.05.09.08.13.11.11.09.17.14.23.18.01 0 .08.07.09.07l.15.12c.17.12.3.21.43.3l.11.07c.01.01.1.07.11.07.05.04.11.07.16.1l.09.06s.12.06.15.08c.27.16.54.31.83.44l.15.07c.02.01.05.02.07.03.04.02.08.04.13.05l.11.05c.11.05.19.08.28.12.01 0 .09.04.1.04.06.03.12.05.19.07.12.05.2.08.29.1.01 0 .08.03.09.03.04.01.09.03.13.05.07 0 .07.02.13.05l.66.2c.01 0 .15.04.16.05l.1.02c.11.03.23.06.34.09.24.06.48.11.73.16l.45.09c.25.04.53.08.82.11.12.02.21.03.3.04l.15.02c.13.01.26.03.39.04l.48.04c.01-.01.09 0 .16.01l.29.02c.08.01.16.01.23.01l.7.02c.35.01.63.29.63.64v.32c0 1.09-.1 2.18-.31 3.22 0 .02-.01.09-.03.17v.01l-.11.52c-.08.39-.18.8-.29 1.23l-.18.66c-.22.79-.47 1.51-.77 2.22-.06.14-.1.26-.16.38-.03.07-.07.17-.12.26l-.06.13c-.19.41-.4.81-.63 1.22-.1.18-.21.35-.32.54-.12.2-.25.4-.39.6-.11.16-.23.32-.35.49l-.06.08c-.01.02-.03.04-.05.06-.09.12-.25.31-.47.57l-.1.11c-.24.26-.44.48-.68.72-.17.17-.37.36-.57.54-.09.09-.19.17-.3.26-.03.69.12 1.35.44 1.94.26.46.58.81.9 1.07l.1-.26c.12-.32.47-.5.79-.39l11.2 3.45c.76.17 1.52.46 2.22.86 2.49 1.39 4.11 4.09 4.23 7.04l.06 9.92c.01 1.75-.66 3.39-1.89 4.63-1.25 1.28-2.89 1.96-4.65 1.96zm-35.38999-23.48-1.08.34c-.72.17-1.37.41-1.97.75-2.1 1.17-3.47 3.46-3.58 5.97l-.06 9.87c-.01 1.4.53 2.72 1.52 3.72s2.32 1.55 3.73 1.55h36.82999c1.41 0 2.73-.55 3.73-1.55.99-1 1.53-2.32 1.52-3.72l-.06-9.89c-.1-2.49-1.47-4.78-3.57-5.95-.6-.34-1.25-.58-1.92-.73l-1.12-.32-16.31 18.52c-.11.12-.26.2-.41.21-.03 0-.05.02-.08 0-.18 0-.35-.07-.48-.21zm10.85999-1.27 6.26 17.38 5.29-17.08c-1.27.72-3.03 1.41-5.21 1.47-2.81.08-4.99-.91-6.34-1.77zm13.38-1.21-5.56 17.93 13.94-15.83-8.21-2.56-.15.41c-.01.02-.02.03-.02.05zm-22.89999 2.05 14.09999 15.69-6.52-18.1zm9.86999-2.15c1.15.8 3.24 1.88 5.96 1.8 2.47-.07 4.33-1.04 5.45-1.83-.46-.35-.95-.85-1.33-1.54-.28-.51-.46-1.06-.55-1.63-.59.39-1.17.7-1.75.91-.55.21-1.08.29-1.11.29-.48.06-.99.06-1.45-.01-.36-.07-.7-.16-1.06-.27-.81-.27-1.6-.66-2.34-1.17-.04.4-.13.8-.27 1.18-.35 1.04-.98 1.78-1.55 2.27zm1.62-5.23c.13.12.26.23.39.33.81.65 1.64 1.11 2.55 1.41.3.1.6.17.89.23.29.04.71.04 1.05 0 0 0 .42-.06.82-.22.77-.29 1.58-.79 2.41-1.47.02-.02.04-.03.06-.05.14-.12.27-.23.4-.34.19-.17.37-.34.53-.5.21-.21.41-.42.57-.6l.16-.17c.22-.25.36-.43.42-.51.01-.01.03-.03.04-.05l.04-.06c.11-.15.23-.31.33-.46.13-.19.25-.36.35-.54.11-.17.21-.34.3-.5.21-.38.41-.75.58-1.12l.16-.36c.06-.12.1-.22.14-.33.29-.69.53-1.37.73-2.09l.17-.65c.11-.41.2-.8.27-1.17l.11-.53c0-.01.01-.03.01-.04 0-.02.01-.1.02-.12.17-.86.27-1.76.28-2.66h-.08c-.1 0-.2-.01-.29-.02l-.88-.06c-.2-.02-.35-.03-.49-.04l-.14-.02c-.11-.01-.22-.03-.34-.04-.27-.03-.57-.08-.85-.12l-.48-.09c-.26-.05-.53-.1-.78-.17-.13-.03-.27-.06-.4-.1-.06-.01-.12-.03-.16-.04l-.75-.22c-.02 0-.03-.01-.05-.01-.08-.02-.16-.06-.24-.09l-.14-.05c-.06-.01-.19-.06-.32-.11-.05-.02-.14-.05-.22-.09-.17-.07-.28-.11-.39-.16l-.25-.11c-.02-.01-.03-.01-.05-.02s-.03-.01-.05-.02l-.18-.09c-.3-.14-.6-.31-.89-.48-.01 0-.04-.02-.06-.04-.06-.03-.14-.07-.21-.13-.1-.06-.19-.11-.27-.18l-.13-.08c-.17-.11-.3-.21-.43-.3-.01 0-.08-.06-.09-.06-.07-.05-.13-.11-.2-.16-.14-.11-.22-.18-.3-.25-.01 0-.07-.06-.13-.11l-.23-.21c-.18-.17-.29-.27-.39-.37s-.19-.2-.28-.3c-.11-.12-.23-.25-.34-.39-.1-.12-.21-.25-.31-.38-.01-.01-.02-.03-.03-.04-.19-.25-.36-.5-.51-.73-.08-.14-.13-.21-.16-.28-.05-.09-.11-.2-.17-.31l-.07-.13c-.04-.07-.06-.13-.08-.17-.78 1.87-2.5 4.69-6.12 6.44v.01c0 1.1.1 2.1.3 3.05 0 .01.02.1.02.11.58 2.76 1.68 5.44 3.26 7.94.44.63.94 1.2 1.47 1.7.05.04.08.06.1.09zm1.62-21.26c0-.03 0-.08-.02-.14.01.05.02.1.02.14zm-11.87 45.47c-.36 0-.63999-.29-.63999-.64v-2.28h-2.29c-.36 0-.64-.29-.64-.64s.29-.64.64-.64h2.28v-2.28c0-.36.28999-.64.63999-.64s.64.29.64.64v2.28h2.28c.36 0 .64.29.64.64s-.29.64-.64.64h-2.28v2.28c.01.35-.28.64-.63.64zm27.26-35.71c-.02 0-.03 0-.05 0-.35-.03-.62-.34-.59-.69.1-1.3.15-2.62.15-3.92 0-4.7-2.4-8.82-6.05-11.14-.1-.03-.19-.09-.26-.16-1.77-1.07-3.83-1.72-6.03-1.82-.18-.01-.35-.01-.47 0-2.2.1-4.25.75-6.03 1.81-.07.08-.16.13-.27.17-3.65 2.32-6.05 6.44-6.05 11.14 0 1.3.05 2.62.15 3.92.03.35-.24.66-.59.69-.35.02-.66-.24-.69-.59-.1-1.34-.16-2.69-.16-4.02 0-5.05 2.53-9.49 6.4-12.07-.04-.27-.06-.54-.06-.81 0-3.16 3.38-5.73 7.53-5.73 4.16 0 7.54 2.57 7.54 5.73 0 .27-.02.54-.07.81 3.87 2.58 6.4 7.02 6.4 12.07 0 1.33-.05 2.69-.16 4.02-.03.34-.31.59-.64.59zm-13.05-19.03c.11 0 .19 0 .27.01 2.15.09 4.17.67 5.96 1.61 0-.03 0-.06 0-.08 0-2.45-2.8-4.45-6.25-4.45-3.44 0-6.25 1.99-6.25 4.45v.08c1.79-.95 3.81-1.52 5.96-1.61.08 0 .17-.01.24-.01h.05z" fill="#9e79b6"/><path d="m52.7705 99.14c-17.35 2.44-31.88-3.85-34.3-21.09s11.27-27.77 28.62-30.21 31.33.89 33.75 18.14c2.42 17.24-10.72 30.72-28.07 33.16z" fill="#bea7d0"/><g fill="#fff"><path d="m42.8403 62.24c-.71 0-1.29.58-1.29 1.29s.58 1.29 1.29 1.29 1.29-.58 1.29-1.29c-.01-.72-.58-1.29-1.29-1.29zm0 3.84c-1.41 0-2.56-1.15-2.56-2.56s1.15-2.56 2.56-2.56 2.56 1.15 2.56 2.56c-.01 1.41-1.15 2.56-2.56 2.56z"/><path d="m53.2499 64.16h-8.49c-.35 0-.63-.28-.63-.63s.28-.63.63-.63h8.49c.35 0 .63.28.63.63 0 .34-.28.63-.63.63z"/><path d="m42.9203 69.03c-.71 0-1.2899.58-1.2899 1.29s.5799 1.29 1.2899 1.29 1.2901-.58 1.2901-1.29-.5801-1.29-1.2901-1.29zm0 3.84c-1.41 0-2.5599-1.15-2.5599-2.56s1.1499-2.56 2.5599-2.56 2.5601 1.15 2.5601 2.56c0 1.42-1.1501 2.56-2.5601 2.56z"/><path d="m53.33 70.95h-8.49c-.35 0-.63-.28-.63-.63s.28-.63.63-.63h8.49c.35 0 .63.28.63.63s-.27.63-.63.63z"/><path d="m42.9203 75.82c-.71 0-1.2899.58-1.2899 1.29s.5799 1.29 1.2899 1.29 1.2901-.58 1.2901-1.29-.5801-1.29-1.2901-1.29zm0 3.84c-1.41 0-2.5599-1.15-2.5599-2.56s1.1499-2.56 2.5599-2.56 2.5601 1.15 2.5601 2.56c0 1.42-1.1501 2.56-2.5601 2.56z"/><path d="m49.4602 77.74h-4.62c-.35 0-.64-.28-.64-.63s.28-.63.64-.63h4.62c.35 0 .63.28.63.63.01.35-.28.63-.63.63z"/><path d="m49.8597 84.74h-11.86c-.71 0-1.28-.58-1.28-1.28v-24.22c0-.71.58-1.28 1.28-1.28h18.17c.71 0 1.28.58 1.28 1.28v12.99c0 .35-.28.63-.63.63s-.63-.28-.63-.63v-12.99c0-.01-.01-.01-.01-.01h-18.18c-.01 0-.01.01-.01.01v24.22c0 .01.01.01.01.01h11.86c.35 0 .63.28.63.63s-.28.64-.63.64z"/><path d="m56.82 72.87c-4.05 0-7.34 3.29-7.34 7.34s3.29 7.34 7.34 7.34 7.34-3.29 7.34-7.34-3.3-7.34-7.34-7.34zm0 15.95c-4.75 0-8.61-3.86-8.61-8.61s3.86-8.61 8.61-8.61 8.61 3.86 8.61 8.61c0 4.74-3.87 8.61-8.61 8.61z"/><path d="m55.3603 85.49c-.01 0-.02 0-.03 0-.26-.01-.48-.18-.57-.42-.75-2.14-2.69-3.74-2.71-3.76-.27-.22-.31-.62-.09-.89s.62-.31.89-.09c.07.06 1.52 1.25 2.52 3.04 1.78-3.6 3.01-5.24 5.06-6.87.28-.22.67-.17.89.1.22.28.17.67-.1.89-1.9 1.51-3.06 2.9-5.29 7.63-.1.23-.32.37-.57.37z"/></g></svg>