<svg fill="none" height="83" viewBox="0 0 96 83" width="96" xmlns="http://www.w3.org/2000/svg"><path d="m51.5601 75.61c-22.87 3.22-42.04999-5.21-45.28999-28.23-3.23-23.02 14.79999-37.04 37.67999-40.26 22.88-3.21 41.32 1.27 44.55 24.29 3.24 23.02-14.06 40.98-36.94 44.2z" fill="#f0ecf6"/><g fill="#9e79b6"><path d="m60.95 24.42c0 4.23-3.39 7.68-7.55 7.68s-7.55-3.44-7.55-7.68c0-4.23 3.39-7.68 7.55-7.68s7.55 3.44 7.55 7.68zm1.06 0c0-4.83-3.86-8.76-8.61-8.76s-8.61 3.93-8.61 8.76 3.86 8.76 8.61 8.76c4.74-.01 8.61-3.93 8.61-8.76z"/><path d="m63.8098 33.8c-.8-1.88-.83-3.97-.09-5.88s2.17-3.41 4.02-4.22c.96-.42 1.96-.63 3-.63 3.01 0 5.73 1.82 6.93 4.63.8 1.88.84 3.97.09 5.88-.74 1.91-2.17 3.41-4.02 4.22-.96.42-1.96.63-3 .63-3.01 0-5.73-1.82-6.93-4.63zm14.83-6.53c-1.37-3.21-4.47-5.28-7.9-5.28-1.18 0-2.33.24-3.42.72-2.11.93-3.74 2.64-4.58 4.81-.85 2.18-.81 4.56.11 6.7 1.36 3.21 4.47 5.28 7.9 5.28 1.18 0 2.33-.24 3.42-.72 2.11-.93 3.74-2.64 4.58-4.82.84-2.16.8-4.54-.11-6.69z"/><path d="m75.6699 28.92-9.62 4.24c-.07.03-.15.05-.22.05-.22 0-.43-.14-.52-.34-.12-.29.01-.63.29-.75l9.62-4.24c.07-.03.15-.05.22-.05.23 0 .43.14.52.34.13.29 0 .62-.29.75zm1.27-1.18c-.26-.6-.84-.99-1.49-.99-.22 0-.44.05-.64.14l-9.62 4.24c-.82.36-1.2 1.33-.84 2.17.26.6.84 1 1.49 1 .22 0 .44-.05.64-.14l9.62-4.24c.81-.37 1.19-1.35.84-2.18z"/><path d="m48.2496 22.91 10.36 1.64c.08.01.15.04.21.08.19.12.29.35.26.57-.05.31-.34.53-.64.48l-10.36-1.64c-.08-.01-.15-.04-.22-.08-.19-.12-.29-.35-.26-.57.06-.31.34-.53.65-.48zm-1.69.31c-.1.65.19 1.3.74 1.65.19.12.3999.2.6199.24l10.3601 1.64c.88.14 1.71-.48 1.85-1.38.1-.65-.19-1.3-.74-1.65-.19-.12-.4-.2-.62-.24l-10.36-1.64c-.88-.14-1.71.48-1.85 1.38z"/></g><g fill="#f6a1ba"><path d="m40.1502 57.19c0 4.23-3.39 7.68-7.55 7.68s-7.55-3.44-7.55-7.68c0-4.23 3.39-7.68 7.55-7.68s7.55 3.45 7.55 7.68zm1.06 0c0-4.83-3.86-8.76-8.61-8.76s-8.61 3.93-8.61 8.76 3.86 8.76 8.61 8.76c4.74 0 8.61-3.93 8.61-8.76z"/><path d="m27.4497 55.68 10.36 1.64c.08.01.15.04.21.08.19.12.29.35.26.57-.05.31-.34.53-.64.48l-10.36-1.64c-.08-.01-.15-.04-.21-.08-.19-.12-.29-.35-.26-.57.05-.31.33-.52.64-.48zm-1.69.31c-.1.65.19 1.3.74 1.65.19.12.4.2.62.24l10.36 1.64c.88.14 1.71-.48 1.8501-1.38.1-.65-.1901-1.3-.7401-1.65-.19-.12-.4-.2-.62-.24l-10.36-1.64c-.88-.13-1.71.49-1.85 1.38z"/><path d="m57.6304 36.99c.06.08.15.17.14.25-.01.07-.12.16-.2.17-.2.03-.4.06-.6.09l-.3.04-.3.04-.44.05c-.14.02-.29.03-.43.06-.29.04-.58.08-.86.13-.08.02-.18.07-.25.05-.11-.04-.24-.1-.3-.19-.04-.06.03-.21.09-.3.03-.04.17-.08.37-.12s.46-.07.73-.1c.53-.06 1.07-.08 1.18-.09l.02-.07c-.4.01-.8.01-1.24-.01-.14-.01-.28-.02-.43-.03s-.3-.02-.46-.03-.32-.03-.49-.05-.34-.04-.53-.06c-.9-.11-1.81-.19-2.71-.22-.9-.02-1.81-.01-2.71.06-1.8.13-3.57.48-5.29 1.01-1.71.53-3.35 1.26-4.9 2.16-1.54.9-2.99 1.96-4.31 3.15-1.66 1.48-3.19 3.13-4.49 4.94-.2.28-.4.58-.6.83-.2.24-.41.42-.63.43.17-.54.44-1.06.76-1.56s.7-.98 1.1-1.46c1.19-1.39 2.53-2.63 3.91-3.82 1.2-1.04 2.5-1.97 3.87-2.78s2.83-1.49 4.34-2.02c.75-.27 1.53-.49 2.31-.68s1.57-.35 2.37-.45c.8-.11 1.6-.19 2.41-.22.2-.01.4-.01.6-.02l.3-.01h.3c.2 0 .4 0 .61.01l.61.02c.94.04 1.87.02 2.82.12.66.07 1.33.18 2 .31-.01 0-.01-.01-.01-.01-.17-.12-.34-.23-.51-.35-.24-.17-.48-.36-.71-.55-.05-.05-.07-.21-.03-.27.04-.05.19-.04.28-.03.05 0 .11.06.15.1.18.15.37.29.55.42.09.07.19.13.28.19.09.07.19.13.29.19.19.12.39.23.59.33.2.11.41.2.62.28.06.02.11.04.13.07z"/></g></svg>