<svg fill="none" height="94" viewBox="0 0 75 94" width="75" xmlns="http://www.w3.org/2000/svg"><path d="m39.7687 92.8447c17.35 2.44 31.88-3.85 34.3-21.09s-11.27-27.77-28.62-30.21-31.33.89-33.75 18.14c-2.40996 17.24 10.73 30.72 28.07 33.16z" fill="#bea7d0"/><g fill="#fff"><path d="m34.808 70.0347c0 .37-.29.66-.66.66h-1.67c-.36 0-.66-.3-.66-.66v-1.68c0-.37.3-.66.66-.66h1.67c.36 0 .66.3.66.66zm-.66-3.66h-1.67c-1.09 0-1.98.89-1.98 1.99v1.68c0 1.1.89 1.99 1.98 1.99h1.67c1.09 0 1.98-.89 1.98-1.99v-1.68c0-1.1-.89-1.99-1.98-1.99z"/><path d="m34.808 76.9247c0 .37-.29.66-.66.66h-1.67c-.36 0-.66-.3-.66-.66v-1.68c0-.37.3-.66.66-.66h1.67c.36 0 .66.3.66.66zm-.66-3.66h-1.67c-1.09 0-1.98.89-1.98 1.99v1.68c0 1.1.89 1.99 1.98 1.99h1.67c1.09 0 1.98-.89 1.98-1.99v-1.68c0-1.1-.89-1.99-1.98-1.99z"/><path d="m41.3881 70.0347c0 .37-.3.66-.66.66h-1.67c-.36 0-.66-.3-.66-.66v-1.68c0-.37.3-.66.66-.66h1.67c.36 0 .66.3.66.66zm-.66-3.66h-1.67c-1.09 0-1.98.89-1.98 1.99v1.68c0 1.1.89 1.99 1.98 1.99h1.67c1.09 0 1.98-.89 1.98-1.99v-1.68c0-1.1-.89-1.99-1.98-1.99z"/><path d="m41.3881 76.9247c0 .37-.3.66-.66.66h-1.67c-.36 0-.66-.3-.66-.66v-1.68c0-.37.3-.66.66-.66h1.67c.36 0 .66.3.66.66zm-.66-3.66h-1.67c-1.09 0-1.98.89-1.98 1.99v1.68c0 1.1.89 1.99 1.98 1.99h1.67c1.09 0 1.98-.89 1.98-1.99v-1.68c0-1.1-.89-1.99-1.98-1.99z"/><path d="m47.9682 76.9247c0 .37-.3.66-.66.66h-1.67c-.36 0-.66-.3-.66-.66v-1.68c0-.37.3-.66.66-.66h1.67c.36 0 .66.3.66.66zm-.66-3.66h-1.67c-1.09 0-1.98.89-1.98 1.99v1.68c0 1.1.89 1.99 1.98 1.99h1.67c1.09 0 1.98-.89 1.98-1.99v-1.68c0-1.1-.89-1.99-1.98-1.99z"/><path d="m51.6083 69.2447c-1.06 0-2.08-.16-3.05-.45-.05-.02-.11-.03-.16-.05-.13-.04-.26-.08-.39-.13-.03-.01-.06-.02-.09-.03-.15-.06-.3-.11-.44-.18-.01 0-.01-.01-.02-.01-3.82-1.63-6.51-5.44-6.51-9.86 0-5.91 4.78-10.71 10.65-10.71s10.65 4.8 10.65 10.71c.01 5.9-4.77 10.71-10.64 10.71zm-3.64.76v.32c0 .21-.18.38-.38.38h-2.22c-.21 0-.38-.18-.38-.38v-1.76c.86.58 1.79 1.04 2.78 1.37.01 0 .02.01.03.01.05.02.11.04.17.06zm2.98 9.98c0 .79-.64 1.43-1.42 1.43h-19.27c-.78 0-1.42-.64-1.42-1.43v-15.34h12.46c.05.08.1.17.15.25.01.02.03.05.04.07.08.13.17.26.25.38.02.03.03.05.05.07.09.12.18.25.27.37.02.02.04.05.05.07.09.12.19.24.29.36.02.02.03.04.05.06.1.12.2.24.31.36.01.02.03.03.04.04.11.12.22.24.33.35l.02.02c.11.11.23.23.35.33.01.01.03.03.04.04.06.06.13.11.19.17-.05.16-.07.32-.07.49v2.23c0 .94.76 1.71 1.7 1.71h2.22c.93 0 1.69-.75 1.7-1.68h.03c.16.03.33.06.49.09.02 0 .03 0 .05.01.17.03.35.05.52.07h.01c.18.02.35.03.53.04h.03v9.44zm-20.69-20.79h3.41v2.03c0 .37.3.66.66.66s.66-.3.66-.66v-2.03h4.65v.03c.01.18.02.36.04.53v.01c.02.18.04.35.07.52 0 .02.01.03.01.05.03.17.05.33.09.5 0 .02.01.05.01.07.03.16.07.32.11.47.01.03.01.05.02.08.04.16.08.31.12.46.01.03.02.05.03.08.05.15.09.3.14.45.01.03.02.05.03.08.05.15.11.3.17.45.01.02.02.04.02.06.04.09.08.19.12.28h-11.78v-2.69c0-.79.64-1.43 1.42-1.43zm33.32-.66c0-6.64-5.37-12.04-11.97-12.04-6.38 0-11.61 5.04-11.95 11.37h-4.66v-2.03c0-.37-.3-.66-.66-.66s-.66.3-.66.66v2.03h-3.41c-1.51 0-2.74 1.24-2.74 2.76v19.36c0 1.52 1.23 2.75 2.74 2.75h19.26c1.51 0 2.74-1.24 2.74-2.75v-9.44c6.29-.34 11.31-5.6 11.31-12.01z"/><path d="m59.1583 54.2047c-.26-.26-.67-.26-.93 0l-8.54 8.58c-.21.22-.5.33-.8.33s-.59-.12-.8-.33l-3.1-3.11c-.26-.26-.68-.26-.93 0-.26.26-.26.68 0 .94l3.1 3.12c.46.47 1.08.72 1.74.72s1.27-.26 1.74-.72l8.54-8.59c.24-.26.24-.68-.02-.94z"/></g><path d="m13.4284 47.5747c-.19 0-.37-.08-.5-.23-.23-.27-.19-.68.09-.91 1.42-1.17.9-4.15.53-5.41-2.04-1.9-3.82002-4.11-4.42002-6.39-.63-2.37-1-4.84-1.07-7.14l-.21-2.76c-.03-.35.24-.66.59-.69.35-.02.66.24.69.59l.21 2.79c.07 2.24.43 4.61 1.03002 6.88.55 2.06 2.29 4.13 4.15 5.85.02.02.04.03.06.05 1.29 1.19 2.63 2.21 3.67 2.94 1.18.83 2.64.83 3.83 0 1-.7 1.94-1.44 2.82-2.18l.37-.33c.45-.4.89-.8 1.32-1.22 1.51-1.52 2.65-3.32 3.39-5.34.59-1.6 1-3.03 1.25-4.37.24-1.27.44-2.76.08-4.08-.85-3.08-3.33-4.27-5.96-5.54-1.87-.9-3.8-1.83-5.26-3.48-.24-.27-.21-.67.05-.91.27-.24.67-.21.91.05 1.29 1.46 3.1 2.33 4.86 3.17 2.77 1.33 5.64 2.71 6.64 6.36.43 1.58.22 3.24-.05 4.66-.26 1.41-.69 2.91-1.3 4.58-.81 2.19-2.04 4.14-3.68 5.8-.19.19-.38.38-.58.56-.37 1.16-.98 4.35.49 5.56.27.23.31.63.09.91s-.63.31-.91.09c-1.51-1.24-1.53-3.5-1.3-5.11-.78.65-1.61 1.28-2.47 1.88-1.64 1.15-3.67 1.15-5.31 0-.76-.54-1.56-1.13-2.35-1.79.21 1.61.16 3.8-1.31 5.02-.15.09-.29.14-.44.14zm-4.70002-.87c-1.65 0-3.34-.44-4.67-1.26-2.18-1.34-2.51-4.14-2.78-6.38-.05-.44-.1-.86-.17-1.25-.209999-1.32-.379999-2.64-.519999-3.94-.58999986-5.42-1.06-11.16.26-16.62 1.249999-5.13 4.569999-9.31001 7.779999-13.35.66-.83 1.65002-1.95001 3.28002-2.88001 1.26-.719995 2.76-1.0699952 4.45-1.01999515.56.01000005 1.11.03999995 1.67.06999995l.19.0100001c.45.0200001.9.0200001 1.35.0200001.55.01 1 0 1.45-.0200001l.18-.0100001c.56-.03 1.12-.0499999 1.68-.06999995 1.71-.02999995 3.18.30000015 4.45 1.01999515 1.63.93 2.63 2.05 3.23 2.82 3.27 4.11 6.58 8.29001 7.83 13.42001 1.32 5.46.86 11.2.27 16.62-.14 1.28-.31 2.61-.52 3.94-.06.39-.11.81-.17 1.25-.27 2.25-.61 5.04-2.79 6.38-1.78 1.1-4.2 1.52-6.33 1.11-.35-.07-.58-.41-.51-.76s.4-.58.76-.51c1.81.36 3.88-.01 5.4-.94 1.65-1.02 1.93-3.37 2.18-5.44.05-.45.11-.89.17-1.29.21-1.31.38-2.62.51-3.88.58-5.3 1.03-10.92-.24-16.18-1.17-4.85-4.4-8.92-7.52-12.84001-.64-.81-1.5-1.76-2.92-2.56999-1.05-.6-2.34-.89001-3.78-.85001-.55.01-1.1.04-1.65.06l-.19.01c-.47.02-.95.03-1.43.02-.55 0-1.02 0-1.5-.02l-.19-.01c-.55-.03-1.09-.05-1.64-.06-1.46-.04-2.72.25001-3.78.86001-1.42.80999-2.28 1.75999-2.86002 2.49999-3.17 4-6.41 8.06001-7.58 12.92001-1.269999 5.26-.82 10.87-.24 16.18.14 1.27.31 2.58.52 3.88.06.41.12.85.17 1.3.25 2.07.53 4.42 2.18 5.44 1.52.93 3.59 1.3 5.40002.94.35-.07.69.16.76.51s-.16.69-.51.76c-.52002.06-1.07002.11-1.63002.11zm12.09002-6.48h-.98c-.07 0-.14 0-.2-.01-.33-.03-.65-.12-.94-.27-.04-.02-.07-.04-.1-.06l-.6-.46-.37-.19c-.32-.16-.44-.55-.28-.87.03-.05.06-.09.09-.13-.01 0-.02 0-.03.01-.19.04-.38.04-.59.01-.35-.05-.6-.38-.55-.73s.39-.59.73-.55c.06.01.11 0 .16 0 .19-.04.3-.16.3-.16l.19-.26c.27-.36.63-.62 1.04-.75.09-.03.22-.06.43-.08.44-.04.72.05.92.12.12.04.19.06.29.06.13.01.17-.02.29-.06.2-.06.48-.15.92-.11.19.02.36.06.52.12.4.16.74.44.99.82.08.13.22.22.39.28.35-.09.7.11.79.45s-.11.7-.45.79l-.14.04c-.1.03-.2.04-.29.02-.05-.01-.11-.02-.16-.03.03.03.05.06.07.1.18.31.07.7-.24.88l-.34.19-.52.42c-.35.21-.65.32-.96.37-.12.03-.25.04-.38.04zm-1.49-1.39c.13.06.27.09.41.11h1.08c.06 0 .12 0 .18-.01.16-.02.31-.08.44-.15l.49-.4c.03-.02.05-.04.08-.06l.38-.22c.08-.05.17-.07.25-.08-.27-.15-.49-.36-.66-.61-.1-.16-.24-.27-.38-.33-.04-.02-.1-.03-.18-.04-.18-.02-.26.01-.41.05-.16.05-.36.11-.69.12-.3 0-.52-.08-.67-.13s-.24-.08-.43-.06c-.09.01-.12.02-.15.02-.15.04-.28.14-.39.29l-.19.26c-.11.14-.28.3-.5.43.08.01.15.03.23.07l.42.22c.04.02.07.04.1.06zm-12.32002-4.47c-.22 0-.44-.11-.56-.32-1.34-2.3-1.72-5.57-.96-8.32 1-3.65 3.87-5.03 6.64002-6.36 1.75-.84 3.57-1.72 4.86-3.17 1.33-1.5 1.93-3.1 1.8-4.76-.26-3.24001-3.22-5.71001-3.25-5.74001-.27-.23-.31-.63-.09-.91s.63-.32.9-.09c.14.11 3.42 2.83 3.72 6.62001.16 2.02-.55 3.95-2.12 5.72-1.46 1.65-3.39 2.58-5.26 3.48-2.63 1.26-5.11002 2.46-5.96002 5.54-.67 2.44-.34 5.31.83 7.33.18.31.07.7-.23.88-.1.07-.21.1-.32.1zm13.35002-.55c-.44 0-.89-.14-1.36-.41-.58-.34-1.25-1.01-1.31-1.79-.03-.36.09-.57.33-.99.09-.16.22-.38.39-.7.12-.21.34-1.5 0-3.54-.21-1.25-.39-1.49-.53-1.67-.03-.04-.15-.18-.56-.48-.61-.45-1.39-.63-2.13-.5-.38.07-.75.15-1.12.23-.66.14-1.6.34-2.75.46-.36.05-.67-.22-.71-.57s.22-.67.57-.71c1.1-.12 1.99-.3 2.56-.43.44-.1.83-.18 1.22-.25 1.09-.2 2.23.06 3.13.73.39.29.66.53.82.74.33.42.56.93.78 2.24.31 1.85.25 3.64-.14 4.36-.17.32-.3.55-.4.72-.09.16-.15.25-.17.32.03.15.33.49.67.7.16.09.53.31.89.23.13-.03.22-.06.39-.18.43-.29.81-.59.82-.6.28-.22.68-.17.9.1.22.28.17.68-.1.9 0 0-.43.34-.9.66-.28.19-.52.3-.82.37-.16.05-.31.06-.47.06zm6.7-5.13c-.26 0-.5-.16-.6-.41-.03-.07-.14-.13-.26-.17-.04.01-.09.02-.13.03-.52.12-.96.08-1.15.06-.28-.02-.48-.07-1.36-.32l-.72-.21c-.34-.1-.54-.46-.44-.8s.45-.54.8-.44l.72.21c.85.24.98.26 1.13.28.15.01.42.04.75-.04.05-.01.1-.03.15-.04.03-.01.05-.02.08-.03.31-.11.54-.28.7-.41.21-.17.63-.41 1.19-.41.53.01.9.25 1.08.38.28.22.33.62.11.9s-.63.33-.9.11c-.04-.03-.15-.11-.31-.11-.16.01-.29.08-.34.12-.02.02-.04.04-.06.05.08.11.15.22.2.35.13.33-.03.7-.37.83-.12.06-.2.07-.27.07zm-14.21 0c-.08 0-.16-.01-.23-.04-.33-.13-.49-.5-.37-.83.05-.13.12-.24.2-.35-.03-.02-.06-.05-.09-.07-.02-.01-.13-.07-.32-.1-.16 0-.28.08-.31.11-.28.22-.68.17-.9-.11s-.17-.68.11-.9c.18-.14.55-.37 1.08-.38.56-.01.97.24 1.16.39.23.2.47.34.72.43.03.01.06.02.08.03.05.01.1.03.15.04.32.07.6.05.75.04s.28-.04 1.13-.28l.68-.19.39 1.23-.72.21c-.88.25-1.09.3-1.36.32-.19.02-.62.06-1.15-.06-.04-.01-.09-.02-.13-.03-.12.04-.23.09-.26.17-.11.22-.35.37-.61.37zm9.62-3.7c-.14 0-.27-.04-.39-.13-.28-.22-.34-.62-.12-.9.16-.2.42-.44.82-.73.89-.66 2.03-.93 3.13-.73.41.08.82.16 1.22.25.85.18 1.65.36 2.55.43.35.03.62.34.59.69-.03.36-.34.61-.69.59-.99-.08-1.87-.27-2.72-.45-.39-.08-.78-.17-1.18-.24-.74-.14-1.52.04-2.13.5-.41.3-.53.45-.56.48-.14.15-.33.24-.52.24zm-14.57002-8.09c-.25 0-.5-.15-.6-.4-.13-.33.03-.7.36-.84l.11-.04c2.14-.86 4.35002-1.75 5.32002-3.85.63-1.37.63-3.14001 0-5.40001-.09-.34.11-.7.45-.79s.7.11.79.45c.71 2.57001.69 4.63001-.07 6.28001-1.17 2.57-3.74 3.6-6.00002 4.51l-.11.04c-.09.02-.17.04-.25.04zm23.38002-3.02c-.11 0-.23-.03-.33-.09-1.5-.9-2.64-2.21-3.73-3.49-.64-.75001-1.25-1.45-1.92-2.08001-2.4-2.23-5.58-3.71-8.96-4.15-.35-.05-.6-.37-.55-.72.04-.35.37-.59.71-.55 3.64.48 7.07 2.07 9.66 4.48.73.68 1.39 1.44 2.02 2.18 1.08 1.25001 2.09 2.43001 3.42 3.22001.31.18.4.58.22.88-.11.21-.32.32-.54.32z" fill="#9e79b6"/></svg>