<svg fill="none" height="40" viewBox="0 0 41 40" width="41" xmlns="http://www.w3.org/2000/svg"><g fill="#f6a1ba"><path d="m19.1 10.18c0 4.92-4 8.93-8.93 8.93-4.92 0-8.93-4-8.93-8.93 0-4.92 4-8.93 8.93-8.93s8.93 4.01 8.93 8.93zm1.26 0c0-5.61-4.57-10.18-10.18-10.18s-10.18 4.57-10.18 10.18 4.57 10.18 10.18 10.18 10.18-4.57 10.18-10.18z"/><path d="m22.4904 21.08c-.95-2.19-.99-4.61-.11-6.83s2.57-3.96 4.75-4.91002c1.13-.49 2.32-.74 3.54-.74 3.56 0 6.78 2.11002 8.2 5.38002.95 2.19.99 4.61.11 6.83s-2.57 3.96-4.75 4.91c-1.13.49-2.32.74-3.54.74-3.57 0-6.78-2.11-8.2-5.38zm17.53-7.59c-1.61-3.73002-5.28-6.14002-9.35-6.14002-1.39 0-2.75.28-4.04.84-2.49 1.08-4.42 3.07002-5.42 5.60002s-.96 5.29.12 7.79c1.61 3.73 5.28 6.13 9.35 6.13 1.39 0 2.75-.28 4.04-.84 2.5-1.08 4.42-3.07 5.42-5.6 1.01-2.52.96-5.28-.12-7.78z"/><path d="m36.5103 15.41-11.37 4.93c-.08.04-.17.05-.26.05-.27 0-.5-.16-.61-.4-.15-.34.01-.73.34-.87l11.38-4.93c.08-.04.17-.05.26-.05.27 0 .51.16.61.4.14.33-.01.72-.35.87zm1.5-1.37c-.3-.7-1-1.16-1.76-1.16-.26 0-.52.05-.76.16l-11.37 4.93c-.97.42-1.42 1.55-1 2.52.3.7.99 1.16 1.76 1.16.26 0 .52-.05.76-.16l11.38-4.93c.96-.42 1.41-1.55.99-2.52z"/><path d="m4.08999 8.43003 12.25001 1.90997c.09.01.18.05.25.09.22.14.34.4.3.66-.06.36-.4.61-.76.55l-12.24001-1.89997c-.09-.01-.18-.05-.25-.09-.22-.14-.34-.4-.3-.67.05-.36.39-.61.75-.55zm-1.99.36c-.12.75.22 1.50997.87 1.90997.22.14.47.23.73.27l12.25001 1.91c1.05.16 2.03-.55 2.19-1.6.12-.76-.22-1.50997-.87-1.91997-.22-.14-.47-.23-.73-.27l-12.25001-1.9c-1.05-.17-2.03.55-2.19 1.6z"/><path d="m26.7702 34.93c-.81 1.94-3.18 3.1-6.34 3.1-1.94 0-4.03-.45-6.04-1.29-2.69-1.13-4.93-2.83-6.32-4.8-1.33-1.88-1.7-3.76-1.06-5.3.81-1.94 3.18-3.1 6.34-3.1 1.94 0 4.03.44 6.04 1.29 2.69 1.13 4.93 2.83 6.32 4.8 1.33 1.88 1.71 3.76 1.06 5.3zm-6.89-11.25c-2.16-.91-4.42-1.39-6.52-1.39-3.67 0-6.48 1.45-7.49 3.87-.82 1.95-.4 4.26 1.19 6.51 1.52 2.16 3.96 4.02 6.86 5.23 2.16.9 4.42 1.38 6.52 1.38 3.67 0 6.48-1.45 7.49-3.87.82-1.95.4-4.26-1.19-6.51-1.52-2.15-3.96-4.01-6.86-5.22z"/></g></svg>