<svg fill="none" height="72" viewBox="0 0 56 72" width="56" xmlns="http://www.w3.org/2000/svg"><g fill="#f6a1ba"><path d="m46.39 17.7c-.28-.2-.66-.15-.87.13l-.37.5-.38.52-.49.65-.7-.52-.5-.37-.5-.37-3.54-2.62-.5-.37-.5-.37-.7-.52.87-1.18.37-.5c.2-.28.15-.66-.13-.87l-.5-.37-1.21-.9c-.09-.07-.15-.17-.17-.28s.01-.23.08-.32l.05-.07c.08-.11.21-.17.34-.17.06 0 .16.02.25.08l1.54 1.14 1.37 1.02.5.37.5.37 1.27.94 1 .74 1.27.94.5.37.5.37 1.37 1.02 1.54 1.14c.02.02.05.04.06.06l.01.01c.01.02.03.04.04.06v.01c.03.05.04.1.05.15v.07.01c0 .02 0 .04-.01.06v.03c0 .01-.01.03-.01.04-.01.01-.01.03-.01.04s-.01.02-.02.03c-.01.02-.02.03-.03.05l-.05.07c-.01.01-.02.03-.03.04-.08.09-.19.14-.31.14-.05 0-.11-.01-.18-.04-.02-.01-.05-.02-.07-.04l-1.21-.9zm-23.09 23.9-.23.22-.92-.68.15-.28 2.26-4.3 2.2 1.63zm12.8-11.06-.7-.52-.5-.37-.5-.37-1.07-.79-.74 1 1.07.79.5.37.5.37.7.52-3.15 4.25-.7-.52-.5-.37-1.57-1.16-.3.4-.37.5-.07.1 2.77 2.05-1.6 2.17-1.21-.89-.5-.37-3.52-2.61-.5-.37-1.21-.89 13.67-18.45.7.52.5.37.5.37 3.54 2.62.5.37.5.37.7.52-3.55 4.79-.7-.52-.5-.37-.5-.37-1.07-.79-.37.5-.37.5 1.07.79.5.37.5.37.7.52zm11.29-20.57c-.15.2-.16.47-.03.69l.38.63-2.24 3.02-1.27-.94 2-2.7-1-.74-2 2.7-1.27-.94 2.24-3.02.71.18c.24.06.5-.03.65-.23l2.51-3.39 1.84 1.36zm6.78-2.64-.26.35c-.05.07-.12.1-.21.1-.04 0-.1-.01-.15-.05l-1.92-1.42-.5-.37-2.84-2.1-.5-.37-1.92-1.42c-.11-.08-.14-.24-.05-.36l.26-.35c.05-.07.12-.1.21-.1.04 0 .1.01.15.05l7.67 5.68c.07.05.1.13.1.17.02.04.02.12-.04.19zm1.28-.37c-.06-.4-.27-.74-.59-.98l-7.67-5.68c-.26-.2-.57-.3-.89-.3-.47 0-.92.23-1.2.61l-.26.35c-.49.66-.35 1.6.31 2.09l1.92 1.42-2.27 3.06-.71-.18c-.24-.06-.5.03-.65.23l-2.49 3.35-2.91-2.16c-.29-.21-.63-.33-1-.33-.53 0-1.03.25-1.34.68l-.05.08c-.27.36-.38.8-.31 1.24.02.11.04.22.08.32.01.04.03.08.05.11.12.26.3.49.53.66l1.21.9-.98 1.32-.26.35-14.42 19.46c-.1.13-.14.3-.12.46s.11.31.24.41l1.86 1.38-2.74 5.23c-.14.27-.07.6.18.79l.39.29-21.36 29 1 .74 21.37-29.01.39.29c.11.08.24.12.37.12.16 0 .32-.06.44-.18l4.2-4.14 1.86 1.38c.11.08.24.12.37.12.19 0 .38-.09.5-.25l15.65-21.12 1.21.9c.29.21.63.33.99.33.13 0 .25-.02.38-.05h.01c.01 0 .01 0 .02-.01.37-.09.7-.31.93-.62l.05-.07c.01-.02.03-.04.04-.06.02-.03.04-.05.05-.08.01-.01.01-.03.02-.04.02-.04.04-.07.06-.11 0-.01 0-.01.01-.02.13-.29.18-.61.13-.94s-.19-.63-.41-.87c-.03-.04-.07-.07-.1-.1-.01-.01-.01-.01-.02-.02-.04-.04-.08-.07-.13-.11l-2.91-2.16 2.49-3.35c.15-.2.16-.47.03-.69l-.38-.63 2.27-3.06 1.92 1.42c.26.19.57.29.89.29.47 0 .92-.23 1.2-.61l.26-.35c.25-.31.35-.7.29-1.1z"/><path d="m32.1697 31.69-.37.5-.37.5.28.21.5.37.5.37.7.52.37-.5.37-.5-.7-.52-.5-.37-.5-.37z"/><path d="m36.8403 27.02-.5-.37-.28-.21-.37.5-.37.5.28.21.5.37.5.37.7.52.74-1-.7-.52z"/><path d="m39.99 22.77.5.37.7.52.37-.5.37-.5-.7-.52-.5-.37-.5-.37-.28-.21-.37.5-.37.5.28.21z"/><path d="m32.75 25.82c-.12 0-.24-.04-.34-.11-.25-.19-.31-.55-.12-.8l4.28-5.87c.11-.15.28-.24.46-.24.12 0 .24.04.34.11.12.09.2.22.23.37.02.15-.01.3-.1.43l-4.28 5.87c-.12.15-.29.24-.47.24zm6.07-6.73c-.07-.48-.33-.9-.72-1.19-.17-.12-.36-.21-.55-.27-.17-.05-.34-.07-.51-.07-.07 0-.14 0-.21.01-.5.06-.96.32-1.26.73l-4.28 5.87c-.29.39-.39.86-.33 1.31.03.25.12.49.25.71.12.2.28.38.48.52.31.23.68.35 1.07.35.58 0 1.13-.28 1.47-.75l4.28-5.87c.27-.39.38-.87.31-1.35z"/></g><g fill="#f9c5d3"><path d="m38.8603 39.14-17.83 16.87.86.9 17.82-16.87"/><path d="m37.8604 43.61-13.92 20.2 1.02.71 13.93-20.21"/></g></svg>