<svg fill="none" height="84" viewBox="0 0 54 84" width="54" xmlns="http://www.w3.org/2000/svg"><g fill="#f6a1ba"><path d="m24.4206 75.1507-2.68-1.98-.97-5.77.53.39 8.92 6.61zm14.81-33.73 1.12.83-.59.8-.36.49-.36.49-.65.88-1.12-.83.65-.88.36-.49.36-.49zm3.44 2.55-.59.8-.36.49-.36.49-.65.88-1.35-1 .64-.88.36-.49.36-.49.59-.8zm3.99 4.96-.36.49-.65.88-1.22-.91-.13-.1.65-.88.36-.49.36-.49.6-.8 1.35 1-.59.8zm-4.16-.97-.82-.61.65-.88.36-.49.36-.49.59-.8 1.64 1.22-.59.8-.36.49-.36.49-.65.88-.29-.21zm7.21 1.23-.59.8-.36.49-.36.49-.65.88-1.12-.83.65-.88.36-.49.36-.49.59-.8zm-11.45-8.49-.59.8-.36.49-.36.49-.65.88-.7-.52-.49-.36-.18-.13 1.37-1.85.6-.81zm7.44 16.55-13.02-9.65c.88-1.42 1.66-2.7 2.28-3.72l1.09.81 6.94 5.14.1.07 1.25.92 1.08.8 3.19 2.36c-.81.9-1.8 2.02-2.91 3.27zm-21.16 3.26c2.47-3.77 5.37-8.41 7.51-11.87l12.85 9.52c-2.69 3.05-6.28 7.17-9.17 10.63zm7.09 13.43-10.82-8.02c.82-1.08 1.88-2.61 3.06-4.39l11.08 8.21c-1.36 1.64-2.52 3.1-3.32 4.2zm-9.8 3.25-1.4-1.03-.49-.36-.02-.01.83-1.13.34-.45.38.28.55.41.66.49.55.41.38.28-.34.45-.83 1.13-.13-.1zm-3.98 4.29-7.57 1.13c-.04.01-.09.01-.13.01-.42 0-.79-.32-.85-.74-.03-.23.02-.46.16-.64.14-.19.34-.31.57-.34l7.03-1.05c.14-.02.27-.09.37-.2l2.22-2.57 1.4 1.03-2.66 3.08c-.15.16-.34.26-.54.29zm33.6-29.76-1.37 1.85-.18-.13-.49-.36-.7-.52.65-.88.36-.49.36-.49.59-.8 1.36 1.01zm1.8-1.41-2.34-1.73-11.45-8.49-2.34-1.73c-.13-.1-.29-.14-.45-.11-.16.02-.3.11-.4.24l-2.69 3.63c-.2.27-.14.65.13.85l.26.2c-3.31 5.43-11.23 18.31-14.39 22.36-.2.13-.3.37-.26.6l1.16 6.88-1.89 2.55c-.18.25-.15.59.07.8l-2.02 2.34-6.81 1.01c-.55.08-1.03.37-1.36.82s-.47.99-.39 1.54c.15 1.01 1.03 1.77 2.05 1.77.1 0 .21-.01.31-.02l7.57-1.13c.49-.07.94-.32 1.27-.7l2.72-3.15.2.15c.11.08.23.12.36.12.19 0 .37-.08.49-.24l1.89-2.55 6.91-.89c.24-.03.43-.2.5-.42 2.95-4.2 12.97-15.53 17.21-20.27l.26.2c.1.08.23.12.36.12.03 0 .06 0 .09-.01.16-.02.3-.11.4-.24l2.69-3.63c.22-.3.16-.68-.11-.87z"/><path d="m39.9207 32.0707c.25 1.16-.5 2.3-1.66 2.55l-28.03 5.96c-1.15997.25-2.29997-.5-2.54997-1.66l-6.12-28.86c-.25-1.15997.5-2.29997 1.66-2.54997l28.02997-5.96c1.16-.25 2.3.5 2.55 1.65zm-9-31.9899667-28.01997 5.9599967c-1.979997.42-3.239997 2.36-2.8199967 4.33997l6.1299967 28.86c.42 1.97 2.37 3.24 4.33997 2.82l28.03-5.96c1.97-.42 3.24-2.37 2.82-4.34l-6.14-28.85997c-.42-1.979997-2.36-3.239997-4.34-2.8199967z"/><path d="m35.4808 29.5207c.19.89-.38 1.77-1.27 1.96l-21.53 4.58c-.89.19-1.77-.38-1.96-1.27l-4.71997-22.18c-.19-.89.38-1.77 1.27-1.96l21.52997-4.56997c.89-.19 1.77.38 1.96 1.27zm-6.92-24.57997-21.52997 4.58c-1.52.32-2.49 1.81997-2.17 3.33997l4.71 22.17c.32 1.52 1.81997 2.49 3.33997 2.17l21.53-4.58c1.52-.32 2.49-1.82 2.17-3.34l-4.71-22.16997c-.32-1.52-1.82-2.49-3.34-2.17z"/><path d="m47.0108 68.7307c-1.59.13-3.12.71-4.41 1.66l-8.45 6.24c-.11.08-.2.21-.24.34-.05.17-.03.35.05.51l1.71 3.21c.08.15.22.27.39.32.14.04.29.04.42-.01l10.43-3.98c1.24-.47 2.36-1.25 3.23-2.26.75-.86 1.29-1.85 1.63-2.94l.52-1.71c.06-.21-.05-.43-.27-.5l-1.77-.54c-1.05-.32-2.14-.43-3.24-.34zm-11.18 13.05c-.37-.11-.68-.36-.86-.71l-1.71-3.21c-.18-.35-.22-.74-.11-1.12.09-.3.28-.57.53-.75l8.45-6.24c1.41-1.04 3.07-1.67 4.82-1.81 1.2-.1 2.39.03 3.55.38l1.77.54c.63.19.99.86.8 1.49l-.52 1.71c-.37 1.2-.97 2.28-1.79 3.23-.96 1.1-2.18 1.96-3.55 2.48l-10.43 3.98c-.31.11-.64.12-.95.03z"/></g></svg>