<svg fill="none" height="72" width="68" xmlns="http://www.w3.org/2000/svg"><mask id="a" height="37" maskUnits="userSpaceOnUse" width="48" x="0" y="35"><path d="M23.31 71.84C10.15 71.84 0 65.95 0 53.52S11.29 35 24.45 35s23.21 3.74 23.21 16.18c-.01 12.43-11.19 20.66-24.35 20.66z" fill="#bea7d0"/></mask><path d="M53.727 61.13c-.27 0-.51-.17-.6-.43a.65.65 0 01.4-.81l9.16-3.11c.69-.23 1.3-.58 1.81-1.04.27-.24.77-.69 1.08-1.42l.09-.22c.55-1.47.55-3.18.55-4.83 0-.39 0-.79.01-1.17.04-1.98.07-3.96.08-5.93.03-3.73.01-6.74-.06-9.48-.09-3.55-.2-7.58-.98-11.35-.44-2.13-1.09-3.72-2.04-4.99-.33-.44-.69-.86-1.08-1.27l-.03-.03c-1.25-.97-4-2.33-7.79.04-.3.19-.69.09-.88-.2-.19-.3-.1-.69.2-.88 2.43-1.52 4.53-1.69 6.17-1.36-3.01-3.39-4.65-7.09-5.5-9.61a.65.65 0 01.4-.81c.33-.11.69.07.81.4.82 2.45 2.43 6.06 5.38 9.33.38.42.79.83 1.19 1.24.73.75 1.49 1.51 2.14 2.38 1.07 1.43 1.79 3.17 2.27 5.49.81 3.88.91 7.97 1.01 11.58.07 2.75.09 5.78.06 9.52-.02 1.98-.05 3.97-.08 5.95-.01.38-.01.76-.01 1.15 0 1.77 0 3.6-.63 5.29l-.1.25c-.42.99-1.08 1.59-1.4 1.87-.64.58-1.4 1.02-2.25 1.3l-9.16 3.11c-.08.03-.15.04-.22.04zm-13.12-1.2a.637.637 0 01-.61-.8c.01-.06 1.53-5.88 1.45-8.94-.07-2.63-2.17-8.37-2.75-9.92-1.42.04-2.84-.21-4.15-.79-4.33-1.92-5.32-6.41-5.52-7.83-.03-.07-.04-.14-.03-.2-.01-.05-.01-.09-.01-.13-.05-.17-.54-2.02-.54-2.02-.18-.51-.08-1.12.29-1.59.19-.25.45-.44.74-.57l2.53-1.62c.62-.56 1.25-1.08 1.87-1.57 3.77-2.94 6.98-5.86 9.81-8.91l.25-.27c1.36-1.47 1.95-3.45 1.57-5.28-.21-1.01-.47-1.73-.68-2.21-.5.23-.98.43-1.46.62l-.36.14c-1.71.68-4.57 1.81-5.83-.41-.47-.82-.62-1.69-.76-2.53-.05-.28-.1-.57-.16-.85-.13-.61-.34-1.21-.57-1.85-.18-.52-.37-1.05-.51-1.6a.637.637 0 111.23-.33c.13.51.31 1.01.48 1.51.22.64.46 1.3.61 1.99.07.3.12.6.17.91.13.77.25 1.5.61 2.11.66 1.16 2.47.56 4.26-.15l.37-.14c.61-.24 1.23-.51 1.88-.82 0 0 .01 0 .01-.01.03-.02.06-.03.09-.04a36 36 0 003.03-1.68l.54-.31c1.98-1.09 2.39-1.59 2.39-1.81 0-.35.29-.64.64-.64s.64.29.64.64c0 1.15-1.44 2.04-3.05 2.93-.2.11-.37.21-.5.28-.93.56-1.79 1.05-2.61 1.47.26.58.56 1.4.78 2.52.45 2.24-.25 4.63-1.88 6.4l-.25.27c-2.88 3.1-6.13 6.06-9.96 9.05-.54.42-1.07.87-1.61 1.34.16.71.36 2.17-.32 3.52-.47.93-1.27 1.62-2.37 2.06.28 1.46 1.28 4.9 4.71 6.42 2.49 1.1 5.51.87 7.7-.59 1.05-.7 1.93-1.7 2.52-2.88.16-.31.54-.44.86-.28.31.16.44.54.28.86a8.927 8.927 0 01-2.95 3.37c-1.03.69-2.22 1.14-3.46 1.35.73 1.96 2.64 7.32 2.71 10.02.09 3.25-1.43 9.06-1.49 9.3-.09.3-.35.49-.63.49zm-8.72-32.78l-1.84 1.13c-.17.08-.25.14-.32.22-.1.13-.13.28-.08.42.23.86.37 1.37.45 1.68.68-.32 1.17-.77 1.47-1.35.37-.71.39-1.51.32-2.1zm10.84 32.24c-.2 0-.39-.09-.51-.26a.638.638 0 01.13-.89c3.48-2.57 7.24-4.71 11.2-6.36 1.52-.63 3.09-1.2 4.69-1.7-.4-2.9-1.45-6.24-2.46-9.47-1.09-3.48-2.23-7.09-2.58-10.23-.2-1.52-.28-3.07-.25-4.61.01-.35.29-.67.65-.62.35.01.63.3.62.65-.04 1.48.04 2.96.24 4.43.34 3.03 1.46 6.57 2.53 10 1 3.18 2.03 6.46 2.47 9.4l.35-.15c.32-.13.7.02.83.34s-.02.7-.34.83l-1.11.46c-.01 0-.02.01-.04.01s-.03.01-.04.01c-1.72.51-3.43 1.12-5.07 1.8-3.86 1.6-7.53 3.69-10.93 6.21-.12.1-.25.15-.38.15z" fill="#9e79b6"/><path d="M23.31 71.84C10.15 71.84 0 65.95 0 53.52S11.29 35 24.45 35s23.21 3.74 23.21 16.18c-.01 12.43-11.19 20.66-24.35 20.66z" fill="#bea7d0"/><g mask="url(#a)"><path d="M15.518 84.461h-.08a.629.629 0 01-.54-.7l.39-2.92h-.64c-.34 0-.62-.28-.62-.62s.28-.62.62-.62h.8l.08-.59h-.88c-.34 0-.62-.28-.62-.62s.28-.62.62-.62h1.04l.1-.72h-1.14c-.34 0-.62-.28-.62-.62s.28-.62.62-.62h1.3l.03-.26h-1.86c-.65 0-1.18-.54-1.18-1.19v-9.23c-.11-1.48.4-3.19 1.39-4.65.55-.81.97-1.25 1.37-1.68.39-.41.75-.8 1.23-1.52.91-1.36.99-2.52 1.07-3.75.09-1.21.17-2.47 1.01-3.91.38-.66.87-1.27 1.46-1.81-2.68.43-5.38.65-8.1.6a48.5 48.5 0 01-7.22-.6c.59.54 1.08 1.15 1.46 1.81.83 1.45.92 2.7 1.01 3.92.09 1.23.17 2.39 1.07 3.75.48.72.84 1.11 1.23 1.52.4.43.82.88 1.37 1.68a7.563 7.563 0 011.28 4.7v9.18c0 .66-.53 1.19-1.18 1.19h-1.75l.03.26h1.3c.34 0 .62.28.62.62s-.28.62-.62.62h-1.14l.1.72h1.04c.34 0 .62.28.62.62s-.27.61-.61.61h-.88l.08.58h.8c.34 0 .62.28.62.62s-.28.62-.62.62h-.64l.39 2.92c.04.34-.2.65-.54.7-.33.05-.65-.2-.7-.54l-.72-5.43v-.03l-.4-3.04c-.55-.18-.99-.52-1.34-1-1.7-2.35-.76-7.73-.72-7.95.13-1.7-.48-3.39-1.68-4.67a10.252 10.252 0 01-2.71-5.9c-.05.05-.11.09-.17.13-1.25.93-2.98.97-3.85.91-.35.97-1.25 1.72-2.55 2.1-1.96.57-3.72.02-5.18-.6-1.29-.54-2.92-1.33-4.15-2.66-1.49-1.61-2.24-4.14-1.96-6.6.1-.9.34-1.76.72-2.56 1.21-2.54 3.34-3.63 4.04-3.99 3.99-2.05 8.33-.59 10.57.47l.34.16c.72.35 1.46.71 2.2.77.91.08 1.92-.08 2.86-.45.01 0 .1-.04.11-.04.2-.08.48-.24.8-.47 2.12-1.46 4.58-2.24 7.11-2.26 2.54.01 5 .79 7.11 2.26.33.23.6.39.84.48.01 0 .09.03.1.04.91.36 1.93.52 2.84.44.74-.06 1.48-.42 2.2-.77l.34-.16c2.23-1.05 6.58-2.52 10.57-.47.7.36 2.83 1.46 4.04 3.99.38.8.63 1.67.73 2.56.28 2.46-.48 4.99-1.96 6.6-1.23 1.33-2.86 2.12-4.15 2.66-1.46.62-3.22 1.17-5.18.6-1.3-.38-2.2-1.13-2.55-2.1-.87.06-2.6.02-3.85-.91-.06-.04-.11-.09-.17-.13-.17 1.48-.76 3.81-2.72 5.9-1.19 1.28-1.8 2.97-1.67 4.66.04.24.98 5.62-.72 7.97-.36.5-.81.84-1.34 1.01l-.4 3.03v.03l-.72 5.43c-.05.31-.32.54-.63.54zm7.96-38.5c.26 0 .5.17.59.42.1.3-.04.63-.33.77-1.68.77-2.91 1.8-3.64 3.08-.69 1.2-.77 2.26-.85 3.38-.09 1.34-.19 2.72-1.28 4.35-.53.8-.95 1.25-1.35 1.68-.39.42-.75.81-1.25 1.54-.84 1.23-1.27 2.65-1.18 3.9v9.27l2.45-.05c.38-.06.7-.26.95-.61 1.15-1.59.76-5.6.51-7a.875.875 0 01-.02-.16c-.16-2 .58-4.05 2.01-5.58 2.73-2.91 2.43-6.44 2.43-6.47-.04-1.16-.01-2.25.06-3.28.03-.34.31-.6.67-.57.34.03.6.33.57.67-.05.69-.08 1.41-.08 2.15.1.7.39 1.22.89 1.59.85.63 2.15.71 2.95.67.2-1.73 2.12-3.09 4.46-3.09.53 0 2.34.09 3.41 1.24.05.06.11.12.16.18.95-.05 1.79-.56 2.28-1.37 1.22-2.11.2-4.38.08-4.63-.74-1.55-2.09-2.24-2.6-2.5-1.56-.8-3.5-.89-5.66-.27-1.54.44-3.01 1.2-4.38 2.26-.27.21-.66.17-.87-.11a.62.62 0 01.11-.87c1.49-1.17 3.11-2 4.81-2.48 2.47-.7 4.73-.58 6.57.36.61.31 2.23 1.14 3.15 3.07.15.31 1.41 3.12-.09 5.72-.66 1.11-1.7 1.81-2.88 2 .03.22.04.45.03.68a.62.62 0 01-.67.57.625.625 0 01-.57-.67c.03-.45-.08-.82-.37-1.12-.58-.62-1.71-.84-2.5-.84-1.75 0-3.23.98-3.23 2.13 0 1.2 1.27 1.69 1.82 1.85 1.58.46 3.03.01 4.35-.55 1.17-.49 2.65-1.21 3.72-2.36 1.25-1.35 1.88-3.5 1.64-5.62a6.75 6.75 0 00-.61-2.17c-1.02-2.16-2.88-3.11-3.48-3.42-3.51-1.81-7.44-.47-9.47.49l-.33.16c-.78.38-1.66.8-2.63.89-1.09.1-2.31-.09-3.43-.53-.41-.16-.77-.37-1.17-.65-1.9-1.31-4.12-2.02-6.4-2.03-2.28.01-4.5.72-6.41 2.04-.39.28-.75.48-1.08.61-1.2.47-2.41.66-3.51.56-.97-.08-1.86-.51-2.64-.89l-.33-.16c-2.03-.96-5.95-2.29-9.47-.49-.61.31-2.46 1.26-3.48 3.42-.32.68-.53 1.4-.61 2.16-.24 2.11.39 4.26 1.64 5.62 1.07 1.15 2.55 1.87 3.72 2.36 1.26.53 2.77 1.01 4.35.55.55-.16 1.82-.66 1.82-1.85 0-1.16-1.48-2.13-3.23-2.13-.79 0-1.92.22-2.5.84-.28.3-.4.67-.37 1.12.03.34-.23.64-.57.67a.62.62 0 01-.67-.57c-.02-.23-.01-.46.03-.68a4.043 4.043 0 01-2.84-1.93c-1.55-2.68-.28-5.49-.13-5.8.92-1.93 2.54-2.76 3.15-3.07 1.84-.95 4.1-1.07 6.57-.36 1.69.48 3.31 1.31 4.8 2.48a.62.62 0 01-.76.98c-1.37-1.07-2.84-1.83-4.38-2.26-2.16-.62-4.1-.53-5.66.27-.51.26-1.86.95-2.6 2.5-.12.25-1.14 2.52.04 4.57.52.87 1.37 1.38 2.31 1.43.05-.06.1-.13.16-.19 1.07-1.15 2.88-1.24 3.41-1.24 2.34 0 4.26 1.36 4.46 3.08.72.04 2.06 0 2.96-.67.5-.38.79-.9.88-1.6 0-.73-.03-1.45-.08-2.15-.03-.34.23-.64.57-.67.36-.03.64.23.67.57.08 1.03.1 2.12.07 3.24-.01.08-.3 3.6 2.42 6.51 1.43 1.53 2.16 3.58 2.01 5.6 0 .02-.01.12-.01.14-.25 1.41-.65 5.41.51 7 .26.36.58.56.98.62l2.37-.01-.07-9.18c.1-1.4-.29-2.82-1.06-3.95-.5-.73-.86-1.12-1.25-1.54-.4-.43-.82-.88-1.35-1.68-1.09-1.63-1.19-3.01-1.28-4.35-.08-1.12-.15-2.18-.84-3.38-.74-1.28-1.96-2.31-3.64-3.08a.625.625 0 01-.33-.77c.1-.3.42-.47.73-.41 3.31.75 6.71 1.15 10.1 1.18 3.67.02 7.36-.36 10.96-1.18.02.05.07.05.11.05zm8.37 11.99c-1.52 0-2.71-.89-2.71-2.02s1.19-2.02 2.71-2.02c.34 0 .62.28.62.62s-.28.62-.62.62c-.84 0-1.46.41-1.46.78s.63.78 1.46.78 1.46-.41 1.46-.78c0-.34.28-.62.62-.62s.62.28.62.62c.01 1.14-1.18 2.02-2.7 2.02zm-38.07 0c-1.52 0-2.71-.89-2.71-2.02 0-.34.28-.62.62-.62s.62.28.62.62c0 .37.63.78 1.46.78s1.46-.41 1.46-.78-.63-.78-1.46-.78c-.34 0-.62-.28-.62-.62s.28-.62.62-.62c1.52 0 2.71.89 2.71 2.02s-1.18 2.02-2.7 2.02z" fill="#fff"/></g></svg>