<svg fill="none" height="68" width="48" xmlns="http://www.w3.org/2000/svg"><path d="M23.748 67.87c-.35 0-.64-.29-.64-.64v-5.1c-3.34-6.37-12.43-10.88-16.11-12.5-.88 4.21-1.38 10.7 1.4 17.3.14.32-.02.7-.34.83s-.7-.01-.83-.34c-4.04-9.59-1.55-18.71-.44-21.88 0-.01 0-.01.01-.02.23-.66.4-1.06.44-1.13.63-1.75 1.29-3.54 1.96-5.35 1.15-3.08 1.85-5.92 2.15-8.7.26-2.38.45-4.88-.42-7-.75-.9-1.16-1.9-1.5-2.84l-2.27 11.26c-.07.34-.4.57-.75.5a.644.644 0 01-.5-.75l2.77-13.77v-.35c-.02-.4-.1-1.07-.44-1.69a.63.63 0 01.26-.86c.31-.17.7-.05.86.26.46.85.57 1.74.59 2.29.09.78.27 1.55.53 2.28.46 1.29.93 2.62 2.22 3.61 2.06 1.57 4.66 1.08 4.94 1.02.67-.14 1.35-.42 1.89-.76 1.55-.99 2.18-2.51 2.42-3.33.1-.34.45-.53.79-.43s.53.45.43.79c-.29.99-1.05 2.83-2.95 4.05a7.3 7.3 0 01-2.31.94c-.51.11-2.98.53-5.27-.78.33 1.9.17 3.9-.03 5.71-.31 2.88-1.04 5.82-2.23 9-.68 1.81-1.33 3.6-1.97 5.38-.01.02-.07.16-.17.42a72.08 72.08 0 0016.52 1.7c4.95-.06 9.93-.63 14.83-1.71-.09-.24-.15-.36-.15-.38-.66-1.82-1.31-3.61-1.99-5.42-1.19-3.18-1.92-6.13-2.23-9-.2-1.81-.36-3.81-.03-5.71-2.29 1.31-4.75.89-5.27.78a6.768 6.768 0 01-2.31-.94c-1.9-1.22-2.66-3.06-2.95-4.05-.1-.34.1-.69.43-.79.34-.09.69.1.79.43.24.82.87 2.34 2.42 3.33.55.35 1.22.62 1.89.76.29.06 2.88.56 4.94-1.02 1.29-.99 1.76-2.32 2.22-3.61.26-.75.44-1.53.53-2.31v-.01c.02-.57.14-1.44.58-2.25a.64.64 0 01.86-.26c.31.17.42.55.26.86-.34.63-.42 1.33-.43 1.74v.01c-.01.21.01.35.01.35l2.76 13.71c.07.34-.15.68-.5.75s-.68-.15-.75-.5l-2.27-11.26c-.34.94-.75 1.93-1.5 2.83-.87 2.12-.68 4.62-.42 7 .3 2.77 1.01 5.62 2.16 8.7.68 1.81 1.33 3.61 1.98 5.39.19.42 4.88 11.36-.01 22.99-.14.33-.51.47-.83.34a.636.636 0 01-.34-.83c2.81-6.67 2.26-13.23 1.37-17.43-1.38.6-3.55 1.6-5.87 2.95-3.59 2.08-8.31 5.45-10.54 9.67v5.1c-.01.38-.3.67-.65.67zm-16.46-19.5c4.1 1.77 12.61 6.04 16.44 12.28h.03c2.01-3.29 5.55-6.41 10.52-9.3 2.5-1.45 4.82-2.51 6.22-3.11-.17-.67-.34-1.26-.5-1.75a74.136 74.136 0 01-15.23 1.77c-5.7.06-11.4-.53-16.95-1.76-.17.52-.35 1.15-.53 1.87zm16.46-8.39c-.71 0-1.35-.44-1.6-1.09-.13-.33.04-.7.37-.82.33-.13.7.04.82.37.06.16.22.27.4.27s.34-.11.4-.27a.64.64 0 01.82-.37c.33.13.49.49.37.82-.23.64-.87 1.08-1.58 1.09zm-22.19-8.01c-.33 0-.61-.26-.63-.59-.07-.98-.16-2.35-.25-4-.18-3.21-.29-5.32-.28-8.11s.14-4.6.28-6.53c.23-3.21.47-4.13.78-5.09.45-1.39 1.28-3.4 3.21-4.72 1.22-.84 2.26-.99 4.13-1.27 1.41-.21 3.34-.5 6.28-1.22.61-.15 1.15-.29 1.6-.41.34-.08.69.12.78.46s-.12.69-.46.78c-.46.12-1 .26-1.62.41-3 .74-4.96 1.03-6.39 1.24-1.74.26-2.61.39-3.6 1.06-1.24.85-2.08 2.1-2.71 4.06-.24.73-.48 1.48-.72 4.79-.14 1.9-.27 3.7-.28 6.44-.01 2.75.11 4.84.28 8.01.09 1.66.18 3.03.25 4 .03.35-.24.66-.59.68-.03.01-.04.01-.06.01zm44.7 0h-.05a.644.644 0 01-.59-.68c.07-.97.16-2.34.25-3.98.18-3.19.29-5.28.28-8.03-.01-2.78-.14-4.56-.28-6.44-.24-3.31-.48-4.06-.72-4.79-.64-1.96-1.47-3.21-2.71-4.06-.99-.68-1.8-.8-3.6-1.07-1.43-.21-3.4-.51-6.4-1.24-.61-.15-1.16-.29-1.62-.41a.65.65 0 01-.46-.78c.09-.34.43-.54.78-.46.46.12 1 .26 1.6.41 2.94.72 4.87 1.01 6.28 1.22 1.87.28 2.9.43 4.13 1.27 1.93 1.31 2.75 3.32 3.2 4.72.31.95.54 1.87.78 5.09.14 1.9.27 3.7.28 6.53.01 2.79-.11 4.9-.28 8.08-.09 1.67-.18 3.05-.25 4.03a.61.61 0 01-.62.59zm-14.37-10.34c-.3 0-.6-.1-.84-.29-.28-.21-.33-.61-.11-.89s.62-.33.89-.11c.01.01.04.03.08.02.21-.28.65-.35.92-.14.28.21.36.59.15.87-.2.27-.5.45-.82.51-.09.02-.18.03-.27.03zm-15.96 0c-.09 0-.18-.01-.27-.03-.32-.06-.62-.25-.82-.51a.636.636 0 011.01-.77c.28-.21.75-.16.96.12s.24.69-.04.9c-.25.19-.54.29-.84.29z" fill="#9e79b6"/></svg>