<svg fill="none" height="47" width="32" xmlns="http://www.w3.org/2000/svg"><path d="M20.273 46.44h-9.21c-.74 0-1.38-.5-1.56-1.23-.08-.34-.13-.69-.13-1.05 0-.35.04-.69.13-1.01.08-.31.24-.57.45-.78v-3.89c-.22-.21-.38-.48-.45-.79-.08-.34-.13-.69-.13-1.05 0-.35.04-.69.13-1.01.08-.31.24-.58.45-.78v-1.89c-.47.3-1 .52-1.58.64-1.34.28-2.8.01-4.11-.76-2.15-1.28-3.5-3.08-4.02-5.35-1.24-5.41 2.58-12 4.28-14.58a2.48 2.48 0 011.77-1.1l-1.1-1.95c-.72-1.27-.8-2.78-.2-4.03.04-.09.09-.18.13-.26l2.55-4.52c.43-.76 1.34-1.14 2.17-.9.58.17 1.02.58 1.22 1.13.2.54.13 1.13-.19 1.62-1.24 1.88-1.71 3.01-1.73 3.49.04.02.09.05.14.07.01-.01.03-.02.04-.03.14-.13.34-.35.49-.51.63-.7 1.41-1.58 2.43-1.44 1.22.16 2.12 1.81 2.36 2.29.25.38.42.69.54.91.05.1.07.15.1.18.12.03.79.03.97-.04-.02.01-.01-.04.02-.1.13-.25.3-.56.54-.93.42-.82 1.26-2.17 2.37-2.31 1.01-.14 1.8.74 2.43 1.44.14.16.34.38.49.51.02.01.03.02.04.04.05-.03.11-.05.14-.08-.03-.47-.49-1.61-1.74-3.49-.3-.46-.38-1.02-.22-1.54a1.863 1.863 0 013.39-.35l2.58 4.56c.25.46.42.95.51 1.45.17.93-.01 1.94-.5 2.84l-1.08 1.97c.66.11 1.28.5 1.67 1.09 1.7 2.58 5.52 9.17 4.28 14.58-.52 2.27-1.88 4.07-4.02 5.35-1.31.78-2.77 1.05-4.11.76-.61-.13-1.15-.35-1.64-.67v1.89c.18.16.32.36.42.59.16.39.25.81.25 1.23 0 .44-.08.87-.25 1.28-.1.23-.24.43-.42.59v3.82c.18.16.32.36.42.59.16.39.25.81.25 1.23 0 .44-.08.87-.25 1.28-.28.61-.86 1-1.51 1zm-7.38-4.52c.34 0 .62.28.62.62s-.28.62-.62.62h-1.83c-.17 0-.32.12-.37.29-.06.23-.09.47-.09.72s.03.5.09.74c.04.17.19.29.37.29h9.21c.15 0 .29-.09.35-.24.11-.25.16-.52.16-.8 0-.27-.05-.52-.16-.77a.385.385 0 00-.15-.18l-.06-.03a.32.32 0 00-.14-.03h-4.58c-.34 0-.62-.28-.62-.62s.28-.62.62-.62h4.42v-3h-4.42c-.34 0-.62-.28-.62-.62s.28-.62.62-.62h4.58c.04 0 .09-.01.13-.02.02-.01.05-.03.08-.04.06-.04.11-.1.14-.18.11-.25.16-.52.16-.8 0-.27-.05-.53-.16-.77a.368.368 0 00-.14-.18.161.161 0 01-.07-.04.277.277 0 00-.13-.03h-1.52c-.34 0-.62-.28-.62-.62s.28-.62.62-.62h1.36v-2.71c-.14-.2-.26-.41-.38-.63-.63-1.26-1.71-2.14-2.95-2.4-.4-.08-.79-.11-1.21-.12-.29 0-.58.03-.89.09-1.3.24-2.42 1.13-3.08 2.43-.13.25-.27.49-.43.71v2.63h4.61c.34 0 .62.28.62.62s-.28.62-.62.62h-4.73c-.06 0-.11.01-.16.04l-.06.03c-.07.05-.13.13-.15.22-.06.23-.09.48-.09.72 0 .25.03.5.09.74.02.09.08.17.15.23l.06.03c.05.02.1.04.16.04.34 0 .62.28.62.62 0 .3-.21.55-.49.6v3.02h1.7zm8.33-10.78c.5.65 1.17 1.07 2.01 1.25 1.05.22 2.19 0 3.23-.62 1.85-1.1 3.01-2.63 3.45-4.56 1.17-5.09-2.85-11.72-4.11-13.63-.3-.45-.84-.67-1.33-.53-.1.03-.14.05-.15.06-.24.19-.39.47-.42.77.29.07.64.21.98.45.44.31.77.73 1 1.26.03.08.05.16.05.24 0 .34-.28.62-.62.62-.27 0-.5-.17-.58-.41-.09-.2-.24-.48-.56-.7-.29-.21-.59-.28-.77-.3-.17.06-.49.22-.68.54s-.21.72-.06 1.1c.33-.01.66.03.98.13 1 .32 1.47 1.11 1.63 1.43.15.31.02.68-.28.83s-.67.02-.83-.28c-.07-.14-.34-.62-.91-.8-.22-.07-.45-.09-.69-.06-.15.12-.45.4-.49.84-.03.29.06.52.16.69.47.02.92.14 1.33.35.48.25.88.61 1.19 1.08.19.28.11.67-.17.85a.61.61 0 01-.85-.17 1.92 1.92 0 00-.73-.66c-.3-.15-.59-.2-.82-.21-.16.16-.32.38-.41.69-.11.39-.05.74.04.99.41.01.95.11 1.46.48.44.32.77.77.95 1.3.11.32-.07.67-.39.78s-.67-.07-.78-.39c-.1-.29-.26-.52-.5-.69-.15-.11-.31-.17-.46-.21-.08.53-.38 1.02-.85 1.3.72.66 1.17 1.21 1.46 1.61.2.28.13.66-.15.86s-.66.13-.86-.15c-.38-.54-1.13-1.39-2.53-2.45a.435.435 0 01-.17-.12c-.63-.4-1.74-.94-3.18-.97-1.8-.03-3.04.68-3.65 1.11-.07.05-1.46 1.08-2.41 2.43-.2.28-.58.34-.86.15a.622.622 0 01-.15-.86c.44-.61.94-1.16 1.4-1.6-.48-.28-.79-.78-.87-1.31-.15.04-.31.1-.46.21-.23.16-.4.39-.49.68-.08.25-.31.44-.59.44a.615.615 0 01-.59-.81 2.565 2.565 0 012.41-1.78c.09-.25.15-.6.04-.99-.09-.31-.26-.53-.4-.68-.24.01-.53.06-.83.21-.29.15-.54.38-.73.66a.613.613 0 01-1.02-.68 3.086 3.086 0 012.52-1.42c.09-.16.19-.4.16-.69-.04-.44-.34-.72-.49-.84-.18-.03-.43-.03-.7.06-.57.19-.84.67-.91.81-.15.31-.52.43-.83.28s-.43-.52-.28-.83c.16-.32.63-1.11 1.63-1.44.36-.12.69-.14.98-.13.14-.38.13-.78-.06-1.1s-.5-.47-.67-.54a1.658 1.658 0 00-1.34 1.02.61.61 0 01-.57.39c-.34 0-.62-.27-.62-.61 0-.08.02-.17.05-.24.08-.2.34-.79 1-1.26.34-.25.69-.38.98-.45-.03-.25-.13-.48-.31-.66a.234.234 0 01-.07-.07c-.02-.01-.03-.03-.05-.04 0 0-.04-.03-.14-.06-.48-.14-1.03.08-1.33.53-1.26 1.91-5.27 8.54-4.11 13.63.44 1.93 1.61 3.47 3.45 4.57 1.04.62 2.18.84 3.23.62 1.08-.23 1.88-.85 2.39-1.87.83-1.65 2.27-2.78 3.96-3.09.38-.07.73-.1 1.09-.11.49-.02.99.04 1.48.14 1.61.34 3 1.46 3.8 3.06.11.22.23.42.37.61-.01-.06-.01-.05 0-.04zm-10.73-7.9c-.06.25.05.52.27.64.2.11.47.09.68-.05.74-.52 2.29-1.38 4.39-1.34 1.96.04 3.4.86 4.08 1.34.21.15.48.17.68.05.22-.12.32-.39.26-.64-.19-.34-.57-1.2-.27-2.22.12-.43.33-.76.55-1.02a2.36 2.36 0 01-.28-1.35c.06-.67.4-1.16.69-1.46-.31-.74-.27-1.57.13-2.24.28-.47.67-.76.99-.93-.01-.73.33-1.44.92-1.89l.01-.01 1.58-2.87c.36-.66.49-1.38.37-2.03-.07-.37-.2-.74-.38-1.08l-2.57-4.55a.637.637 0 00-.78-.27c-.17.07-.3.21-.36.38-.03.1-.06.29.07.49 2.03 3.07 1.96 4.03 1.94 4.35-.03.38-.26.64-.5.81l.5.53a.616.616 0 01-.9.84l-1.32-1.41c-.2-.17-.4-.39-.59-.6-.39-.43-1-1.09-1.35-1.04-.37.05-.97.74-1.43 1.65-.01.03-.03.05-.05.08-.22.34-.38.63-.49.83-.11.21-.21.39-.41.56-.48.39-1.98.4-2.47 0-.2-.16-.29-.34-.38-.5-.13-.25-.29-.54-.52-.88-.03-.04-.05-.09-.07-.14-.28-.59-.95-1.53-1.41-1.59-.38-.04-.96.61-1.35 1.04-.19.22-.39.43-.59.61l-1.41 1.48c-.23.25-.63.26-.87.02a.607.607 0 01-.02-.87l.58-.61c-.25-.18-.47-.43-.5-.81-.02-.31-.1-1.27 1.93-4.35.1-.15.13-.34.06-.51a.608.608 0 00-.41-.37c-.28-.08-.59.06-.75.33l-2.55 4.52c-.03.06-.07.13-.1.19-.42.89-.36 1.97.16 2.89l1.76 3.11c.44.45.68 1.05.68 1.68.33.17.72.46.99.93.39.67.43 1.5.12 2.24.3.3.63.79.69 1.46.05.56-.11 1.02-.28 1.35.25.3.44.65.55 1.02.3 1.01-.09 1.87-.27 2.21zm5.18-4.16c-.89 0-1.74-.41-2.3-1.11-.14-.18-.39-.28-.66-.28h-1.18c-.34 0-.62-.28-.62-.62s.28-.62.62-.62h1.18c.65 0 1.25.28 1.62.75.34.43.86.66 1.4.64.48-.02.92-.25 1.23-.62.41-.5.99-.78 1.59-.78h1.38c.34 0 .62.28.62.62s-.28.62-.62.62h-1.38c-.32 0-.54.21-.64.33-.53.64-1.3 1.03-2.13 1.06-.03.01-.07.01-.11.01z" fill="#9e79b6"/></svg>