<svg fill="none" height="84" width="54" xmlns="http://www.w3.org/2000/svg"><g fill="#f6a1ba"><path d="M24.42 75.15l-2.68-1.98-.97-5.77.53.39 8.92 6.61zm14.81-33.73l1.12.83-.59.8-.36.49-.36.49-.65.88-1.12-.83.65-.88.36-.49.36-.49zm3.44 2.55l-.59.8-.36.49-.36.49-.65.88-1.35-1 .64-.88.36-.49.36-.49.59-.8zm3.99 4.96l-.36.49-.65.88-1.22-.91-.13-.1.65-.88.36-.49.36-.49.6-.8 1.35 1-.59.8zm-4.16-.97l-.82-.61.65-.88.36-.49.36-.49.59-.8 1.64 1.22-.59.8-.36.49-.36.49-.65.88-.29-.21zm7.21 1.23l-.59.8-.36.49-.36.49-.65.88-1.12-.83.65-.88.36-.49.36-.49.59-.8zM38.26 40.7l-.59.8-.36.49-.36.49-.65.88-.7-.52-.49-.36-.18-.13 1.37-1.85.6-.81zm7.44 16.55L32.68 47.6c.88-1.42 1.66-2.7 2.28-3.72l1.09.81 6.94 5.14.1.07 1.25.92 1.08.8 3.19 2.36c-.81.9-1.8 2.02-2.91 3.27zm-21.16 3.26c2.47-3.77 5.37-8.41 7.51-11.87l12.85 9.52c-2.69 3.05-6.28 7.17-9.17 10.63zm7.09 13.43l-10.82-8.02c.82-1.08 1.88-2.61 3.06-4.39l11.08 8.21c-1.36 1.64-2.52 3.1-3.32 4.2zm-9.8 3.25l-1.4-1.03-.49-.36-.02-.01.83-1.13.34-.45.38.28.55.41.66.49.55.41.38.28-.34.45-.83 1.13-.13-.1zm-3.98 4.29l-7.57 1.13c-.04.01-.09.01-.13.01a.87.87 0 01-.85-.74c-.03-.23.02-.46.16-.64.14-.19.34-.31.57-.34l7.03-1.05c.14-.02.27-.09.37-.2l2.22-2.57 1.4 1.03-2.66 3.08c-.15.16-.34.26-.54.29zm33.6-29.76l-1.37 1.85-.18-.13-.49-.36-.7-.52.65-.88.36-.49.36-.49.59-.8 1.36 1.01zm1.8-1.41l-2.34-1.73-11.45-8.49-2.34-1.73a.561.561 0 00-.45-.11c-.16.02-.3.11-.4.24l-2.69 3.63c-.2.27-.14.65.13.85l.26.2c-3.31 5.43-11.23 18.31-14.39 22.36-.2.13-.3.37-.26.6l1.16 6.88-1.89 2.55a.61.61 0 00.07.8l-2.02 2.34-6.81 1.01c-.55.08-1.03.37-1.36.82s-.47.99-.39 1.54a2.084 2.084 0 002.36 1.75l7.57-1.13c.49-.07.94-.32 1.27-.7L22 78.84l.2.15a.6.6 0 00.36.12c.19 0 .37-.08.49-.24l1.89-2.55 6.91-.89c.24-.03.43-.2.5-.42 2.95-4.2 12.97-15.53 17.21-20.27l.26.2c.1.08.23.12.36.12.03 0 .06 0 .09-.01.16-.02.3-.11.4-.24l2.69-3.63c.22-.3.16-.68-.11-.87zM39.92 32.07c.25 1.16-.5 2.3-1.66 2.55l-28.03 5.96c-1.16.25-2.3-.5-2.55-1.66L1.56 10.06c-.25-1.16.5-2.3 1.66-2.55l28.03-5.96c1.16-.25 2.3.5 2.55 1.65zm-9-31.99L2.9 6.04a3.656 3.656 0 00-2.82 4.34l6.13 28.86a3.669 3.669 0 004.34 2.82l28.03-5.96a3.669 3.669 0 002.82-4.34L35.26 2.9A3.656 3.656 0 0030.92.08z"/><path d="M35.48 29.52c.19.89-.38 1.77-1.27 1.96l-21.53 4.58c-.89.19-1.77-.38-1.96-1.27L6 12.61c-.19-.89.38-1.77 1.27-1.96L28.8 6.08c.89-.19 1.77.38 1.96 1.27zM28.56 4.94L7.03 9.52a2.82 2.82 0 00-2.17 3.34l4.71 22.17a2.82 2.82 0 003.34 2.17l21.53-4.58a2.82 2.82 0 002.17-3.34L31.9 7.11a2.82 2.82 0 00-3.34-2.17zm18.45 63.79a8.64 8.64 0 00-4.41 1.66l-8.45 6.24c-.11.08-.2.21-.24.34-.05.17-.03.35.05.51l1.71 3.21a.669.669 0 00.81.31l10.43-3.98a8.037 8.037 0 003.23-2.26c.75-.86 1.29-1.85 1.63-2.94l.52-1.71a.403.403 0 00-.27-.5l-1.77-.54a8.644 8.644 0 00-3.24-.34zM35.83 81.78c-.37-.11-.68-.36-.86-.71l-1.71-3.21c-.18-.35-.22-.74-.11-1.12.09-.3.28-.57.53-.75l8.45-6.24a9.365 9.365 0 014.82-1.81c1.2-.1 2.39.03 3.55.38l1.77.54c.63.19.99.86.8 1.49l-.52 1.71c-.37 1.2-.97 2.28-1.79 3.23a8.934 8.934 0 01-3.55 2.48l-10.43 3.98c-.31.11-.64.12-.95.03z"/></g></svg>