<svg fill="none" height="180" width="191" xmlns="http://www.w3.org/2000/svg"><path d="M189.816 78.783c.186.538.534 1.19.356 1.616-.141.36-.945.724-1.41.676a149.511 149.511 0 01-3.516-.432l-1.742-.253-1.745-.24-2.546-.38a76.658 76.658 0 00-2.533-.366c-1.698-.211-3.365-.447-5.047-.621-.492-.051-1.1.125-1.461-.116-.571-.368-1.217-.932-1.371-1.545-.098-.39.547-1.161 1.024-1.526.214-.164 1.078-.17 2.265-.084 1.203.075 2.715.29 4.249.551 3.091.468 6.179 1.229 6.756 1.34l.268-.406a119.658 119.658 0 01-6.942-1.979c-.772-.252-1.555-.535-2.366-.82a81.223 81.223 0 01-2.513-.898c-.863-.322-1.734-.688-2.656-1.053-.915-.357-1.869-.748-2.855-1.164-4.874-2.025-9.819-3.895-14.872-5.43a152.34 152.34 0 00-15.324-3.85c-10.334-2.052-20.89-2.864-31.392-2.535-10.503.344-20.96 1.9-31.141 4.54s-20.071 6.369-29.53 10.974c-11.808 5.763-23.178 12.625-33.53 20.786-1.57 1.239-3.234 2.651-4.792 3.692-1.558 1.041-3.01 1.711-4.246 1.461 1.85-2.75 4.245-5.263 6.887-7.587 2.65-2.33 5.579-4.458 8.615-6.48 9.019-5.969 18.658-10.864 28.38-15.37 8.517-3.961 17.368-7.221 26.455-9.63a147.67 147.67 0 0127.772-4.63c4.689-.34 9.405-.397 14.103-.265 4.701.155 9.401.487 14.067 1.122 4.66.627 9.304 1.43 13.901 2.484 1.15.253 2.287.554 3.434.835l1.712.427 1.699.476c1.133.329 2.27.63 3.401.973l3.369 1.061c5.195 1.704 10.484 3.02 15.651 5.035 3.603 1.45 7.185 3.103 10.702 4.869l-.061-.08c-.755-.92-1.543-1.803-2.296-2.738a59.71 59.71 0 01-3.069-4.174c-.221-.322-.028-1.288.309-1.521.322-.221 1.103.075 1.633.274.299.111.499.487.696.777a67.475 67.475 0 002.387 3.235c.409.518.834 1.024 1.259 1.53.417.512.85 1.012 1.291 1.506.875.98 1.8 1.908 2.767 2.793.949.91 1.961 1.773 3.025 2.57.213.165.445.353.523.57z" fill="#f9c5d3"/></svg>