<svg fill="none" height="21" width="21" xmlns="http://www.w3.org/2000/svg"><g fill="#fff"><path d="M10.5 14.875a.656.656 0 01-.656-.656V.656a.656.656 0 011.312 0V14.22a.656.656 0 01-.656.656z"/><path d="M10.5 14.875a.65.65 0 01-.464-.193l-3.5-3.5a.657.657 0 01.928-.928l3.037 3.036 3.036-3.036a.657.657 0 01.928.928l-3.5 3.5a.657.657 0 01-.465.193z"/><path d="M18.594 21H2.406A2.408 2.408 0 010 18.594v-3.938a.656.656 0 011.312 0v3.938c0 .603.491 1.094 1.094 1.094h16.188c.603 0 1.093-.491 1.093-1.094v-3.938a.657.657 0 011.313 0v3.938A2.408 2.408 0 0118.594 21z"/></g></svg>